<svg xmlns="http://www.w3.org/2000/svg" version="1.1" width="3300" height="2000"><g id="Notes"><style>
    text {
      font-family: monospace;
      text-anchor: middle;
    }
    text.emphasis {
      font-weight:bold;
    }
    text.lanchor {
      text-anchor: start;
    }
  </style><rect height="2200" id="artboard" fill="white" width="3300" x="0" y="0"/><line id="" style="fill:none;stroke:black;stroke-width:0.5;" x1="263" x2="3036" y1="292" y2="292"/><text class="lanchor emphasis" transform="matrix(1 0 0 1 263 322)">Weight/Scale Variations</text><text transform="matrix(1 0 0 1 559.711 322)">Ultralight</text><text transform="matrix(1 0 0 1 856.422 322)">Thin</text><text transform="matrix(1 0 0 1 1153.13 322)">Light</text><text transform="matrix(1 0 0 1 1449.84 322)">Regular</text><text transform="matrix(1 0 0 1 1746.56 322)">Medium</text><text transform="matrix(1 0 0 1 2043.27 322)">Semibold</text><text transform="matrix(1 0 0 1 2339.98 322)">Bold</text><text transform="matrix(1 0 0 1 2636.69 322)">Heavy</text><text transform="matrix(1 0 0 1 2933.4 322)">Black</text><text id="template-version" style="text-anchor: end;" transform="matrix(1 0 0 1 3036 1933)">Template v.1.0</text><text class="lanchor" transform="matrix(1 0 0 1 263 726)">Small</text><text class="lanchor" transform="matrix(1 0 0 1 263 1156)">Medium</text><text class="lanchor" transform="matrix(1 0 0 1 263 1586)">Large</text></g><g id="Guides"><g id="H-reference" style="fill:#27AAE1;stroke:none;" transform="matrix(1 0 0 1 339 696)"><path d="M 54.9316 0 L 57.666 0 L 30.5664 -70.459 L 28.0762 -70.459 L 0.976562 0 L 3.66211 0 L 12.9395 -24.4629 L 45.7031 -24.4629 Z M 29.1992 -67.0898 L 29.4434 -67.0898 L 44.8242 -26.709 L 13.8184 -26.709 Z"/></g><line id="Baseline-S" style="fill:none;stroke:#27AAE1;opacity:1;stroke-width:0.577;" x1="263" x2="3036" y1="696" y2="696"/><line id="Capline-S" style="fill:none;stroke:#27AAE1;opacity:1;stroke-width:0.577;" x1="263" x2="3036" y1="625.541" y2="625.541"/><g id="H-reference" style="fill:#27AAE1;stroke:none;" transform="matrix(1 0 0 1 339 1126)"><path d="M 54.9316 0 L 57.666 0 L 30.5664 -70.459 L 28.0762 -70.459 L 0.976562 0 L 3.66211 0 L 12.9395 -24.4629 L 45.7031 -24.4629 Z M 29.1992 -67.0898 L 29.4434 -67.0898 L 44.8242 -26.709 L 13.8184 -26.709 Z"/></g><line id="Baseline-M" style="fill:none;stroke:#27AAE1;opacity:1;stroke-width:0.577;" x1="263" x2="3036" y1="1126" y2="1126"/><line id="Capline-M" style="fill:none;stroke:#27AAE1;opacity:1;stroke-width:0.577;" x1="263" x2="3036" y1="1055.54" y2="1055.54"/><g id="H-reference" style="fill:#27AAE1;stroke:none;" transform="matrix(1 0 0 1 339 1556)"><path d="M 54.9316 0 L 57.666 0 L 30.5664 -70.459 L 28.0762 -70.459 L 0.976562 0 L 3.66211 0 L 12.9395 -24.4629 L 45.7031 -24.4629 Z M 29.1992 -67.0898 L 29.4434 -67.0898 L 44.8242 -26.709 L 13.8184 -26.709 Z"/></g><line id="Baseline-L" style="fill:none;stroke:#27AAE1;opacity:1;stroke-width:0.577;" x1="263" x2="3036" y1="1556" y2="1556"/><line id="Capline-L" style="fill:none;stroke:#27AAE1;opacity:1;stroke-width:0.577;" x1="263" x2="3036" y1="1485.54" y2="1485.54"/><rect height="119.336" id="left-margin" style="fill:darkred;stroke:none;opacity:0.4;" width="12.4512" x="1394.06" y="1030.79"/><rect height="119.336" id="right-margin" style="fill:darkgreen;stroke:none;opacity:0.4;" width="12.4512" x="1502.5112" y="1030.79"/><rect x="1406.5112" y="1045" width="96" height="96" fill="none" stroke="blue" stroke-dasharray="5"/><rect x="1394.06" y="1030.79" width="120.9024" height="119.336" fill="none" stroke="blue"/></g><g id="Symbols"><g id="Bold-L" transform="matrix(1 0 0 1 2266 1556)"><path d="M21.769 13.951 V-1.206 H33.218 V-46.195 Q33.218 -61.142 41.764 -73.341 Q50.31 -85.54 64.984 -88.765 V-91.345 Q64.984 -96.586 68.605 -100.254 Q72.227 -103.922 77.4 -103.922 Q82.573 -103.922 86.195 -100.254 Q89.816 -96.586 89.816 -91.345 V-88.765 Q104.49 -85.701 113.117 -73.446 Q121.744 -61.191 121.744 -46.195 V-1.206 H133.192 V13.951 H21.769 Z M77.481 34.753 Q71.603 34.753 67.407 30.537 Q63.21 26.321 63.21 20.401 H91.751 Q91.751 26.368 87.522 30.56 Q83.292 34.753 77.481 34.753 Z M48.375 -1.206 H106.425 V-46.195 Q106.425 -58.127 97.959 -66.674 Q89.494 -75.22 77.4 -75.22 Q65.306 -75.22 56.841 -66.674 Q48.375 -58.127 48.375 -46.195 V-1.206 Z"/></g><g id="Semibold-L" transform="matrix(1 0 0 1 1970.27 1556)"><path d="M23.521 12.199 V-0.575 H35.601 V-47.317 Q35.601 -61.654 43.902 -73.211 Q52.203 -84.769 66.176 -87.783 V-90.784 Q66.176 -95.499 69.449 -98.799 Q72.723 -102.1 77.4 -102.1 Q82.077 -102.1 85.351 -98.799 Q88.624 -95.499 88.624 -90.784 V-87.783 Q102.597 -84.86 110.944 -73.271 Q119.29 -61.682 119.29 -47.317 V-0.575 H131.37 V12.199 H23.521 Z M77.446 32.369 Q71.81 32.369 67.79 28.339 Q63.771 24.308 63.771 18.649 H91.12 Q91.12 24.334 87.082 28.352 Q83.044 32.369 77.446 32.369 Z M48.375 -0.575 H106.425 V-47.317 Q106.425 -59.319 97.959 -67.83 Q89.494 -76.342 77.4 -76.342 Q65.306 -76.342 56.841 -67.83 Q48.375 -59.319 48.375 -47.317 V-0.575 Z"/></g><g id="Medium-L" transform="matrix(1 0 0 1 1674.31 1556)"><path d="M24.836 10.884 V-0.102 H37.389 V-48.158 Q37.389 -62.038 45.506 -73.114 Q53.623 -84.19 67.07 -87.047 V-90.363 Q67.07 -94.684 70.082 -97.708 Q73.096 -100.733 77.4 -100.733 Q81.704 -100.733 84.718 -97.708 Q87.73 -94.684 87.73 -90.363 V-87.047 Q101.177 -84.229 109.313 -73.14 Q117.45 -62.05 117.45 -48.158 V-0.102 H130.003 V10.884 H24.836 Z M77.419 30.581 Q71.965 30.581 68.078 26.69 Q64.192 22.798 64.192 17.334 H90.647 Q90.647 22.81 86.752 26.695 Q82.858 30.581 77.419 30.581 Z M48.375 -0.102 H106.425 V-48.158 Q106.425 -60.213 97.959 -68.698 Q89.494 -77.183 77.4 -77.183 Q65.306 -77.183 56.841 -68.698 Q48.375 -60.213 48.375 -48.158 V-0.102 Z"/></g><g id="Regular-L" transform="matrix(1 0 0 1 1378.56 1556)"><path d="M25.8 9.92 V0.245 H38.7 V-48.775 Q38.7 -62.32 46.682 -73.043 Q54.664 -83.766 67.725 -86.507 V-90.055 Q67.725 -94.086 70.547 -96.908 Q73.369 -99.73 77.4 -99.73 Q81.431 -99.73 84.253 -96.908 Q87.075 -94.086 87.075 -90.055 V-86.507 Q100.136 -83.766 108.118 -73.043 Q116.1 -62.32 116.1 -48.775 V0.245 H129 V9.92 H25.8 Z M77.4 29.27 Q72.079 29.27 68.289 25.481 Q64.5 21.691 64.5 16.37 H90.3 Q90.3 21.691 86.511 25.481 Q82.721 29.27 77.4 29.27 Z M48.375 0.245 H106.425 V-48.775 Q106.425 -60.869 97.959 -69.334 Q89.494 -77.8 77.4 -77.8 Q65.306 -77.8 56.841 -69.334 Q48.375 -60.869 48.375 -48.775 V0.245 Z"/></g><g id="Light-L" transform="matrix(1 0 0 1 1082.77 1556)"><path d="M29.025 9.176 V1.858 H40.685 V-49.085 Q40.685 -62.185 48.636 -72.448 Q56.586 -82.712 69.338 -85.174 V-88.442 Q69.338 -91.802 71.687 -94.153 Q74.036 -96.505 77.393 -96.505 Q80.749 -96.505 83.106 -94.153 Q85.462 -91.802 85.462 -88.442 V-85.143 Q98.214 -82.712 106.164 -72.448 Q114.115 -62.185 114.115 -49.085 V1.858 H125.775 V9.176 H29.025 Z M77.389 27.285 Q72.575 27.285 69.158 23.86 Q65.74 20.435 65.74 15.626 H89.06 Q89.06 20.451 85.631 23.868 Q82.203 27.285 77.389 27.285 Z M48.003 1.858 H106.797 V-49.085 Q106.797 -61.303 98.208 -69.893 Q89.618 -78.482 77.4 -78.482 Q65.182 -78.482 56.592 -69.893 Q48.003 -61.303 48.003 -49.085 V1.858 Z"/></g><g id="Thin-L" transform="matrix(1 0 0 1 787.282 1556)"><path d="M32.25 8.432 V3.47 H42.669 V-49.395 Q42.669 -62.05 50.589 -71.854 Q58.509 -81.658 70.95 -83.841 V-86.83 Q70.95 -89.518 72.827 -91.399 Q74.704 -93.28 77.385 -93.28 Q80.067 -93.28 81.958 -91.399 Q83.85 -89.518 83.85 -86.83 V-83.779 Q96.291 -81.658 104.211 -71.854 Q112.131 -62.05 112.131 -49.395 V3.47 H122.55 V8.432 H32.25 Z M77.378 25.301 Q73.071 25.301 70.026 22.24 Q66.981 19.179 66.981 14.882 H87.819 Q87.819 19.21 84.752 22.256 Q81.685 25.301 77.378 25.301 Z M47.631 3.47 H107.169 V-49.395 Q107.169 -61.737 98.456 -70.451 Q89.742 -79.164 77.4 -79.164 Q65.058 -79.164 56.344 -70.451 Q47.631 -61.737 47.631 -49.395 V3.47 Z"/></g><g id="Ultralight-L" transform="matrix(1 0 0 1 491.205 1556)"><path d="M34.185 7.985 V4.438 H43.86 V-49.581 Q43.86 -61.969 51.761 -71.497 Q59.663 -81.025 71.918 -83.041 V-85.862 Q71.918 -88.147 73.511 -89.746 Q75.105 -91.345 77.381 -91.345 Q79.657 -91.345 81.27 -89.746 Q82.883 -88.147 82.883 -85.862 V-82.96 Q95.138 -81.025 103.039 -71.497 Q110.94 -61.969 110.94 -49.581 V4.438 H120.615 V7.985 H34.185 Z M77.371 24.11 Q73.369 24.11 70.547 21.268 Q67.725 18.426 67.725 14.435 H87.075 Q87.075 18.466 84.225 21.288 Q81.374 24.11 77.371 24.11 Z M47.407 4.438 H107.392 V-49.581 Q107.392 -61.997 98.604 -70.786 Q89.816 -79.574 77.4 -79.574 Q64.984 -79.574 56.196 -70.786 Q47.407 -61.997 47.407 -49.581 V4.438 Z"/></g><g id="Bold-M" transform="matrix(1 0 0 1 2281.8 1126)"><path d="M15.75 4.02 V-11.73 H24.25 V-42.48 Q24.25 -54.48 31.188 -64.105 Q38.125 -73.73 49.625 -76.605 V-79.105 Q49.625 -83.428 52.651 -86.454 Q55.677 -89.48 60 -89.48 Q64.323 -89.48 67.349 -86.454 Q70.375 -83.428 70.375 -79.105 V-76.605 Q82 -73.73 88.875 -64.167 Q95.75 -54.605 95.75 -42.48 V-11.73 H104.25 V4.02 H15.75 Z M60.125 20.395 Q55.381 20.395 52.003 17.054 Q48.625 13.712 48.625 9.02 H71.5 Q71.5 13.77 68.159 17.083 Q64.817 20.395 60.125 20.395 Z M40 -11.73 H80 V-42.48 Q80 -50.73 74.125 -56.605 Q68.25 -62.48 60 -62.48 Q51.75 -62.48 45.875 -56.605 Q40 -50.73 40 -42.48 V-11.73 Z"/></g><g id="Semibold-M" transform="matrix(1 0 0 1 1985.97 1126)"><path d="M17.598 2.172 V-11.078 H26.75 V-43.676 Q26.75 -54.969 33.389 -63.915 Q40.027 -72.86 50.875 -75.572 V-78.507 Q50.875 -82.309 53.536 -84.971 Q56.198 -87.632 60 -87.632 Q63.802 -87.632 66.464 -84.971 Q69.125 -82.309 69.125 -78.507 V-75.572 Q80.044 -72.86 86.647 -63.95 Q93.25 -55.04 93.25 -43.676 V-11.078 H102.402 V2.172 H17.598 Z M60.071 17.95 Q55.596 17.95 52.409 14.784 Q49.223 11.618 49.223 7.172 H70.848 Q70.848 11.651 67.682 14.8 Q64.516 17.95 60.071 17.95 Z M40 -11.078 H80 V-43.676 Q80 -51.926 74.125 -57.801 Q68.25 -63.676 60 -63.676 Q51.75 -63.676 45.875 -57.801 Q40 -51.926 40 -43.676 V-11.078 Z"/></g><g id="Medium-M" transform="matrix(1 0 0 1 1689.91 1126)"><path d="M18.984 0.786 V-10.589 H28.625 V-44.572 Q28.625 -55.336 35.039 -63.772 Q41.454 -72.208 51.812 -74.798 V-78.059 Q51.812 -81.47 54.2 -83.858 Q56.589 -86.246 60 -86.246 Q63.411 -86.246 65.799 -83.858 Q68.188 -81.47 68.188 -78.059 V-74.798 Q78.576 -72.208 84.976 -63.787 Q91.375 -55.366 91.375 -44.572 V-10.589 H101.016 V0.786 H18.984 Z M60.03 16.115 Q55.757 16.115 52.714 13.081 Q49.671 10.047 49.671 5.786 H70.359 Q70.359 10.061 67.325 13.088 Q64.29 16.115 60.03 16.115 Z M40 -10.589 H80 V-44.572 Q80 -52.822 74.125 -58.697 Q68.25 -64.572 60 -64.572 Q51.75 -64.572 45.875 -58.697 Q40 -52.822 40 -44.572 V-10.589 Z"/></g><g id="Regular-M" transform="matrix(1 0 0 1 1394.06 1126)"><path d="M20 -0.23 V-10.23 H30 V-45.23 Q30 -55.605 36.25 -63.667 Q42.5 -71.73 52.5 -74.23 V-77.73 Q52.5 -80.855 54.688 -83.042 Q56.875 -85.23 60 -85.23 Q63.125 -85.23 65.312 -83.042 Q67.5 -80.855 67.5 -77.73 V-74.23 Q77.5 -71.73 83.75 -63.667 Q90 -55.605 90 -45.23 V-10.23 H100 V-0.23 H20 Z M60 14.77 Q55.875 14.77 52.938 11.833 Q50 8.895 50 4.77 H70 Q70 8.895 67.062 11.833 Q64.125 14.77 60 14.77 Z M40 -10.23 H80 V-45.23 Q80 -53.48 74.125 -59.355 Q68.25 -65.23 60 -65.23 Q51.75 -65.23 45.875 -59.355 Q40 -53.48 40 -45.23 V-10.23 Z"/></g><g id="Light-M" transform="matrix(1 0 0 1 1098.18 1126)"><path d="M22.5 -0.807 V-8.307 H31.539 V-45.615 Q31.539 -55.701 37.764 -63.451 Q43.99 -71.201 53.75 -73.364 V-76.48 Q53.75 -79.084 55.571 -80.907 Q57.393 -82.73 59.994 -82.73 Q62.596 -82.73 64.423 -80.907 Q66.25 -79.084 66.25 -76.48 V-73.364 Q76.01 -71.201 82.236 -63.451 Q88.461 -55.701 88.461 -45.615 V-8.307 H97.5 V-0.807 H22.5 Z M59.992 13.231 Q56.26 13.231 53.611 10.576 Q50.962 7.921 50.962 4.193 H69.038 Q69.038 7.933 66.381 10.582 Q63.723 13.231 59.992 13.231 Z M39.038 -8.307 H80.962 V-45.615 Q80.962 -54.297 74.822 -60.437 Q68.683 -66.576 60 -66.576 Q51.317 -66.576 45.178 -60.437 Q39.038 -54.297 39.038 -45.615 V-8.307 Z"/></g><g id="Thin-M" transform="matrix(1 0 0 1 802.565 1126)"><path d="M25 -1.384 V-6.384 H33.077 V-45.999 Q33.077 -55.797 39.279 -63.235 Q45.481 -70.672 55 -72.499 V-75.23 Q55 -77.313 56.455 -78.772 Q57.91 -80.23 59.989 -80.23 Q62.067 -80.23 63.534 -78.772 Q65 -77.313 65 -75.23 V-72.499 Q74.519 -70.672 80.721 -63.235 Q86.923 -55.797 86.923 -45.999 V-6.384 H95 V-1.384 H25 Z M59.983 11.693 Q56.644 11.693 54.284 9.321 Q51.923 6.948 51.923 3.616 H68.077 Q68.077 6.972 65.699 9.333 Q63.322 11.693 59.983 11.693 Z M38.077 -6.384 H81.923 V-45.999 Q81.923 -55.115 75.519 -61.518 Q69.115 -67.922 60 -67.922 Q50.885 -67.922 44.481 -61.518 Q38.077 -55.115 38.077 -45.999 V-6.384 Z"/></g><g id="Ultralight-M" transform="matrix(1 0 0 1 506.415 1126)"><path d="M26.5 -1.73 V-5.23 H34 V-46.23 Q34 -55.855 40.188 -63.105 Q46.375 -70.355 55.75 -71.98 V-74.48 Q55.75 -76.251 56.985 -77.49 Q58.221 -78.73 59.985 -78.73 Q61.75 -78.73 63 -77.49 Q64.25 -76.251 64.25 -74.48 V-71.98 Q73.625 -70.355 79.812 -63.105 Q86 -55.855 86 -46.23 V-5.23 H93.5 V-1.73 H26.5 Z M59.978 10.77 Q56.875 10.77 54.688 8.567 Q52.5 6.364 52.5 3.27 H67.5 Q67.5 6.395 65.29 8.583 Q63.081 10.77 59.978 10.77 Z M37.5 -5.23 H82.5 V-46.23 Q82.5 -55.605 75.938 -62.167 Q69.375 -68.73 60 -68.73 Q50.625 -68.73 44.062 -62.167 Q37.5 -55.605 37.5 -46.23 V-5.23 Z"/></g><g id="Bold-S" transform="matrix(1 0 0 1 2294.23 696)"><path d="M15.583 -5.84 V-17.477 H19.133 V-37.794 Q19.133 -47.657 24.952 -55.399 Q30.771 -63.141 40.338 -65.015 V-69.453 Q40.338 -72.37 42.38 -74.413 Q44.422 -76.455 47.34 -76.455 Q50.258 -76.455 52.3 -74.413 Q54.342 -72.37 54.342 -69.453 V-65.015 Q64.008 -63.141 69.777 -55.448 Q75.547 -47.755 75.547 -37.794 V-17.477 H79.097 V-5.84 H15.583 Z M47.418 7.08 Q43.992 7.08 41.573 4.676 Q39.154 2.271 39.154 -1.106 H55.625 Q55.625 2.346 53.214 4.713 Q50.803 7.08 47.418 7.08 Z M30.771 -17.477 H63.909 V-37.794 Q63.909 -44.698 59.076 -49.531 Q54.244 -54.363 47.34 -54.363 Q40.436 -54.363 35.604 -49.531 Q30.771 -44.698 30.771 -37.794 V-17.477 Z"/></g><g id="Semibold-S" transform="matrix(1 0 0 1 1998.1 696)"><path d="M17.041 -7.298 V-16.963 H21.106 V-38.738 Q21.106 -48.043 26.689 -55.249 Q32.272 -62.455 41.324 -64.2 V-68.981 Q41.324 -71.488 43.079 -73.243 Q44.833 -74.997 47.34 -74.997 Q49.847 -74.997 51.601 -73.243 Q53.356 -71.488 53.356 -68.981 V-64.2 Q62.464 -62.455 68.019 -55.277 Q73.574 -48.098 73.574 -38.738 V-16.963 H77.639 V-7.298 H17.041 Z M47.375 5.151 Q44.161 5.151 41.893 2.885 Q39.626 0.619 39.626 -2.564 H55.11 Q55.11 0.674 52.838 2.912 Q50.566 5.151 47.375 5.151 Z M30.771 -16.963 H63.909 V-38.738 Q63.909 -45.641 59.076 -50.474 Q54.244 -55.307 47.34 -55.307 Q40.436 -55.307 35.604 -50.474 Q30.771 -45.641 30.771 -38.738 V-16.963 Z"/></g><g id="Medium-S" transform="matrix(1 0 0 1 1701.85 696)"><path d="M18.134 -8.391 V-16.577 H22.585 V-39.445 Q22.585 -48.332 27.991 -55.136 Q33.397 -61.94 42.064 -63.589 V-68.627 Q42.064 -70.826 43.603 -72.365 Q45.141 -73.904 47.34 -73.904 Q49.539 -73.904 51.077 -72.365 Q52.616 -70.826 52.616 -68.627 V-63.589 Q61.306 -61.94 66.701 -55.148 Q72.095 -48.356 72.095 -39.445 V-16.577 H76.546 V-8.391 H18.134 Z M47.343 3.703 Q44.288 3.703 42.134 1.541 Q39.98 -0.621 39.98 -3.657 H54.724 Q54.724 -0.58 52.556 1.561 Q50.387 3.703 47.343 3.703 Z M30.771 -16.577 H63.909 V-39.445 Q63.909 -46.349 59.076 -51.182 Q54.244 -56.014 47.34 -56.014 Q40.436 -56.014 35.604 -51.182 Q30.771 -46.349 30.771 -39.445 V-16.577 Z"/></g><g id="Regular-S" transform="matrix(1 0 0 1 1405.73 696)"><path d="M18.936 -9.193 V-16.294 H23.67 V-39.964 Q23.67 -48.544 28.946 -55.054 Q34.223 -61.563 42.606 -63.141 V-68.368 Q42.606 -70.34 43.987 -71.721 Q45.367 -73.102 47.34 -73.102 Q49.312 -73.102 50.693 -71.721 Q52.074 -70.34 52.074 -68.368 V-63.141 Q60.457 -61.563 65.734 -55.054 Q71.01 -48.544 71.01 -39.964 V-16.294 H75.744 V-9.193 H18.936 Z M47.319 2.642 Q44.381 2.642 42.31 0.556 Q40.239 -1.53 40.239 -4.459 H54.441 Q54.441 -1.5 52.349 0.571 Q50.257 2.642 47.319 2.642 Z M30.771 -16.294 H63.909 V-39.964 Q63.909 -46.868 59.076 -51.7 Q54.244 -56.533 47.34 -56.533 Q40.436 -56.533 35.604 -51.7 Q30.771 -46.868 30.771 -39.964 V-16.294 Z"/></g><g id="Light-S" transform="matrix(1 0 0 1 1109.75 696)"><path d="M20.909 -9.648 V-14.777 H24.884 V-40.267 Q24.884 -48.62 30.141 -54.883 Q35.399 -61.146 43.592 -62.458 V-67.382 Q43.592 -68.943 44.684 -70.036 Q45.776 -71.129 47.336 -71.129 Q48.895 -71.129 49.991 -70.036 Q51.088 -68.943 51.088 -67.382 V-62.458 Q59.281 -61.146 64.539 -54.883 Q69.796 -48.62 69.796 -40.267 V-14.777 H73.771 V-9.648 H20.909 Z M47.312 1.428 Q44.685 1.428 42.841 -0.435 Q40.998 -2.298 40.998 -4.914 H53.682 Q53.682 -2.259 51.811 -0.415 Q49.94 1.428 47.312 1.428 Z M30.012 -14.777 H64.668 V-40.267 Q64.668 -47.513 59.626 -52.554 Q54.585 -57.595 47.34 -57.595 Q40.095 -57.595 35.054 -52.554 Q30.012 -47.513 30.012 -40.267 V-14.777 Z"/></g><g id="Thin-S" transform="matrix(1 0 0 1 814.015 696)"><path d="M22.881 -10.103 V-13.259 H26.098 V-40.571 Q26.098 -48.696 31.336 -54.712 Q36.575 -60.728 44.579 -61.775 V-66.395 Q44.579 -67.546 45.381 -68.352 Q46.184 -69.157 47.331 -69.157 Q48.478 -69.157 49.29 -68.352 Q50.102 -67.546 50.102 -66.395 V-61.775 Q58.105 -60.728 63.344 -54.712 Q68.582 -48.696 68.582 -40.571 V-13.259 H71.799 V-10.103 H22.881 Z M47.306 0.214 Q44.988 0.214 43.372 -1.426 Q41.756 -3.066 41.756 -5.369 H52.924 Q52.924 -3.018 51.273 -1.402 Q49.623 0.214 47.306 0.214 Z M29.254 -13.259 H65.426 V-40.571 Q65.426 -48.157 60.176 -53.407 Q54.927 -58.657 47.34 -58.657 Q39.753 -58.657 34.504 -53.407 Q29.254 -48.157 29.254 -40.571 V-13.259 Z"/></g><g id="Ultralight-S" transform="matrix(1 0 0 1 517.792 696)"><path d="M24.065 -10.376 V-12.349 H26.826 V-40.753 Q26.826 -48.742 32.053 -54.61 Q37.28 -60.478 45.17 -61.366 V-65.804 Q45.17 -66.708 45.8 -67.341 Q46.429 -67.973 47.328 -67.973 Q48.228 -67.973 48.869 -67.341 Q49.51 -66.708 49.51 -65.804 V-61.366 Q57.4 -60.478 62.627 -54.61 Q67.854 -48.742 67.854 -40.753 V-12.349 H70.615 V-10.376 H24.065 Z M47.302 -0.514 Q45.17 -0.514 43.691 -2.02 Q42.212 -3.527 42.212 -5.642 H52.468 Q52.468 -3.473 50.951 -1.993 Q49.433 -0.514 47.302 -0.514 Z M28.799 -12.349 H65.882 V-40.753 Q65.882 -48.544 60.506 -53.919 Q55.131 -59.294 47.34 -59.294 Q39.549 -59.294 34.174 -53.919 Q28.799 -48.544 28.799 -40.753 V-12.349 Z"/></g></g></svg>