<svg xmlns="http://www.w3.org/2000/svg" version="1.1" width="3300" height="2000"><g id="Notes"><style>
    text {
      font-family: monospace;
      text-anchor: middle;
    }
    text.emphasis {
      font-weight:bold;
    }
    text.lanchor {
      text-anchor: start;
    }
  </style><rect height="2200" id="artboard" fill="white" width="3300" x="0" y="0"/><line id="" style="fill:none;stroke:black;stroke-width:0.5;" x1="263" x2="3036" y1="292" y2="292"/><text class="lanchor emphasis" transform="matrix(1 0 0 1 263 322)">Weight/Scale Variations</text><text transform="matrix(1 0 0 1 559.711 322)">Ultralight</text><text transform="matrix(1 0 0 1 856.422 322)">Thin</text><text transform="matrix(1 0 0 1 1153.13 322)">Light</text><text transform="matrix(1 0 0 1 1449.84 322)">Regular</text><text transform="matrix(1 0 0 1 1746.56 322)">Medium</text><text transform="matrix(1 0 0 1 2043.27 322)">Semibold</text><text transform="matrix(1 0 0 1 2339.98 322)">Bold</text><text transform="matrix(1 0 0 1 2636.69 322)">Heavy</text><text transform="matrix(1 0 0 1 2933.4 322)">Black</text><text id="template-version" style="text-anchor: end;" transform="matrix(1 0 0 1 3036 1933)">Template v.1.0</text><text class="lanchor" transform="matrix(1 0 0 1 263 726)">Small</text><text class="lanchor" transform="matrix(1 0 0 1 263 1156)">Medium</text><text class="lanchor" transform="matrix(1 0 0 1 263 1586)">Large</text></g><g id="Guides"><g id="H-reference" style="fill:#27AAE1;stroke:none;" transform="matrix(1 0 0 1 339 696)"><path d="M 54.9316 0 L 57.666 0 L 30.5664 -70.459 L 28.0762 -70.459 L 0.976562 0 L 3.66211 0 L 12.9395 -24.4629 L 45.7031 -24.4629 Z M 29.1992 -67.0898 L 29.4434 -67.0898 L 44.8242 -26.709 L 13.8184 -26.709 Z"/></g><line id="Baseline-S" style="fill:none;stroke:#27AAE1;opacity:1;stroke-width:0.577;" x1="263" x2="3036" y1="696" y2="696"/><line id="Capline-S" style="fill:none;stroke:#27AAE1;opacity:1;stroke-width:0.577;" x1="263" x2="3036" y1="625.541" y2="625.541"/><g id="H-reference" style="fill:#27AAE1;stroke:none;" transform="matrix(1 0 0 1 339 1126)"><path d="M 54.9316 0 L 57.666 0 L 30.5664 -70.459 L 28.0762 -70.459 L 0.976562 0 L 3.66211 0 L 12.9395 -24.4629 L 45.7031 -24.4629 Z M 29.1992 -67.0898 L 29.4434 -67.0898 L 44.8242 -26.709 L 13.8184 -26.709 Z"/></g><line id="Baseline-M" style="fill:none;stroke:#27AAE1;opacity:1;stroke-width:0.577;" x1="263" x2="3036" y1="1126" y2="1126"/><line id="Capline-M" style="fill:none;stroke:#27AAE1;opacity:1;stroke-width:0.577;" x1="263" x2="3036" y1="1055.54" y2="1055.54"/><g id="H-reference" style="fill:#27AAE1;stroke:none;" transform="matrix(1 0 0 1 339 1556)"><path d="M 54.9316 0 L 57.666 0 L 30.5664 -70.459 L 28.0762 -70.459 L 0.976562 0 L 3.66211 0 L 12.9395 -24.4629 L 45.7031 -24.4629 Z M 29.1992 -67.0898 L 29.4434 -67.0898 L 44.8242 -26.709 L 13.8184 -26.709 Z"/></g><line id="Baseline-L" style="fill:none;stroke:#27AAE1;opacity:1;stroke-width:0.577;" x1="263" x2="3036" y1="1556" y2="1556"/><line id="Capline-L" style="fill:none;stroke:#27AAE1;opacity:1;stroke-width:0.577;" x1="263" x2="3036" y1="1485.54" y2="1485.54"/><rect height="119.336" id="left-margin" style="fill:darkred;stroke:none;opacity:0.4;" width="12.4512" x="1394.06" y="1030.79"/><rect height="119.336" id="right-margin" style="fill:darkgreen;stroke:none;opacity:0.4;" width="12.4512" x="1502.5112" y="1030.79"/><rect x="1406.5112" y="1045" width="96" height="96" fill="none" stroke="blue" stroke-dasharray="5"/><rect x="1394.06" y="1030.79" width="120.9024" height="119.336" fill="none" stroke="blue"/></g><g id="Symbols"><g id="Bold-L" transform="matrix(1 0 0 1 2266 1556)"><path d="M77.36 1.051 Q81.27 1.051 83.769 -1.328 Q86.269 -3.707 86.269 -7.617 Q86.269 -11.526 83.809 -14.106 Q81.349 -16.686 77.44 -16.686 Q73.53 -16.686 71.031 -14.109 Q68.531 -11.532 68.531 -7.622 Q68.531 -3.713 70.991 -1.331 Q73.451 1.051 77.36 1.051 Z M70.305 -27.49 H85.463 V-71.027 H70.305 V-27.49 Z M77.465 33.301 Q63.135 33.301 50.677 27.966 Q38.22 22.632 28.879 13.291 Q19.538 3.95 14.204 -8.497 Q8.869 -20.944 8.869 -35.288 Q8.869 -49.633 14.204 -62.102 Q19.538 -74.571 28.854 -83.84 Q38.17 -93.109 50.628 -98.516 Q63.087 -103.922 77.445 -103.922 Q91.803 -103.922 104.291 -98.528 Q116.779 -93.134 126.036 -83.886 Q135.293 -74.639 140.693 -62.137 Q146.093 -49.636 146.093 -35.273 Q146.093 -20.92 140.686 -8.466 Q135.279 3.989 126.01 13.281 Q116.741 22.572 104.268 27.937 Q91.796 33.301 77.465 33.301 Z M77.481 18.144 Q99.653 18.144 115.213 2.604 Q130.774 -12.936 130.774 -35.311 Q130.774 -57.482 115.243 -73.043 Q99.713 -88.604 77.319 -88.604 Q55.148 -88.604 39.587 -73.073 Q24.026 -57.543 24.026 -35.149 Q24.026 -12.977 39.566 2.583 Q55.106 18.144 77.481 18.144 Z"/></g><g id="Semibold-L" transform="matrix(1 0 0 1 1970.27 1556)"><path d="M77.376 -0.701 Q80.569 -0.701 82.648 -2.711 Q84.726 -4.721 84.726 -7.913 Q84.726 -11.106 82.671 -13.23 Q80.616 -15.354 77.424 -15.354 Q74.231 -15.354 72.152 -13.233 Q70.074 -11.111 70.074 -7.919 Q70.074 -4.726 72.129 -2.714 Q74.184 -0.701 77.376 -0.701 Z M71.497 -27.56 H84.271 V-69.906 H71.497 V-27.56 Z M77.455 31.549 Q63.555 31.549 51.413 26.325 Q39.27 21.101 30.169 12.001 Q21.069 2.9 15.845 -9.242 Q10.621 -21.384 10.621 -35.298 Q10.621 -49.212 15.845 -61.367 Q21.069 -73.521 30.155 -82.546 Q39.241 -91.571 51.39 -96.835 Q63.539 -102.1 77.46 -102.1 Q91.382 -102.1 103.547 -96.842 Q115.713 -91.585 124.731 -82.572 Q133.749 -73.559 139.009 -61.376 Q144.27 -49.192 144.27 -35.273 Q144.27 -21.36 139.005 -9.219 Q133.741 2.922 124.716 11.982 Q115.691 21.042 103.523 26.295 Q91.356 31.549 77.455 31.549 Z M77.481 18.775 Q99.933 18.775 115.669 3.015 Q131.405 -12.744 131.405 -35.311 Q131.405 -57.763 115.699 -73.499 Q99.993 -89.235 77.354 -89.235 Q54.937 -89.235 39.166 -73.529 Q23.395 -57.823 23.395 -35.184 Q23.395 -12.767 39.155 3.004 Q54.914 18.775 77.481 18.775 Z"/></g><g id="Medium-L" transform="matrix(1 0 0 1 1674.31 1556)"><path d="M77.388 -2.016 Q80.043 -2.016 81.806 -3.748 Q83.57 -5.481 83.57 -8.135 Q83.57 -10.79 81.818 -12.573 Q80.066 -14.355 77.412 -14.355 Q74.757 -14.355 72.994 -12.576 Q71.23 -10.796 71.23 -8.141 Q71.23 -5.486 72.982 -3.751 Q74.734 -2.016 77.388 -2.016 Z M72.391 -27.613 H83.377 V-69.064 H72.391 V-27.613 Z M77.448 30.234 Q63.871 30.234 51.964 25.094 Q40.058 19.953 31.137 11.033 Q22.217 2.112 17.076 -9.801 Q11.936 -21.714 11.936 -35.305 Q11.936 -48.897 17.076 -60.815 Q22.217 -72.734 31.131 -81.576 Q40.045 -90.417 51.962 -95.575 Q63.878 -100.733 77.472 -100.733 Q91.067 -100.733 102.99 -95.578 Q114.913 -90.423 123.752 -81.586 Q132.591 -72.75 137.747 -60.804 Q142.903 -48.858 142.903 -35.273 Q142.903 -21.69 137.745 -9.784 Q132.587 2.122 123.746 11.008 Q114.904 19.894 102.965 25.064 Q91.026 30.234 77.448 30.234 Z M77.481 19.248 Q100.143 19.248 116.011 3.324 Q131.878 -12.6 131.878 -35.311 Q131.878 -57.973 116.041 -73.841 Q100.204 -89.708 77.381 -89.708 Q54.779 -89.708 38.851 -73.871 Q22.922 -58.034 22.922 -35.211 Q22.922 -12.609 38.846 3.319 Q54.77 19.248 77.481 19.248 Z"/></g><g id="Regular-L" transform="matrix(1 0 0 1 1378.56 1556)"><path d="M77.397 -2.98 Q79.657 -2.98 81.189 -4.509 Q82.721 -6.038 82.721 -8.298 Q82.721 -10.559 81.192 -12.091 Q79.663 -13.622 77.403 -13.622 Q75.142 -13.622 73.611 -12.094 Q72.079 -10.564 72.079 -8.304 Q72.079 -6.044 73.608 -4.512 Q75.137 -2.98 77.397 -2.98 Z M73.046 -27.651 H82.721 V-68.447 H73.046 V-27.651 Z M77.443 29.27 Q64.102 29.27 52.369 24.191 Q40.635 19.111 31.847 10.323 Q23.059 1.535 17.979 -10.211 Q12.9 -21.956 12.9 -35.311 Q12.9 -48.665 17.979 -60.411 Q23.059 -72.156 31.847 -80.864 Q40.635 -89.571 52.381 -94.651 Q64.126 -99.73 77.481 -99.73 Q90.835 -99.73 102.581 -94.651 Q114.326 -89.571 123.034 -80.864 Q131.741 -72.156 136.821 -60.385 Q141.9 -48.614 141.9 -35.273 Q141.9 -21.932 136.821 -10.199 Q131.741 1.535 123.034 10.293 Q114.326 19.052 102.555 24.161 Q90.784 29.27 77.443 29.27 Z M77.481 19.595 Q100.297 19.595 116.261 3.551 Q132.225 -12.494 132.225 -35.311 Q132.225 -58.127 116.292 -74.091 Q100.358 -90.055 77.4 -90.055 Q54.664 -90.055 38.619 -74.122 Q22.575 -58.188 22.575 -35.23 Q22.575 -12.494 38.619 3.551 Q54.664 19.595 77.481 19.595 Z"/></g><g id="Light-L" transform="matrix(1 0 0 1 1082.77 1556)"><path d="M77.397 -4.717 Q79.316 -4.717 80.554 -5.951 Q81.791 -7.186 81.791 -9.105 Q81.791 -11.024 80.556 -12.261 Q79.322 -13.498 77.403 -13.498 Q75.484 -13.498 74.246 -12.264 Q73.009 -11.03 73.009 -9.11 Q73.009 -7.191 74.244 -5.954 Q75.478 -4.717 77.397 -4.717 Z M74.101 -27.465 H81.419 V-67.703 H74.101 V-27.465 Z M77.454 26.045 Q64.722 26.045 53.605 21.22 Q42.488 16.396 34.134 8.045 Q25.779 -0.307 20.952 -11.431 Q16.125 -22.555 16.125 -35.3 Q16.125 -47.983 20.95 -59.143 Q25.774 -70.303 34.125 -78.577 Q42.477 -86.851 53.601 -91.678 Q64.725 -96.505 77.47 -96.505 Q90.153 -96.505 101.313 -91.68 Q112.473 -86.856 120.747 -78.585 Q129.021 -70.314 133.848 -59.134 Q138.675 -47.953 138.675 -35.284 Q138.675 -22.552 133.85 -11.435 Q129.026 -0.318 120.755 8.007 Q112.484 16.332 101.304 21.188 Q90.123 26.045 77.454 26.045 Z M77.481 18.727 Q99.925 18.727 115.641 2.961 Q131.357 -12.804 131.357 -35.311 Q131.357 -57.755 115.671 -73.471 Q99.986 -89.187 77.4 -89.187 Q54.974 -89.187 39.209 -73.501 Q23.443 -57.816 23.443 -35.23 Q23.443 -12.804 39.209 2.961 Q54.974 18.727 77.481 18.727 Z"/></g><g id="Thin-L" transform="matrix(1 0 0 1 787.282 1556)"><path d="M77.397 -6.453 Q78.975 -6.453 79.918 -7.393 Q80.861 -8.333 80.861 -9.911 Q80.861 -11.489 79.921 -12.432 Q78.981 -13.374 77.403 -13.374 Q75.825 -13.374 74.882 -12.435 Q73.939 -11.495 73.939 -9.916 Q73.939 -8.338 74.879 -7.396 Q75.819 -6.453 77.397 -6.453 Z M75.155 -27.279 H80.116 V-66.959 H75.155 V-27.279 Z M77.465 22.82 Q65.342 22.82 54.842 18.25 Q44.342 13.681 36.42 5.766 Q28.498 -2.148 23.924 -12.651 Q19.35 -23.153 19.35 -35.289 Q19.35 -47.301 23.92 -57.875 Q28.489 -68.45 36.404 -76.291 Q44.318 -84.132 54.821 -88.706 Q65.323 -93.28 77.459 -93.28 Q89.471 -93.28 100.045 -88.71 Q110.62 -84.141 118.461 -76.307 Q126.302 -68.473 130.876 -57.883 Q135.45 -47.292 135.45 -35.294 Q135.45 -23.172 130.88 -12.672 Q126.311 -2.172 118.477 5.72 Q110.643 13.613 100.053 18.216 Q89.462 22.82 77.465 22.82 Z M77.481 17.858 Q99.553 17.858 115.021 2.372 Q130.488 -13.114 130.488 -35.311 Q130.488 -57.383 115.051 -72.851 Q99.614 -88.318 77.4 -88.318 Q55.284 -88.318 39.798 -72.881 Q24.312 -57.444 24.312 -35.23 Q24.312 -13.114 39.798 2.372 Q55.284 17.858 77.481 17.858 Z"/></g><g id="Ultralight-L" transform="matrix(1 0 0 1 491.205 1556)"><path d="M77.397 -7.495 Q78.771 -7.495 79.537 -8.258 Q80.303 -9.021 80.303 -10.395 Q80.303 -11.768 79.539 -12.534 Q78.776 -13.3 77.403 -13.3 Q76.029 -13.3 75.263 -12.537 Q74.498 -11.774 74.498 -10.4 Q74.498 -9.027 75.261 -8.261 Q76.024 -7.495 77.397 -7.495 Z M75.788 -27.167 H79.335 V-66.512 H75.788 V-27.167 Z M77.471 20.885 Q65.715 20.885 55.584 16.468 Q45.454 12.051 37.792 4.399 Q30.13 -3.253 25.707 -13.383 Q21.285 -23.512 21.285 -35.283 Q21.285 -46.891 25.702 -57.115 Q30.119 -67.338 37.771 -74.919 Q45.423 -82.5 55.553 -86.923 Q65.682 -91.345 77.453 -91.345 Q89.061 -91.345 99.285 -86.928 Q109.508 -82.511 117.089 -74.94 Q124.67 -67.368 129.093 -57.132 Q133.515 -46.896 133.515 -35.301 Q133.515 -23.545 129.098 -13.414 Q124.681 -3.284 117.11 4.348 Q109.538 11.981 99.302 16.433 Q89.066 20.885 77.471 20.885 Z M77.481 17.338 Q99.33 17.338 114.649 2.019 Q129.968 -13.3 129.968 -35.311 Q129.968 -57.16 114.679 -72.479 Q99.39 -87.797 77.4 -87.797 Q55.47 -87.797 40.151 -72.509 Q24.832 -57.22 24.832 -35.23 Q24.832 -13.3 40.151 2.019 Q55.47 17.338 77.481 17.338 Z"/></g><g id="Bold-M" transform="matrix(1 0 0 1 2281.8 1126)"><path d="M59.971 -5.98 Q63.625 -5.98 66.125 -8.451 Q68.625 -10.923 68.625 -14.576 Q68.625 -18.23 66.153 -20.792 Q63.682 -23.355 60.029 -23.355 Q56.375 -23.355 53.875 -20.792 Q51.375 -18.23 51.375 -14.576 Q51.375 -10.923 53.846 -8.451 Q56.318 -5.98 59.971 -5.98 Z M52.125 -29.98 H67.875 V-62.855 H52.125 V-29.98 Z M60 19.02 Q48.625 19.02 38.752 14.76 Q28.878 10.499 21.575 3.196 Q14.271 -4.108 10.011 -13.982 Q5.75 -23.855 5.75 -35.23 Q5.75 -46.605 10.011 -56.478 Q14.271 -66.352 21.575 -73.655 Q28.878 -80.959 38.752 -85.219 Q48.625 -89.48 60 -89.48 Q71.375 -89.48 81.248 -85.219 Q91.122 -80.959 98.425 -73.655 Q105.729 -66.352 109.99 -56.478 Q114.25 -46.605 114.25 -35.23 Q114.25 -23.855 109.99 -13.982 Q105.729 -4.108 98.425 3.196 Q91.122 10.499 81.248 14.76 Q71.375 19.02 60 19.02 Z M60 3.27 Q76.25 3.27 87.375 -7.855 Q98.5 -18.98 98.5 -35.23 Q98.5 -51.48 87.375 -62.605 Q76.25 -73.73 60 -73.73 Q43.75 -73.73 32.625 -62.605 Q21.5 -51.48 21.5 -35.23 Q21.5 -18.98 32.625 -7.855 Q43.75 3.27 60 3.27 Z"/></g><g id="Semibold-M" transform="matrix(1 0 0 1 1985.97 1126)"><path d="M59.984 -7.828 Q62.973 -7.828 65.011 -9.85 Q67.049 -11.872 67.049 -14.861 Q67.049 -17.85 65.027 -19.923 Q63.005 -21.996 60.016 -21.996 Q57.027 -21.996 54.989 -19.923 Q52.951 -17.85 52.951 -14.861 Q52.951 -11.872 54.973 -9.85 Q56.995 -7.828 59.984 -7.828 Z M53.375 -30.089 H66.625 V-61.714 H53.375 V-30.089 Z M60 17.172 Q49.06 17.172 39.512 13.052 Q29.964 8.932 22.901 1.869 Q15.838 -5.194 11.718 -14.742 Q7.598 -24.29 7.598 -35.23 Q7.598 -46.17 11.718 -55.718 Q15.838 -65.266 22.901 -72.329 Q29.964 -79.392 39.512 -83.512 Q49.06 -87.632 60 -87.632 Q70.94 -87.632 80.488 -83.512 Q90.036 -79.392 97.099 -72.329 Q104.162 -65.266 108.282 -55.718 Q112.402 -46.17 112.402 -35.23 Q112.402 -24.29 108.282 -14.742 Q104.162 -5.194 97.099 1.869 Q90.036 8.932 80.488 13.052 Q70.94 17.172 60 17.172 Z M60 3.922 Q76.467 3.922 87.81 -7.42 Q99.152 -18.763 99.152 -35.23 Q99.152 -51.697 87.81 -63.04 Q76.467 -74.382 60 -74.382 Q43.533 -74.382 32.19 -63.04 Q20.848 -51.697 20.848 -35.23 Q20.848 -18.763 32.19 -7.42 Q43.533 3.922 60 3.922 Z"/></g><g id="Medium-M" transform="matrix(1 0 0 1 1689.91 1126)"><path d="M59.993 -9.214 Q62.484 -9.214 64.175 -10.898 Q65.867 -12.583 65.867 -15.074 Q65.867 -17.564 64.182 -19.271 Q62.497 -20.977 60.007 -20.977 Q57.516 -20.977 55.825 -19.271 Q54.133 -17.564 54.133 -15.074 Q54.133 -12.583 55.818 -10.898 Q57.503 -9.214 59.993 -9.214 Z M54.312 -30.17 H65.688 V-60.858 H54.312 V-30.17 Z M60 15.786 Q49.386 15.786 40.082 11.772 Q30.778 7.757 23.895 0.875 Q17.013 -6.008 12.998 -15.312 Q8.984 -24.616 8.984 -35.23 Q8.984 -45.844 12.998 -55.148 Q17.013 -64.452 23.895 -71.334 Q30.778 -78.217 40.082 -82.232 Q49.386 -86.246 60 -86.246 Q70.614 -86.246 79.918 -82.232 Q89.222 -78.217 96.105 -71.334 Q102.987 -64.452 107.002 -55.148 Q111.016 -45.844 111.016 -35.23 Q111.016 -24.616 107.002 -15.312 Q102.987 -6.008 96.105 0.875 Q89.222 7.757 79.918 11.772 Q70.614 15.786 60 15.786 Z M60 4.411 Q76.63 4.411 88.136 -7.094 Q99.641 -18.6 99.641 -35.23 Q99.641 -51.86 88.136 -63.366 Q76.63 -74.871 60 -74.871 Q43.37 -74.871 31.864 -63.366 Q20.359 -51.86 20.359 -35.23 Q20.359 -18.6 31.864 -7.094 Q43.37 4.411 60 4.411 Z"/></g><g id="Regular-M" transform="matrix(1 0 0 1 1394.06 1126)"><path d="M60 -10.23 Q62.125 -10.23 63.562 -11.667 Q65 -13.105 65 -15.23 Q65 -17.355 63.562 -18.792 Q62.125 -20.23 60 -20.23 Q57.875 -20.23 56.438 -18.792 Q55 -17.355 55 -15.23 Q55 -13.105 56.438 -11.667 Q57.875 -10.23 60 -10.23 Z M55 -30.23 H65 V-60.23 H55 V-30.23 Z M60 14.77 Q49.625 14.77 40.5 10.833 Q31.375 6.895 24.625 0.145 Q17.875 -6.605 13.938 -15.73 Q10 -24.855 10 -35.23 Q10 -45.605 13.938 -54.73 Q17.875 -63.855 24.625 -70.605 Q31.375 -77.355 40.5 -81.292 Q49.625 -85.23 60 -85.23 Q70.375 -85.23 79.5 -81.292 Q88.625 -77.355 95.375 -70.605 Q102.125 -63.855 106.062 -54.73 Q110 -45.605 110 -35.23 Q110 -24.855 106.062 -15.73 Q102.125 -6.605 95.375 0.145 Q88.625 6.895 79.5 10.833 Q70.375 14.77 60 14.77 Z M60 4.77 Q76.75 4.77 88.375 -6.855 Q100 -18.48 100 -35.23 Q100 -51.98 88.375 -63.605 Q76.75 -75.23 60 -75.23 Q43.25 -75.23 31.625 -63.605 Q20 -51.98 20 -35.23 Q20 -18.48 31.625 -6.855 Q43.25 4.77 60 4.77 Z"/></g><g id="Light-M" transform="matrix(1 0 0 1 1098.18 1126)"><path d="M60 -11.576 Q61.716 -11.576 62.877 -12.737 Q64.038 -13.898 64.038 -15.615 Q64.038 -17.331 62.877 -18.492 Q61.716 -19.653 60 -19.653 Q58.284 -19.653 57.123 -18.492 Q55.962 -17.331 55.962 -15.615 Q55.962 -13.898 57.123 -12.737 Q58.284 -11.576 60 -11.576 Z M56.25 -29.845 H63.75 V-59.845 H56.25 V-29.845 Z M60.008 12.27 Q50.154 12.27 41.483 8.53 Q32.812 4.79 26.398 -1.621 Q19.983 -8.033 16.242 -16.7 Q12.5 -25.367 12.5 -35.222 Q12.5 -45.076 16.24 -53.747 Q19.98 -62.418 26.391 -68.832 Q32.803 -75.247 41.47 -78.988 Q50.137 -82.73 59.992 -82.73 Q69.846 -82.73 78.517 -78.99 Q87.188 -75.25 93.602 -68.839 Q100.017 -62.427 103.758 -53.76 Q107.5 -45.093 107.5 -35.238 Q107.5 -25.384 103.76 -16.713 Q100.02 -8.042 93.609 -1.628 Q87.197 4.787 78.53 8.528 Q69.863 12.27 60.008 12.27 Z M60 4.77 Q76.75 4.77 88.375 -6.855 Q100 -18.48 100 -35.23 Q100 -51.98 88.375 -63.605 Q76.75 -75.23 60 -75.23 Q43.25 -75.23 31.625 -63.605 Q20 -51.98 20 -35.23 Q20 -18.48 31.625 -6.855 Q43.25 4.77 60 4.77 Z"/></g><g id="Thin-M" transform="matrix(1 0 0 1 802.565 1126)"><path d="M60 -12.922 Q61.308 -12.922 62.192 -13.807 Q63.077 -14.691 63.077 -15.999 Q63.077 -17.307 62.192 -18.191 Q61.308 -19.076 60 -19.076 Q58.692 -19.076 57.808 -18.191 Q56.923 -17.307 56.923 -15.999 Q56.923 -14.691 57.808 -13.807 Q58.692 -12.922 60 -12.922 Z M57.5 -29.461 H62.5 V-59.461 H57.5 V-29.461 Z M60.017 9.77 Q50.683 9.77 42.465 6.228 Q34.248 2.685 28.17 -3.388 Q22.091 -9.46 18.546 -17.67 Q15 -25.879 15 -35.213 Q15 -44.547 18.542 -52.764 Q22.085 -60.982 28.158 -67.06 Q34.23 -73.138 42.44 -76.684 Q50.649 -80.23 59.983 -80.23 Q69.317 -80.23 77.534 -76.688 Q85.752 -73.145 91.83 -67.072 Q97.909 -61 101.454 -52.79 Q105 -44.581 105 -35.247 Q105 -25.913 101.458 -17.695 Q97.915 -9.478 91.842 -3.4 Q85.77 2.679 77.56 6.224 Q69.351 9.77 60.017 9.77 Z M60 4.77 Q76.75 4.77 88.375 -6.855 Q100 -18.48 100 -35.23 Q100 -51.98 88.375 -63.605 Q76.75 -75.23 60 -75.23 Q43.25 -75.23 31.625 -63.605 Q20 -51.98 20 -35.23 Q20 -18.48 31.625 -6.855 Q43.25 4.77 60 4.77 Z"/></g><g id="Ultralight-M" transform="matrix(1 0 0 1 506.415 1126)"><path d="M60 -13.73 Q61.062 -13.73 61.781 -14.449 Q62.5 -15.167 62.5 -16.23 Q62.5 -17.292 61.781 -18.011 Q61.062 -18.73 60 -18.73 Q58.938 -18.73 58.219 -18.011 Q57.5 -17.292 57.5 -16.23 Q57.5 -15.167 58.219 -14.449 Q58.938 -13.73 60 -13.73 Z M58.25 -29.23 H61.75 V-59.23 H58.25 V-29.23 Z M60.022 8.27 Q51 8.27 43.055 4.846 Q35.11 1.422 29.233 -4.447 Q23.357 -10.317 19.928 -18.252 Q16.5 -26.186 16.5 -35.208 Q16.5 -44.23 19.924 -52.175 Q23.348 -60.12 29.217 -65.996 Q35.087 -71.873 43.022 -75.302 Q50.956 -78.73 59.978 -78.73 Q69 -78.73 76.945 -75.306 Q84.89 -71.882 90.766 -66.013 Q96.644 -60.143 100.072 -52.208 Q103.5 -44.273 103.5 -35.252 Q103.5 -26.23 100.076 -18.285 Q96.652 -10.34 90.783 -4.463 Q84.913 1.414 76.978 4.842 Q69.043 8.27 60.022 8.27 Z M60 4.77 Q76.75 4.77 88.375 -6.855 Q100 -18.48 100 -35.23 Q100 -51.98 88.375 -63.605 Q76.75 -75.23 60 -75.23 Q43.25 -75.23 31.625 -63.605 Q20 -51.98 20 -35.23 Q20 -18.48 31.625 -6.855 Q43.25 4.77 60 4.77 Z"/></g><g id="Bold-S" transform="matrix(1 0 0 1 2294.23 696)"><path d="M47.297 -12.941 Q50.003 -12.941 51.877 -14.771 Q53.751 -16.602 53.751 -19.308 Q53.751 -22.014 51.92 -23.937 Q50.089 -25.861 47.383 -25.861 Q44.677 -25.861 42.803 -23.958 Q40.929 -22.056 40.929 -19.35 Q40.929 -16.644 42.76 -14.792 Q44.591 -12.941 47.297 -12.941 Z M41.521 -30.299 H53.159 V-56.237 H41.521 V-30.299 Z M47.367 5.995 Q38.76 5.995 31.265 2.782 Q23.771 -0.432 18.156 -6.046 Q12.542 -11.661 9.328 -19.151 Q6.115 -26.641 6.115 -35.275 Q6.115 -43.909 9.328 -51.354 Q12.542 -58.799 18.156 -64.414 Q23.771 -70.028 31.261 -73.242 Q38.751 -76.455 47.385 -76.455 Q56.019 -76.455 63.464 -73.242 Q70.909 -70.028 76.524 -64.414 Q82.138 -58.799 85.352 -51.332 Q88.565 -43.865 88.565 -35.257 Q88.565 -26.65 85.352 -19.155 Q82.138 -11.661 76.524 -6.046 Q70.909 -0.432 63.442 2.782 Q55.975 5.995 47.367 5.995 Z M47.34 -5.642 Q59.767 -5.642 68.347 -14.223 Q76.928 -22.803 76.928 -35.23 Q76.928 -47.657 68.347 -56.237 Q59.767 -64.817 47.34 -64.817 Q34.913 -64.817 26.333 -56.237 Q17.753 -47.657 17.753 -35.23 Q17.753 -22.803 26.333 -14.223 Q34.913 -5.642 47.34 -5.642 Z"/></g><g id="Semibold-S" transform="matrix(1 0 0 1 1998.1 696)"><path d="M47.307 -14.399 Q49.488 -14.399 50.998 -15.875 Q52.507 -17.35 52.507 -19.532 Q52.507 -21.714 51.031 -23.251 Q49.555 -24.789 47.373 -24.789 Q45.192 -24.789 43.682 -23.272 Q42.173 -21.756 42.173 -19.574 Q42.173 -17.392 43.649 -15.895 Q45.125 -14.399 47.307 -14.399 Z M42.507 -30.385 H52.173 V-55.337 H42.507 V-30.385 Z M47.367 4.537 Q39.103 4.537 31.865 1.435 Q24.628 -1.668 19.203 -7.093 Q13.778 -12.518 10.675 -19.751 Q7.573 -26.984 7.573 -35.275 Q7.573 -43.566 10.675 -50.754 Q13.778 -57.942 19.203 -63.367 Q24.628 -68.792 31.861 -71.895 Q39.094 -74.997 47.385 -74.997 Q55.676 -74.997 62.864 -71.895 Q70.052 -68.792 75.477 -63.367 Q80.902 -57.942 84.005 -50.732 Q87.107 -43.522 87.107 -35.257 Q87.107 -26.993 84.005 -19.755 Q80.902 -12.518 75.477 -7.093 Q70.052 -1.668 62.842 1.435 Q55.632 4.537 47.367 4.537 Z M47.34 -5.128 Q59.938 -5.128 68.69 -13.88 Q77.442 -22.632 77.442 -35.23 Q77.442 -47.828 68.69 -56.58 Q59.938 -65.332 47.34 -65.332 Q34.742 -65.332 25.99 -56.58 Q17.238 -47.828 17.238 -35.23 Q17.238 -22.632 25.99 -13.88 Q34.742 -5.128 47.34 -5.128 Z"/></g><g id="Medium-S" transform="matrix(1 0 0 1 1701.85 696)"><path d="M47.314 -15.492 Q49.102 -15.492 50.338 -16.702 Q51.574 -17.912 51.574 -19.7 Q51.574 -21.489 50.365 -22.737 Q49.155 -23.985 47.366 -23.985 Q45.578 -23.985 44.342 -22.758 Q43.106 -21.53 43.106 -19.742 Q43.106 -17.953 44.315 -16.723 Q45.525 -15.492 47.314 -15.492 Z M43.247 -30.449 H51.433 V-54.661 H43.247 V-30.449 Z M47.367 3.444 Q39.36 3.444 32.315 0.424 Q25.27 -2.595 19.988 -7.878 Q14.705 -13.16 11.686 -20.201 Q8.666 -27.242 8.666 -35.275 Q8.666 -43.309 11.686 -50.304 Q14.705 -57.3 19.988 -62.582 Q25.27 -67.865 32.311 -70.884 Q39.352 -73.904 47.385 -73.904 Q55.419 -73.904 62.414 -70.884 Q69.41 -67.865 74.692 -62.582 Q79.975 -57.3 82.994 -50.282 Q86.014 -43.264 86.014 -35.257 Q86.014 -27.25 82.994 -20.205 Q79.975 -13.16 74.692 -7.878 Q69.41 -2.595 62.392 0.424 Q55.374 3.444 47.367 3.444 Z M47.34 -4.742 Q60.067 -4.742 68.947 -13.623 Q77.828 -22.503 77.828 -35.23 Q77.828 -47.957 68.947 -56.837 Q60.067 -65.718 47.34 -65.718 Q34.613 -65.718 25.733 -56.837 Q16.852 -47.957 16.852 -35.23 Q16.852 -22.503 25.733 -13.623 Q34.613 -4.742 47.34 -4.742 Z"/></g><g id="Regular-S" transform="matrix(1 0 0 1 1405.73 696)"><path d="M47.319 -16.294 Q48.819 -16.294 49.855 -17.309 Q50.891 -18.324 50.891 -19.824 Q50.891 -21.324 49.876 -22.359 Q48.861 -23.395 47.361 -23.395 Q45.861 -23.395 44.825 -22.38 Q43.79 -21.365 43.79 -19.865 Q43.79 -18.365 44.804 -17.33 Q45.819 -16.294 47.319 -16.294 Z M43.79 -30.496 H50.891 V-54.166 H43.79 V-30.496 Z M47.367 2.642 Q39.549 2.642 32.645 -0.317 Q25.741 -3.275 20.563 -8.453 Q15.386 -13.631 12.427 -20.531 Q9.468 -27.43 9.468 -35.275 Q9.468 -43.12 12.427 -49.974 Q15.386 -56.829 20.563 -62.007 Q25.741 -67.184 32.641 -70.143 Q39.54 -73.102 47.385 -73.102 Q55.23 -73.102 62.084 -70.143 Q68.939 -67.184 74.117 -62.007 Q79.294 -56.829 82.253 -49.952 Q85.212 -43.076 85.212 -35.257 Q85.212 -27.439 82.253 -20.535 Q79.294 -13.631 74.117 -8.453 Q68.939 -3.275 62.062 -0.317 Q55.186 2.642 47.367 2.642 Z M47.34 -4.459 Q60.161 -4.459 69.136 -13.434 Q78.111 -22.409 78.111 -35.23 Q78.111 -48.051 69.136 -57.026 Q60.161 -66.001 47.34 -66.001 Q34.519 -66.001 25.544 -57.026 Q16.569 -48.051 16.569 -35.23 Q16.569 -22.409 25.544 -13.434 Q34.519 -4.459 47.34 -4.459 Z"/></g><g id="Light-S" transform="matrix(1 0 0 1 1109.75 696)"><path d="M47.319 -17.356 Q48.497 -17.356 49.314 -18.153 Q50.132 -18.95 50.132 -20.127 Q50.132 -21.305 49.335 -22.122 Q48.538 -22.94 47.361 -22.94 Q46.183 -22.94 45.366 -22.143 Q44.548 -21.346 44.548 -20.169 Q44.548 -18.991 45.345 -18.174 Q46.142 -17.356 47.319 -17.356 Z M44.776 -30.193 H49.904 V-53.863 H44.776 V-30.193 Z M47.374 0.669 Q39.966 0.669 33.42 -2.134 Q26.875 -4.936 21.962 -9.847 Q17.049 -14.758 14.245 -21.296 Q11.441 -27.835 11.441 -35.269 Q11.441 -42.703 14.244 -49.199 Q17.046 -55.695 21.957 -60.608 Q26.868 -65.521 33.406 -68.325 Q39.945 -71.129 47.379 -71.129 Q54.813 -71.129 61.309 -68.326 Q67.805 -65.524 72.718 -60.613 Q77.631 -55.702 80.435 -49.187 Q83.239 -42.672 83.239 -35.264 Q83.239 -27.856 80.436 -21.31 Q77.634 -14.765 72.723 -9.852 Q67.812 -4.939 61.297 -2.135 Q54.782 0.669 47.374 0.669 Z M47.34 -4.459 Q60.161 -4.459 69.136 -13.434 Q78.111 -22.409 78.111 -35.23 Q78.111 -48.051 69.136 -57.026 Q60.161 -66.001 47.34 -66.001 Q34.519 -66.001 25.544 -57.026 Q16.569 -48.051 16.569 -35.23 Q16.569 -22.409 25.544 -13.434 Q34.519 -4.459 47.34 -4.459 Z"/></g><g id="Thin-S" transform="matrix(1 0 0 1 814.015 696)"><path d="M47.319 -18.418 Q48.175 -18.418 48.774 -18.997 Q49.373 -19.575 49.373 -20.431 Q49.373 -21.286 48.795 -21.885 Q48.216 -22.485 47.361 -22.485 Q46.505 -22.485 45.906 -21.906 Q45.307 -21.327 45.307 -20.472 Q45.307 -19.617 45.885 -19.018 Q46.464 -18.418 47.319 -18.418 Z M45.762 -29.889 H48.918 V-53.559 H45.762 V-29.889 Z M47.38 -1.303 Q40.383 -1.303 34.196 -3.95 Q28.008 -6.597 23.36 -11.241 Q18.712 -15.884 16.063 -22.061 Q13.413 -28.239 13.413 -35.262 Q13.413 -42.286 16.06 -48.424 Q18.707 -54.562 23.351 -59.21 Q27.994 -63.858 34.171 -66.507 Q40.349 -69.157 47.372 -69.157 Q54.396 -69.157 60.534 -66.51 Q66.672 -63.863 71.32 -59.219 Q75.968 -54.576 78.617 -48.422 Q81.267 -42.268 81.267 -35.27 Q81.267 -28.273 78.62 -22.086 Q75.973 -15.898 71.329 -11.25 Q66.686 -6.602 60.532 -3.953 Q54.378 -1.303 47.38 -1.303 Z M47.34 -4.459 Q60.161 -4.459 69.136 -13.434 Q78.111 -22.409 78.111 -35.23 Q78.111 -48.051 69.136 -57.026 Q60.161 -66.001 47.34 -66.001 Q34.519 -66.001 25.544 -57.026 Q16.569 -48.051 16.569 -35.23 Q16.569 -22.409 25.544 -13.434 Q34.519 -4.459 47.34 -4.459 Z"/></g><g id="Ultralight-S" transform="matrix(1 0 0 1 517.792 696)"><path d="M47.319 -19.055 Q47.981 -19.055 48.45 -19.503 Q48.918 -19.951 48.918 -20.613 Q48.918 -21.275 48.47 -21.743 Q48.023 -22.211 47.361 -22.211 Q46.699 -22.211 46.23 -21.764 Q45.762 -21.316 45.762 -20.654 Q45.762 -19.992 46.21 -19.524 Q46.657 -19.055 47.319 -19.055 Z M46.354 -29.707 H48.326 V-53.377 H46.354 V-29.707 Z M47.384 -2.486 Q40.634 -2.486 34.661 -5.04 Q28.688 -7.594 24.199 -12.077 Q19.71 -16.56 17.153 -22.52 Q14.597 -28.481 14.597 -35.258 Q14.597 -42.035 17.15 -47.958 Q19.704 -53.882 24.187 -58.371 Q28.67 -62.86 34.63 -65.417 Q40.591 -67.973 47.368 -67.973 Q54.145 -67.973 60.068 -65.42 Q65.992 -62.866 70.481 -58.383 Q74.97 -53.9 77.527 -47.963 Q80.084 -42.025 80.084 -35.274 Q80.084 -28.523 77.53 -22.551 Q74.976 -16.578 70.493 -12.089 Q66.01 -7.6 60.073 -5.043 Q54.135 -2.486 47.384 -2.486 Z M47.34 -4.459 Q60.161 -4.459 69.136 -13.434 Q78.111 -22.409 78.111 -35.23 Q78.111 -48.051 69.136 -57.026 Q60.161 -66.001 47.34 -66.001 Q34.519 -66.001 25.544 -57.026 Q16.569 -48.051 16.569 -35.23 Q16.569 -22.409 25.544 -13.434 Q34.519 -4.459 47.34 -4.459 Z"/></g></g></svg>