<svg xmlns="http://www.w3.org/2000/svg" version="1.1" width="3300" height="2000"><g id="Notes"><style>
    text {
      font-family: monospace;
      text-anchor: middle;
    }
    text.emphasis {
      font-weight:bold;
    }
    text.lanchor {
      text-anchor: start;
    }
  </style><rect height="2200" id="artboard" fill="white" width="3300" x="0" y="0"/><line id="" style="fill:none;stroke:black;stroke-width:0.5;" x1="263" x2="3036" y1="292" y2="292"/><text class="lanchor emphasis" transform="matrix(1 0 0 1 263 322)">Weight/Scale Variations</text><text transform="matrix(1 0 0 1 559.711 322)">Ultralight</text><text transform="matrix(1 0 0 1 856.422 322)">Thin</text><text transform="matrix(1 0 0 1 1153.13 322)">Light</text><text transform="matrix(1 0 0 1 1449.84 322)">Regular</text><text transform="matrix(1 0 0 1 1746.56 322)">Medium</text><text transform="matrix(1 0 0 1 2043.27 322)">Semibold</text><text transform="matrix(1 0 0 1 2339.98 322)">Bold</text><text transform="matrix(1 0 0 1 2636.69 322)">Heavy</text><text transform="matrix(1 0 0 1 2933.4 322)">Black</text><text id="template-version" style="text-anchor: end;" transform="matrix(1 0 0 1 3036 1933)">Template v.1.0</text><text class="lanchor" transform="matrix(1 0 0 1 263 726)">Small</text><text class="lanchor" transform="matrix(1 0 0 1 263 1156)">Medium</text><text class="lanchor" transform="matrix(1 0 0 1 263 1586)">Large</text></g><g id="Guides"><g id="H-reference" style="fill:#27AAE1;stroke:none;" transform="matrix(1 0 0 1 339 696)"><path d="M 54.9316 0 L 57.666 0 L 30.5664 -70.459 L 28.0762 -70.459 L 0.976562 0 L 3.66211 0 L 12.9395 -24.4629 L 45.7031 -24.4629 Z M 29.1992 -67.0898 L 29.4434 -67.0898 L 44.8242 -26.709 L 13.8184 -26.709 Z"/></g><line id="Baseline-S" style="fill:none;stroke:#27AAE1;opacity:1;stroke-width:0.577;" x1="263" x2="3036" y1="696" y2="696"/><line id="Capline-S" style="fill:none;stroke:#27AAE1;opacity:1;stroke-width:0.577;" x1="263" x2="3036" y1="625.541" y2="625.541"/><g id="H-reference" style="fill:#27AAE1;stroke:none;" transform="matrix(1 0 0 1 339 1126)"><path d="M 54.9316 0 L 57.666 0 L 30.5664 -70.459 L 28.0762 -70.459 L 0.976562 0 L 3.66211 0 L 12.9395 -24.4629 L 45.7031 -24.4629 Z M 29.1992 -67.0898 L 29.4434 -67.0898 L 44.8242 -26.709 L 13.8184 -26.709 Z"/></g><line id="Baseline-M" style="fill:none;stroke:#27AAE1;opacity:1;stroke-width:0.577;" x1="263" x2="3036" y1="1126" y2="1126"/><line id="Capline-M" style="fill:none;stroke:#27AAE1;opacity:1;stroke-width:0.577;" x1="263" x2="3036" y1="1055.54" y2="1055.54"/><g id="H-reference" style="fill:#27AAE1;stroke:none;" transform="matrix(1 0 0 1 339 1556)"><path d="M 54.9316 0 L 57.666 0 L 30.5664 -70.459 L 28.0762 -70.459 L 0.976562 0 L 3.66211 0 L 12.9395 -24.4629 L 45.7031 -24.4629 Z M 29.1992 -67.0898 L 29.4434 -67.0898 L 44.8242 -26.709 L 13.8184 -26.709 Z"/></g><line id="Baseline-L" style="fill:none;stroke:#27AAE1;opacity:1;stroke-width:0.577;" x1="263" x2="3036" y1="1556" y2="1556"/><line id="Capline-L" style="fill:none;stroke:#27AAE1;opacity:1;stroke-width:0.577;" x1="263" x2="3036" y1="1485.54" y2="1485.54"/><rect height="119.336" id="left-margin" style="fill:darkred;stroke:none;opacity:0.4;" width="12.4512" x="1394.06" y="1030.79"/><rect height="119.336" id="right-margin" style="fill:darkgreen;stroke:none;opacity:0.4;" width="12.4512" x="1502.5112" y="1030.79"/><rect x="1406.5112" y="1045" width="96" height="96" fill="none" stroke="blue" stroke-dasharray="5"/><rect x="1394.06" y="1030.79" width="120.9024" height="119.336" fill="none" stroke="blue"/></g><g id="Symbols"><g id="Bold-L" transform="matrix(1 0 0 1 2266 1556)"><path d="M113.198 29.754 H37.249 V-57.321 L80.303 -101.987 L88.688 -95.86 Q90.784 -94.247 91.751 -92.071 Q92.719 -89.894 92.719 -86.991 V-86.83 L85.785 -57.321 H136.095 Q142.061 -57.321 146.738 -52.645 Q151.414 -47.969 151.414 -42.164 V-36.197 Q151.414 -34.101 150.849 -31.441 Q150.285 -28.78 149.479 -27.006 L130.129 18.305 Q128.194 23.143 123.356 26.448 Q118.519 29.754 113.198 29.754 Z M27.574 -57.321 V29.754 H7.418 V-57.321 H27.574 Z"/></g><g id="Semibold-L" transform="matrix(1 0 0 1 1970.27 1556)"><path d="M114.529 26.739 H38.861 V-58.373 L82.686 -103.81 L89.739 -98.524 Q91.695 -97.052 92.487 -95.12 Q93.28 -93.189 93.28 -90.637 V-89.844 L86.206 -58.373 H137.217 Q142.202 -58.373 146.142 -54.433 Q150.082 -50.492 150.082 -45.599 V-36.478 Q150.082 -34.522 149.587 -32.001 Q149.093 -29.481 148.287 -27.707 L129.217 16.693 Q127.493 20.899 123.321 23.819 Q119.15 26.739 114.529 26.739 Z M29.186 -58.373 V26.739 H9.801 V-58.373 H29.186 Z"/></g><g id="Medium-L" transform="matrix(1 0 0 1 1674.31 1556)"><path d="M115.529 24.478 H40.071 V-59.162 L84.474 -105.177 L90.528 -100.522 Q92.379 -99.155 93.039 -97.408 Q93.7 -95.66 93.7 -93.371 V-92.106 L86.521 -59.162 H138.058 Q142.307 -59.162 145.695 -55.774 Q149.083 -52.386 149.083 -48.175 V-36.688 Q149.083 -34.837 148.641 -32.422 Q148.199 -30.007 147.393 -28.233 L128.534 15.483 Q126.967 19.216 123.295 21.847 Q119.623 24.478 115.529 24.478 Z M30.396 -59.162 V24.478 H11.589 V-59.162 H30.396 Z"/></g><g id="Regular-L" transform="matrix(1 0 0 1 1378.56 1556)"><path d="M116.261 22.82 H40.958 V-59.74 L85.785 -106.18 L91.106 -101.987 Q92.88 -100.697 93.444 -99.085 Q94.009 -97.472 94.009 -95.376 V-93.764 L86.752 -59.74 H138.675 Q142.384 -59.74 145.367 -56.757 Q148.35 -53.774 148.35 -50.065 V-36.842 Q148.35 -35.069 147.947 -32.731 Q147.544 -30.392 146.738 -28.619 L128.032 14.596 Q126.581 17.983 123.276 20.401 Q119.97 22.82 116.261 22.82 Z M31.283 -59.74 V22.82 H12.9 V-59.74 H31.283 Z"/></g><g id="Light-L" transform="matrix(1 0 0 1 1082.77 1556)"><path d="M114.463 19.595 H42.694 V-56.887 L85.289 -100.35 L88.749 -97.708 Q90.213 -96.542 90.746 -95.146 Q91.28 -93.751 91.28 -92.089 V-90.911 L84.334 -56.887 H135.822 Q139.407 -56.887 142.266 -54.028 Q145.125 -51.169 145.125 -47.584 V-36.905 Q145.125 -35.379 144.784 -33.444 Q144.443 -31.509 143.822 -30.107 L125.8 11.867 Q124.41 15.067 121.198 17.331 Q117.985 19.595 114.463 19.595 Z M35.376 -56.887 V19.595 H16.125 V-56.887 H35.376 Z"/></g><g id="Thin-L" transform="matrix(1 0 0 1 787.282 1556)"><path d="M112.664 16.37 H44.431 V-54.034 L84.793 -94.52 L86.393 -93.429 Q87.546 -92.387 88.049 -91.209 Q88.551 -90.03 88.551 -88.802 V-88.058 L81.915 -54.034 H132.969 Q136.43 -54.034 139.165 -51.299 Q141.9 -48.564 141.9 -45.103 V-36.967 Q141.9 -35.689 141.621 -34.157 Q141.342 -32.625 140.908 -31.596 L123.567 9.139 Q122.24 12.153 119.12 14.261 Q116.001 16.37 112.664 16.37 Z M39.469 -54.034 V16.37 H19.35 V-54.034 H39.469 Z"/></g><g id="Ultralight-L" transform="matrix(1 0 0 1 491.205 1556)"><path d="M111.585 14.435 H45.473 V-52.322 L84.495 -91.022 L84.979 -90.861 Q85.946 -89.894 86.43 -88.846 Q86.914 -87.797 86.914 -86.83 V-86.346 L80.464 -52.322 H131.257 Q134.644 -52.322 137.304 -49.662 Q139.965 -47.001 139.965 -43.615 V-37.004 Q139.965 -35.875 139.723 -34.585 Q139.481 -33.295 139.159 -32.489 L122.228 7.501 Q120.938 10.404 117.874 12.419 Q114.81 14.435 111.585 14.435 Z M41.925 -52.322 V14.435 H21.285 V-52.322 H41.925 Z"/></g><g id="Bold-M" transform="matrix(1 0 0 1 2281.8 1126)"><path d="M86.875 17.02 H36.125 V-52.73 L69.25 -85.855 L78.75 -77.605 Q80.125 -76.48 81 -74.355 Q81.875 -72.23 81.875 -70.105 V-69.73 L76.75 -52.73 H102.375 Q108.5 -52.73 113.312 -47.917 Q118.125 -43.105 118.125 -36.98 V-34.605 Q118.125 -33.48 117.875 -32.105 Q117.625 -30.73 117.125 -29.73 L101.375 7.645 Q99.75 11.645 95.562 14.333 Q91.375 17.02 86.875 17.02 Z M26.125 -52.73 V17.02 H4.25 V-52.73 H26.125 Z"/></g><g id="Semibold-M" transform="matrix(1 0 0 1 1985.97 1126)"><path d="M88.234 13.868 H37.81 V-53.817 L71.75 -87.757 L79.837 -80.376 Q80.995 -79.36 81.734 -77.507 Q82.473 -75.654 82.473 -73.855 V-72.882 L77.185 -53.817 H103.516 Q108.717 -53.817 112.742 -49.792 Q116.766 -45.768 116.766 -40.567 V-34.877 Q116.766 -33.86 116.544 -32.648 Q116.321 -31.436 115.875 -30.491 L100.451 5.96 Q99.043 9.308 95.535 11.588 Q92.027 13.868 88.234 13.868 Z M27.81 -53.817 V13.868 H6.75 V-53.817 H27.81 Z"/></g><g id="Medium-M" transform="matrix(1 0 0 1 1689.91 1126)"><path d="M89.253 11.504 H39.073 V-54.632 L73.625 -89.184 L80.652 -82.455 Q81.647 -81.521 82.284 -79.871 Q82.921 -78.222 82.921 -76.667 V-75.246 L77.511 -54.632 H104.372 Q108.88 -54.632 112.314 -51.199 Q115.747 -47.765 115.747 -43.257 V-35.08 Q115.747 -34.146 115.545 -33.056 Q115.342 -31.966 114.938 -31.061 L99.758 4.697 Q98.514 7.555 95.515 9.53 Q92.516 11.504 89.253 11.504 Z M29.073 -54.632 V11.504 H8.625 V-54.632 H29.073 Z"/></g><g id="Regular-M" transform="matrix(1 0 0 1 1394.06 1126)"><path d="M90 9.77 H40 V-55.23 L75 -90.23 L81.25 -83.98 Q82.125 -83.105 82.688 -81.605 Q83.25 -80.105 83.25 -78.73 V-76.98 L77.75 -55.23 H105 Q109 -55.23 112 -52.23 Q115 -49.23 115 -45.23 V-35.23 Q115 -34.355 114.812 -33.355 Q114.625 -32.355 114.25 -31.48 L99.25 3.77 Q98.125 6.27 95.5 8.02 Q92.875 9.77 90 9.77 Z M30 -55.23 V9.77 H10 V-55.23 H30 Z"/></g><g id="Light-M" transform="matrix(1 0 0 1 1098.18 1126)"><path d="M88.654 7.27 H39.135 V-52.73 L72.308 -85.71 L76.538 -81.48 Q77.317 -80.701 77.831 -79.417 Q78.346 -78.134 78.346 -76.999 V-75.73 L73.038 -52.73 H103.461 Q107.029 -52.73 109.764 -49.994 Q112.5 -47.259 112.5 -43.691 V-35.615 Q112.5 -34.836 112.336 -33.932 Q112.173 -33.028 111.846 -32.249 L97.519 1.558 Q96.442 3.962 93.913 5.616 Q91.385 7.27 88.654 7.27 Z M31.635 -52.73 V7.27 H12.5 V-52.73 H31.635 Z"/></g><g id="Thin-M" transform="matrix(1 0 0 1 802.565 1126)"><path d="M87.308 4.77 H38.269 V-50.23 L69.615 -81.192 L71.827 -78.98 Q72.51 -78.297 72.976 -77.23 Q73.442 -76.163 73.442 -75.268 V-74.48 L68.327 -50.23 H101.923 Q105.058 -50.23 107.529 -47.759 Q110 -45.288 110 -42.153 V-35.999 Q110 -35.316 109.861 -34.509 Q109.721 -33.701 109.442 -33.018 L95.788 -0.653 Q94.76 1.655 92.327 3.212 Q89.894 4.77 87.308 4.77 Z M33.269 -50.23 V4.77 H15 V-50.23 H33.269 Z"/></g><g id="Ultralight-M" transform="matrix(1 0 0 1 506.415 1126)"><path d="M86.5 3.27 H37.75 V-48.73 L68 -78.48 L69 -77.48 Q69.625 -76.855 70.062 -75.917 Q70.5 -74.98 70.5 -74.23 V-73.73 L65.5 -48.73 H101 Q103.875 -48.73 106.188 -46.417 Q108.5 -44.105 108.5 -41.23 V-36.23 Q108.5 -35.605 108.375 -34.855 Q108.25 -34.105 108 -33.48 L94.75 -1.98 Q93.75 0.27 91.375 1.77 Q89 3.27 86.5 3.27 Z M34.25 -48.73 V3.27 H16.5 V-48.73 H34.25 Z"/></g><g id="Bold-S" transform="matrix(1 0 0 1 2294.23 696)"><path d="M68.544 3.628 H22.98 V-47.459 L49.904 -74.384 L55.625 -70.636 Q57.794 -69.157 58.879 -66.691 Q59.964 -64.226 59.471 -61.563 V-62.648 L56.019 -47.459 H80.774 Q85.409 -47.459 88.91 -43.958 Q92.412 -40.457 92.412 -35.822 V-36.216 Q92.412 -35.23 92.214 -34.293 Q92.017 -33.356 91.623 -32.567 L79.294 -3.374 Q78.012 -0.218 75.004 1.705 Q71.996 3.628 68.544 3.628 Z M15.879 -47.459 V3.628 H0.197 V-47.459 H15.879 Z"/></g><g id="Semibold-S" transform="matrix(1 0 0 1 1998.1 696)"><path d="M69.616 1.141 H24.309 V-48.317 L51.877 -75.885 L56.482 -72.823 Q58.48 -71.43 59.458 -69.178 Q60.436 -66.927 59.942 -64.521 V-65.135 L56.362 -48.317 H81.674 Q85.581 -48.317 88.46 -45.438 Q91.34 -42.558 91.34 -38.652 V-36.431 Q91.34 -35.53 91.164 -34.722 Q90.988 -33.914 90.636 -33.167 L78.566 -4.703 Q77.455 -2.062 74.983 -0.46 Q72.511 1.141 69.616 1.141 Z M17.208 -48.317 V1.141 H2.17 V-48.317 H17.208 Z"/></g><g id="Medium-S" transform="matrix(1 0 0 1 1701.85 696)"><path d="M70.42 -0.724 H25.306 V-48.96 L53.356 -77.011 L57.125 -74.463 Q58.995 -73.134 59.892 -71.044 Q60.789 -68.953 60.296 -66.741 V-67 L56.619 -48.96 H82.35 Q85.709 -48.96 88.123 -46.547 Q90.536 -44.134 90.536 -40.774 V-36.591 Q90.536 -35.755 90.376 -35.044 Q90.216 -34.332 89.897 -33.618 L78.019 -5.7 Q77.037 -3.445 74.967 -2.085 Q72.897 -0.724 70.42 -0.724 Z M18.205 -48.96 V-0.724 H3.649 V-48.96 H18.205 Z"/></g><g id="Regular-S" transform="matrix(1 0 0 1 1405.73 696)"><path d="M71.01 -2.092 H26.037 V-49.432 L54.441 -77.836 L57.597 -75.666 Q59.372 -74.384 60.211 -72.412 Q61.049 -70.439 60.556 -68.368 L56.808 -49.432 H82.845 Q85.804 -49.432 87.875 -47.361 Q89.946 -45.29 89.946 -42.331 V-36.709 Q89.946 -35.92 89.798 -35.279 Q89.65 -34.638 89.354 -33.948 L77.618 -6.431 Q76.73 -4.459 74.955 -3.275 Q73.18 -2.092 71.01 -2.092 Z M18.936 -49.432 V-2.092 H4.734 V-49.432 H18.936 Z"/></g><g id="Light-S" transform="matrix(1 0 0 1 1109.75 696)"><path d="M69.948 -4.065 H25.354 V-47.459 L52.317 -74.27 L53.879 -73.694 Q55.579 -72.487 56.379 -70.686 Q57.179 -68.884 56.686 -67.002 V-67.382 L53.09 -47.459 H81.631 Q84.248 -47.459 86.111 -45.597 Q87.973 -43.734 87.973 -41.117 V-37.013 Q87.973 -36.3 87.844 -35.735 Q87.715 -35.169 87.457 -34.555 L76.252 -8.177 Q75.402 -6.28 73.703 -5.172 Q72.004 -4.065 69.948 -4.065 Z M20.226 -47.459 V-4.065 H6.707 V-47.459 H20.226 Z"/></g><g id="Thin-S" transform="matrix(1 0 0 1 814.015 696)"><path d="M68.886 -6.037 H24.671 V-45.487 L50.193 -70.705 L50.162 -71.721 Q51.786 -70.591 52.548 -68.96 Q53.311 -67.329 52.818 -65.637 V-66.395 L49.373 -45.487 H80.417 Q82.693 -45.487 84.347 -43.833 Q86.001 -42.179 86.001 -39.903 V-37.316 Q86.001 -36.679 85.891 -36.19 Q85.781 -35.7 85.561 -35.162 L74.887 -9.921 Q74.075 -8.101 72.452 -7.069 Q70.828 -6.037 68.886 -6.037 Z M21.515 -45.487 V-6.037 H8.679 V-45.487 H21.515 Z"/></g><g id="Ultralight-S" transform="matrix(1 0 0 1 517.792 696)"><path d="M68.249 -7.22 H24.262 V-44.303 L48.918 -68.565 L47.932 -70.538 Q49.51 -69.453 50.249 -67.924 Q50.989 -66.395 50.496 -64.817 V-65.804 L47.143 -44.303 H79.689 Q81.76 -44.303 83.289 -42.775 Q84.818 -41.246 84.818 -39.175 V-37.498 Q84.818 -36.907 84.719 -36.463 Q84.62 -36.019 84.423 -35.526 L74.067 -10.968 Q73.278 -9.193 71.7 -8.207 Q70.122 -7.22 68.249 -7.22 Z M22.289 -44.303 V-7.22 H9.863 V-44.303 H22.289 Z"/></g></g></svg>