<svg xmlns="http://www.w3.org/2000/svg" version="1.1" width="3300" height="2000"><g id="Notes"><style>
    text {
      font-family: monospace;
      text-anchor: middle;
    }
    text.emphasis {
      font-weight:bold;
    }
    text.lanchor {
      text-anchor: start;
    }
  </style><rect height="2200" id="artboard" fill="white" width="3300" x="0" y="0"/><line id="" style="fill:none;stroke:black;stroke-width:0.5;" x1="263" x2="3036" y1="292" y2="292"/><text class="lanchor emphasis" transform="matrix(1 0 0 1 263 322)">Weight/Scale Variations</text><text transform="matrix(1 0 0 1 559.711 322)">Ultralight</text><text transform="matrix(1 0 0 1 856.422 322)">Thin</text><text transform="matrix(1 0 0 1 1153.13 322)">Light</text><text transform="matrix(1 0 0 1 1449.84 322)">Regular</text><text transform="matrix(1 0 0 1 1746.56 322)">Medium</text><text transform="matrix(1 0 0 1 2043.27 322)">Semibold</text><text transform="matrix(1 0 0 1 2339.98 322)">Bold</text><text transform="matrix(1 0 0 1 2636.69 322)">Heavy</text><text transform="matrix(1 0 0 1 2933.4 322)">Black</text><text id="template-version" style="text-anchor: end;" transform="matrix(1 0 0 1 3036 1933)">Template v.1.0</text><text class="lanchor" transform="matrix(1 0 0 1 263 726)">Small</text><text class="lanchor" transform="matrix(1 0 0 1 263 1156)">Medium</text><text class="lanchor" transform="matrix(1 0 0 1 263 1586)">Large</text></g><g id="Guides"><g id="H-reference" style="fill:#27AAE1;stroke:none;" transform="matrix(1 0 0 1 339 696)"><path d="M 54.9316 0 L 57.666 0 L 30.5664 -70.459 L 28.0762 -70.459 L 0.976562 0 L 3.66211 0 L 12.9395 -24.4629 L 45.7031 -24.4629 Z M 29.1992 -67.0898 L 29.4434 -67.0898 L 44.8242 -26.709 L 13.8184 -26.709 Z"/></g><line id="Baseline-S" style="fill:none;stroke:#27AAE1;opacity:1;stroke-width:0.577;" x1="263" x2="3036" y1="696" y2="696"/><line id="Capline-S" style="fill:none;stroke:#27AAE1;opacity:1;stroke-width:0.577;" x1="263" x2="3036" y1="625.541" y2="625.541"/><g id="H-reference" style="fill:#27AAE1;stroke:none;" transform="matrix(1 0 0 1 339 1126)"><path d="M 54.9316 0 L 57.666 0 L 30.5664 -70.459 L 28.0762 -70.459 L 0.976562 0 L 3.66211 0 L 12.9395 -24.4629 L 45.7031 -24.4629 Z M 29.1992 -67.0898 L 29.4434 -67.0898 L 44.8242 -26.709 L 13.8184 -26.709 Z"/></g><line id="Baseline-M" style="fill:none;stroke:#27AAE1;opacity:1;stroke-width:0.577;" x1="263" x2="3036" y1="1126" y2="1126"/><line id="Capline-M" style="fill:none;stroke:#27AAE1;opacity:1;stroke-width:0.577;" x1="263" x2="3036" y1="1055.54" y2="1055.54"/><g id="H-reference" style="fill:#27AAE1;stroke:none;" transform="matrix(1 0 0 1 339 1556)"><path d="M 54.9316 0 L 57.666 0 L 30.5664 -70.459 L 28.0762 -70.459 L 0.976562 0 L 3.66211 0 L 12.9395 -24.4629 L 45.7031 -24.4629 Z M 29.1992 -67.0898 L 29.4434 -67.0898 L 44.8242 -26.709 L 13.8184 -26.709 Z"/></g><line id="Baseline-L" style="fill:none;stroke:#27AAE1;opacity:1;stroke-width:0.577;" x1="263" x2="3036" y1="1556" y2="1556"/><line id="Capline-L" style="fill:none;stroke:#27AAE1;opacity:1;stroke-width:0.577;" x1="263" x2="3036" y1="1485.54" y2="1485.54"/><rect height="119.336" id="left-margin" style="fill:darkred;stroke:none;opacity:0.4;" width="12.4512" x="1394.06" y="1030.79"/><rect height="119.336" id="right-margin" style="fill:darkgreen;stroke:none;opacity:0.4;" width="12.4512" x="1502.5112" y="1030.79"/><rect x="1406.5112" y="1045" width="96" height="96" fill="none" stroke="blue" stroke-dasharray="5"/><rect x="1394.06" y="1030.79" width="120.9024" height="119.336" fill="none" stroke="blue"/></g><g id="Symbols"><g id="Bold-L" transform="matrix(1 0 0 1 2266 1556)"><path d="M39.506 -89.087 H111.907 V-1.851 L68.854 42.654 L59.312 35.816 Q57.889 34.753 57.163 32.656 Q56.438 30.56 56.438 27.819 V27.496 L63.21 -1.851 H16.609 Q10.643 -1.851 6.047 -6.56 Q1.451 -11.268 1.451 -17.17 V-22.949 Q1.451 -24.398 1.209 -25.944 Q0.968 -27.49 1.613 -28.78 L22.736 -77.639 Q24.652 -82.517 29.539 -85.802 Q34.426 -89.087 39.506 -89.087 Z M98.362 -73.769 H37.41 Q37.41 -73.769 37.41 -73.769 Q37.41 -73.769 37.41 -73.769 L16.931 -24.749 V-17.17 Q16.931 -17.17 16.931 -17.17 Q16.931 -17.17 16.931 -17.17 H80.141 L73.046 17.015 L98.362 -10.075 V-73.769 Z M111.907 -1.851 V-17.17 H129.484 V-73.769 H111.907 V-89.087 H144.803 V-1.851 H111.907 Z"/></g><g id="Semibold-L" transform="matrix(1 0 0 1 1970.27 1556)"><path d="M39.296 -90.91 H111.347 V-5.707 L67.522 39.639 L59.394 33.601 Q58.169 32.649 57.549 30.833 Q56.928 29.018 56.928 26.557 V25.673 L63.911 -5.707 H16.609 Q11.554 -5.707 7.694 -9.63 Q3.835 -13.554 3.835 -18.572 V-27.576 Q3.835 -28.897 3.593 -30.297 Q3.351 -31.696 3.926 -32.916 L24.699 -80.864 Q26.404 -85.11 30.619 -88.01 Q34.834 -90.91 39.296 -90.91 Z M99.484 -78.045 H37.2 Q37.2 -78.045 37.2 -78.045 Q37.2 -78.045 37.2 -78.045 L16.791 -29.376 V-18.572 Q16.791 -18.572 16.791 -18.572 Q16.791 -18.572 16.791 -18.572 H78.669 L70.943 18.207 L99.484 -12.108 V-78.045 Z M111.347 -5.707 V-18.572 H130.605 V-78.045 H111.347 V-90.91 H143.471 V-5.707 H111.347 Z"/></g><g id="Medium-L" transform="matrix(1 0 0 1 1674.31 1556)"><path d="M39.138 -92.277 H110.926 V-8.599 L66.523 37.378 L59.456 31.94 Q58.379 31.072 57.838 29.466 Q57.296 27.861 57.296 25.61 V24.306 L64.437 -8.599 H16.609 Q12.237 -8.599 8.93 -11.934 Q5.623 -15.268 5.623 -19.624 V-31.047 Q5.623 -32.272 5.381 -33.562 Q5.139 -34.851 5.661 -36.019 L26.172 -83.282 Q27.719 -87.056 31.429 -89.667 Q35.14 -92.277 39.138 -92.277 Z M100.326 -81.253 H37.042 Q37.042 -81.253 37.042 -81.253 Q37.042 -81.253 37.042 -81.253 L16.686 -32.846 V-19.624 Q16.686 -19.624 16.686 -19.624 Q16.686 -19.624 16.686 -19.624 H77.565 L69.366 19.101 L100.326 -13.633 V-81.253 Z M110.926 -8.599 V-19.624 H131.447 V-81.253 H110.926 V-92.277 H142.471 V-8.599 H110.926 Z"/></g><g id="Regular-L" transform="matrix(1 0 0 1 1378.56 1556)"><path d="M39.023 -93.28 H110.618 V-10.72 L65.79 35.72 L59.501 30.721 Q58.534 29.915 58.05 28.464 Q57.566 27.013 57.566 24.916 V23.304 L64.823 -10.72 H16.609 Q12.739 -10.72 9.836 -13.622 Q6.934 -16.525 6.934 -20.395 V-33.592 Q6.934 -34.746 6.692 -35.956 Q6.45 -37.165 6.934 -38.294 L27.251 -85.056 Q28.683 -88.483 32.023 -90.881 Q35.364 -93.28 39.023 -93.28 Z M100.943 -83.605 H36.926 Q36.926 -83.605 36.926 -83.605 Q36.926 -83.605 36.926 -83.605 L16.609 -35.391 V-20.395 Q16.609 -20.395 16.609 -20.395 Q16.609 -20.395 16.609 -20.395 H76.755 L68.209 19.756 L100.943 -14.751 V-83.605 Z M110.618 -10.72 V-20.395 H132.064 V-83.605 H110.618 V-93.28 H141.739 V-10.72 H110.618 Z"/></g><g id="Light-L" transform="matrix(1 0 0 1 1082.77 1556)"><path d="M40.688 -87.45 H109.005 V-10.968 L66.41 32.495 L62.291 29.285 Q61.387 28.488 60.903 27.192 Q60.419 25.896 60.419 24.172 V23.056 L67.365 -10.968 H19.338 Q15.679 -10.968 12.857 -13.79 Q10.035 -16.612 10.035 -20.271 V-30.929 Q10.035 -31.955 9.886 -33.072 Q9.737 -34.188 10.159 -35.193 L29.36 -79.722 Q30.668 -82.963 33.946 -85.206 Q37.225 -87.45 40.688 -87.45 Z M101.687 -80.132 H39.159 Q38.477 -80.132 37.764 -79.76 Q37.05 -79.387 36.678 -78.519 L17.353 -32.724 V-20.271 Q17.353 -19.465 17.911 -18.875 Q18.469 -18.286 19.338 -18.286 H76.321 L68.333 20.438 L101.687 -14.069 V-80.132 Z M109.005 -10.968 V-18.286 H131.257 V-80.132 H109.005 V-87.45 H138.576 V-10.968 H109.005 Z"/></g><g id="Thin-L" transform="matrix(1 0 0 1 787.282 1556)"><path d="M42.353 -81.62 H107.392 V-11.216 L67.03 29.27 L65.081 27.849 Q64.239 27.062 63.756 25.921 Q63.272 24.78 63.272 23.428 V22.808 L69.908 -11.216 H22.066 Q18.618 -11.216 15.877 -13.957 Q13.136 -16.699 13.136 -20.147 V-28.268 Q13.136 -29.165 13.08 -30.188 Q13.024 -31.211 13.384 -32.092 L31.469 -74.389 Q32.652 -77.443 35.869 -79.532 Q39.085 -81.62 42.353 -81.62 Z M102.431 -76.659 H41.392 Q40.027 -76.659 38.601 -75.915 Q37.174 -75.17 36.43 -73.434 L18.097 -30.058 V-20.147 Q18.097 -18.534 19.214 -17.356 Q20.33 -16.178 22.066 -16.178 H75.887 L68.457 21.121 L102.431 -13.387 V-76.659 Z M107.392 -11.216 V-16.178 H130.451 V-76.659 H107.392 V-81.62 H135.413 V-11.216 H107.392 Z"/></g><g id="Ultralight-L" transform="matrix(1 0 0 1 491.205 1556)"><path d="M43.352 -78.122 H106.425 V-11.365 L67.403 27.335 L66.755 26.987 Q65.951 26.206 65.468 25.158 Q64.984 24.11 64.984 22.981 V22.659 L71.434 -11.365 H23.704 Q20.382 -11.365 17.689 -14.058 Q14.996 -16.751 14.996 -20.072 V-26.671 Q14.996 -27.49 14.996 -28.457 Q14.996 -29.425 15.319 -30.231 L32.734 -71.189 Q33.843 -74.132 37.022 -76.127 Q40.201 -78.122 43.352 -78.122 Z M102.877 -74.575 H42.731 Q40.958 -74.575 39.103 -73.607 Q37.249 -72.64 36.281 -70.382 L18.544 -28.457 V-20.072 Q18.544 -17.976 19.995 -16.444 Q21.446 -14.912 23.704 -14.912 H75.626 L68.531 21.53 L102.877 -12.977 V-74.575 Z M106.425 -11.365 V-14.912 H129.968 V-74.575 H106.425 V-78.122 H133.515 V-11.365 H106.425 Z"/></g><g id="Bold-M" transform="matrix(1 0 0 1 2281.8 1126)"><path d="M30.5 -75.855 H86.25 V-6.105 L53.125 27.02 L43.586 18.796 Q42.25 17.645 41.375 15.52 Q40.5 13.395 40.5 11.27 V10.895 L45.625 -6.105 H15 Q8.875 -6.105 4.062 -10.917 Q-0.75 -15.73 -0.75 -21.855 V-24.23 Q-0.75 -25.409 -0.5 -26.757 Q-0.25 -28.105 0.25 -29.105 L16 -66.48 Q17.75 -70.48 21.938 -73.167 Q26.125 -75.855 30.5 -75.855 Z M72.375 -60.105 H30.5 Q30.5 -60.105 30.5 -60.105 Q30.5 -60.105 30.5 -60.105 L15.25 -24.23 V-21.855 Q15.25 -21.855 15.25 -21.855 Q15.25 -21.855 15.25 -21.855 H63.5 L58.25 -0.48 L72.375 -14.605 V-60.105 Z M86.25 -6.105 V-21.855 H97.375 V-60.105 H86.25 V-75.855 H113.125 V-6.105 H86.25 Z"/></g><g id="Semibold-M" transform="matrix(1 0 0 1 1985.97 1126)"><path d="M30.283 -77.757 H85.707 V-10.072 L51.766 23.868 L43.657 16.502 Q42.522 15.471 41.783 13.618 Q41.044 11.765 41.044 9.966 V8.993 L46.331 -10.072 H15 Q9.799 -10.072 5.774 -14.097 Q1.75 -18.121 1.75 -23.322 V-29.012 Q1.75 -30.059 2 -31.256 Q2.25 -32.452 2.641 -33.398 L18.065 -69.849 Q19.543 -73.197 23.052 -75.477 Q26.56 -77.757 30.283 -77.757 Z M73.516 -64.507 H30.283 Q30.283 -64.507 30.283 -64.507 Q30.283 -64.507 30.283 -64.507 L15.141 -29.012 V-23.322 Q15.141 -23.322 15.141 -23.322 Q15.141 -23.322 15.141 -23.322 H61.978 L56.076 0.716 L73.516 -16.724 V-64.507 Z M85.707 -10.072 V-23.322 H98.516 V-64.507 H85.707 V-77.757 H111.766 V-10.072 H85.707 Z"/></g><g id="Medium-M" transform="matrix(1 0 0 1 1689.91 1126)"><path d="M30.12 -79.184 H85.299 V-13.048 L50.747 21.504 L43.711 14.782 Q42.725 13.841 42.088 12.191 Q41.451 10.542 41.451 8.987 V7.566 L46.861 -13.048 H15 Q10.492 -13.048 7.058 -16.481 Q3.625 -19.915 3.625 -24.423 V-32.599 Q3.625 -33.547 3.875 -34.63 Q4.125 -35.714 4.435 -36.618 L19.614 -72.377 Q20.889 -75.235 23.887 -77.21 Q26.886 -79.184 30.12 -79.184 Z M74.372 -67.809 H30.12 Q30.12 -67.809 30.12 -67.809 Q30.12 -67.809 30.12 -67.809 L15.06 -32.599 V-24.423 Q15.06 -24.423 15.06 -24.423 Q15.06 -24.423 15.06 -24.423 H60.837 L54.446 1.612 L74.372 -18.314 V-67.809 Z M85.299 -13.048 V-24.423 H99.372 V-67.809 H85.299 V-79.184 H110.747 V-13.048 H85.299 Z"/></g><g id="Regular-M" transform="matrix(1 0 0 1 1394.06 1126)"><path d="M30 -80.23 H85 V-15.23 L50 19.77 L43.75 13.52 Q42.875 12.645 42.312 11.145 Q41.75 9.645 41.75 8.27 V6.52 L47.25 -15.23 H15 Q11 -15.23 8 -18.23 Q5 -21.23 5 -25.23 V-35.23 Q5 -36.105 5.25 -37.105 Q5.5 -38.105 5.75 -38.98 L20.75 -74.23 Q21.875 -76.73 24.5 -78.48 Q27.125 -80.23 30 -80.23 Z M75 -70.23 H30 Q30 -70.23 30 -70.23 Q30 -70.23 30 -70.23 L15 -35.23 V-25.23 Q15 -25.23 15 -25.23 Q15 -25.23 15 -25.23 H60 L53.25 2.27 L75 -19.48 V-70.23 Z M85 -15.23 V-25.23 H100 V-70.23 H85 V-80.23 H110 V-15.23 H85 Z"/></g><g id="Light-M" transform="matrix(1 0 0 1 1098.18 1126)"><path d="M31.346 -75.71 H83.942 V-15.711 L50.769 17.27 L46.539 13.039 Q45.76 12.26 45.245 10.977 Q44.731 9.693 44.731 8.559 V7.289 L50.039 -15.711 H16.539 Q12.971 -15.711 10.236 -18.446 Q7.5 -21.182 7.5 -24.749 V-32.826 Q7.5 -33.605 7.702 -34.509 Q7.904 -35.412 8.154 -36.191 L22.481 -69.999 Q23.558 -72.403 26.087 -74.057 Q28.616 -75.71 31.346 -75.71 Z M76.442 -68.211 H31.346 Q30.817 -68.211 30.265 -67.922 Q29.712 -67.634 29.423 -66.96 L15 -33.211 V-24.749 Q15 -24.076 15.433 -23.643 Q15.866 -23.211 16.539 -23.211 H59.519 L53.25 4.193 L76.442 -18.903 V-68.211 Z M83.942 -15.711 V-23.211 H100 V-68.211 H83.942 V-75.71 H107.5 V-15.711 H83.942 Z"/></g><g id="Thin-M" transform="matrix(1 0 0 1 802.565 1126)"><path d="M32.692 -71.192 H82.885 V-16.191 L51.538 14.77 L49.327 12.559 Q48.644 11.876 48.178 10.809 Q47.712 9.741 47.712 8.847 V8.059 L52.827 -16.191 H18.077 Q14.942 -16.191 12.471 -18.663 Q10 -21.134 10 -24.268 V-30.422 Q10 -31.105 10.154 -31.913 Q10.308 -32.72 10.558 -33.403 L24.212 -65.768 Q25.24 -68.076 27.673 -69.634 Q30.106 -71.192 32.692 -71.192 Z M77.885 -66.192 H32.692 Q31.635 -66.192 30.529 -65.615 Q29.423 -65.038 28.846 -63.692 L15 -31.192 V-24.268 Q15 -22.922 15.865 -22.057 Q16.731 -21.192 18.077 -21.192 H59.038 L53.25 6.116 L77.885 -18.326 V-66.192 Z M82.885 -16.191 V-21.192 H100 V-66.192 H82.885 V-71.192 H105 V-16.191 H82.885 Z"/></g><g id="Ultralight-M" transform="matrix(1 0 0 1 506.415 1126)"><path d="M33.5 -68.48 H82.25 V-16.48 L52 13.27 L51 12.27 Q50.375 11.645 49.938 10.708 Q49.5 9.77 49.5 9.02 V8.52 L54.5 -16.48 H19 Q16.125 -16.48 13.812 -18.792 Q11.5 -21.105 11.5 -23.98 V-28.98 Q11.5 -29.605 11.625 -30.355 Q11.75 -31.105 12 -31.73 L25.25 -63.23 Q26.25 -65.48 28.625 -66.98 Q31 -68.48 33.5 -68.48 Z M78.75 -64.98 H33.5 Q32.125 -64.98 30.688 -64.23 Q29.25 -63.48 28.5 -61.73 L15 -29.98 V-23.98 Q15 -22.23 16.125 -21.105 Q17.25 -19.98 19 -19.98 H58.75 L53.25 7.27 L78.75 -17.98 V-64.98 Z M82.25 -16.48 V-19.98 H100 V-64.98 H82.25 V-68.48 H103.5 V-16.48 H82.25 Z"/></g><g id="Bold-S" transform="matrix(1 0 0 1 2294.23 696)"><path d="M24.065 -64.916 H69.629 V-13.828 L42.705 13.096 L36.953 9.369 Q34.913 7.968 33.779 5.65 Q32.645 3.332 33.039 0.768 L33.138 1.36 L36.59 -13.828 H11.835 Q7.2 -13.828 3.698 -17.33 Q0.197 -20.831 0.197 -25.466 V-25.072 Q0.197 -26.101 0.345 -27.016 Q0.493 -27.932 0.986 -28.721 L13.314 -57.914 Q14.597 -61.07 17.654 -62.993 Q20.711 -64.916 24.065 -64.916 Z M59.471 -53.278 H24.065 Q24.065 -53.278 24.065 -53.278 Q24.065 -53.278 24.065 -53.278 L12.032 -25.072 V-25.466 Q12.032 -25.466 12.032 -25.466 Q12.032 -25.466 12.032 -25.466 H49.312 L45.663 -6.333 L59.471 -20.14 V-53.278 Z M69.629 -13.828 V-25.466 H80.774 V-53.278 H69.629 V-64.916 H92.412 V-13.828 H69.629 Z"/></g><g id="Semibold-S" transform="matrix(1 0 0 1 1998.1 696)"><path d="M23.893 -66.417 H69.2 V-16.958 L41.633 10.609 L37.01 7.559 Q35.128 6.253 34.101 4.149 Q33.074 2.046 33.468 -0.261 L33.567 -0.141 L37.147 -16.958 H11.835 Q7.929 -16.958 5.049 -19.838 Q2.17 -22.717 2.17 -26.624 V-28.845 Q2.17 -29.77 2.318 -30.566 Q2.466 -31.362 2.873 -32.108 L14.944 -60.572 Q16.011 -63.214 18.533 -64.815 Q21.054 -66.417 23.893 -66.417 Z M60.371 -56.751 H23.893 Q23.893 -56.751 23.893 -56.751 Q23.893 -56.751 23.893 -56.751 L11.946 -28.845 V-26.624 Q11.946 -26.624 11.946 -26.624 Q11.946 -26.624 11.946 -26.624 H48.112 L43.948 -5.39 L60.371 -21.813 V-56.751 Z M69.2 -16.958 V-26.624 H81.674 V-56.751 H69.2 V-66.417 H91.34 V-16.958 H69.2 Z"/></g><g id="Medium-S" transform="matrix(1 0 0 1 1701.85 696)"><path d="M23.764 -67.543 H68.879 V-19.306 L40.829 8.744 L37.052 6.202 Q35.288 4.966 34.342 3.024 Q33.395 1.081 33.79 -1.033 L33.888 -1.267 L37.565 -19.306 H11.835 Q8.475 -19.306 6.062 -21.719 Q3.649 -24.133 3.649 -27.492 V-31.675 Q3.649 -32.522 3.797 -33.228 Q3.945 -33.935 4.288 -34.649 L16.166 -62.566 Q17.073 -64.822 19.192 -66.182 Q21.312 -67.543 23.764 -67.543 Z M61.047 -59.357 H23.764 Q23.764 -59.357 23.764 -59.357 Q23.764 -59.357 23.764 -59.357 L11.882 -31.675 V-27.492 Q11.882 -27.492 11.882 -27.492 Q11.882 -27.492 11.882 -27.492 H47.211 L42.662 -4.682 L61.047 -23.067 V-59.357 Z M68.879 -19.306 V-27.492 H82.35 V-59.357 H68.879 V-67.543 H90.536 V-19.306 H68.879 Z"/></g><g id="Regular-S" transform="matrix(1 0 0 1 1405.73 696)"><path d="M23.67 -68.368 H68.643 V-21.028 L40.239 7.376 L37.083 5.206 Q35.406 4.023 34.519 2.198 Q33.631 0.374 34.026 -1.599 L34.124 -2.092 L37.872 -21.028 H11.835 Q8.876 -21.028 6.805 -23.099 Q4.734 -25.17 4.734 -28.129 V-33.751 Q4.734 -34.54 4.882 -35.181 Q5.03 -35.822 5.326 -36.512 L17.062 -64.028 Q17.851 -66.001 19.676 -67.184 Q21.5 -68.368 23.67 -68.368 Z M61.542 -61.267 H23.67 Q23.67 -61.267 23.67 -61.267 Q23.67 -61.267 23.67 -61.267 L11.835 -33.751 V-28.129 Q11.835 -28.129 11.835 -28.129 Q11.835 -28.129 11.835 -28.129 H46.551 L41.718 -4.163 L61.542 -23.987 V-61.267 Z M68.643 -21.028 V-28.129 H82.845 V-61.267 H68.643 V-68.368 H89.946 V-21.028 H68.643 Z"/></g><g id="Light-S" transform="matrix(1 0 0 1 1109.75 696)"><path d="M24.732 -64.802 H67.808 V-21.407 L40.846 5.403 L39.283 4.827 Q37.683 3.719 36.833 2.065 Q35.983 0.412 36.378 -1.371 L36.476 -1.485 L40.072 -21.407 H13.049 Q10.432 -21.407 8.569 -23.27 Q6.707 -25.132 6.707 -27.75 V-31.854 Q6.707 -32.567 6.817 -33.132 Q6.927 -33.697 7.223 -34.312 L18.428 -60.69 Q19.179 -62.587 20.928 -63.694 Q22.676 -64.802 24.732 -64.802 Z M62.68 -59.674 H24.732 Q24.315 -59.674 23.879 -59.446 Q23.442 -59.218 23.215 -58.687 L11.835 -32.157 V-27.75 Q11.835 -27.219 12.176 -26.877 Q12.518 -26.536 13.049 -26.536 H46.172 L41.718 -2.646 L62.68 -23.531 V-59.674 Z M67.808 -21.407 V-26.536 H82.845 V-59.674 H67.808 V-64.802 H87.973 V-21.407 H67.808 Z"/></g><g id="Thin-S" transform="matrix(1 0 0 1 814.015 696)"><path d="M25.794 -61.237 H66.974 V-21.787 L41.453 3.431 L41.483 4.448 Q39.958 3.416 39.147 1.933 Q38.335 0.449 38.729 -1.144 L38.828 -0.878 L42.272 -21.787 H14.263 Q11.987 -21.787 10.333 -23.441 Q8.679 -25.094 8.679 -27.37 V-29.957 Q8.679 -30.595 8.751 -31.084 Q8.823 -31.573 9.119 -32.112 L19.793 -57.352 Q20.506 -59.173 22.179 -60.205 Q23.852 -61.237 25.794 -61.237 Z M63.818 -58.081 H25.794 Q24.96 -58.081 24.087 -57.625 Q23.215 -57.17 22.76 -56.108 L11.835 -30.564 V-27.37 Q11.835 -26.308 12.518 -25.626 Q13.201 -24.943 14.263 -24.943 H45.792 L41.718 -1.129 L63.818 -23.076 V-58.081 Z M66.974 -21.787 V-24.943 H82.845 V-58.081 H66.974 V-61.237 H86.001 V-21.787 H66.974 Z"/></g><g id="Ultralight-S" transform="matrix(1 0 0 1 517.792 696)"><path d="M26.431 -59.097 H66.473 V-22.014 L41.817 2.248 L42.803 4.22 Q41.324 3.234 40.535 1.853 Q39.746 0.472 40.14 -1.007 L40.239 -0.514 L43.592 -22.014 H14.991 Q12.92 -22.014 11.391 -23.543 Q9.863 -25.072 9.863 -27.143 V-28.819 Q9.863 -29.411 9.912 -29.855 Q9.961 -30.299 10.257 -30.792 L20.613 -55.349 Q21.303 -57.125 22.93 -58.111 Q24.558 -59.097 26.431 -59.097 Z M64.501 -57.125 H26.431 Q25.347 -57.125 24.212 -56.533 Q23.078 -55.941 22.486 -54.56 L11.835 -29.608 V-27.143 Q11.835 -25.762 12.723 -24.874 Q13.61 -23.987 14.991 -23.987 H45.565 L41.718 -0.218 L64.501 -22.803 V-57.125 Z M66.473 -22.014 V-23.987 H82.845 V-57.125 H66.473 V-59.097 H84.818 V-22.014 H66.473 Z"/></g></g></svg>