<svg xmlns="http://www.w3.org/2000/svg" version="1.1" width="3300" height="2000"><g id="Notes"><style>
    text {
      font-family: monospace;
      text-anchor: middle;
    }
    text.emphasis {
      font-weight:bold;
    }
    text.lanchor {
      text-anchor: start;
    }
  </style><rect height="2200" id="artboard" fill="white" width="3300" x="0" y="0"/><line id="" style="fill:none;stroke:black;stroke-width:0.5;" x1="263" x2="3036" y1="292" y2="292"/><text class="lanchor emphasis" transform="matrix(1 0 0 1 263 322)">Weight/Scale Variations</text><text transform="matrix(1 0 0 1 559.711 322)">Ultralight</text><text transform="matrix(1 0 0 1 856.422 322)">Thin</text><text transform="matrix(1 0 0 1 1153.13 322)">Light</text><text transform="matrix(1 0 0 1 1449.84 322)">Regular</text><text transform="matrix(1 0 0 1 1746.56 322)">Medium</text><text transform="matrix(1 0 0 1 2043.27 322)">Semibold</text><text transform="matrix(1 0 0 1 2339.98 322)">Bold</text><text transform="matrix(1 0 0 1 2636.69 322)">Heavy</text><text transform="matrix(1 0 0 1 2933.4 322)">Black</text><text id="template-version" style="text-anchor: end;" transform="matrix(1 0 0 1 3036 1933)">Template v.1.0</text><text class="lanchor" transform="matrix(1 0 0 1 263 726)">Small</text><text class="lanchor" transform="matrix(1 0 0 1 263 1156)">Medium</text><text class="lanchor" transform="matrix(1 0 0 1 263 1586)">Large</text></g><g id="Guides"><g id="H-reference" style="fill:#27AAE1;stroke:none;" transform="matrix(1 0 0 1 339 696)"><path d="M 54.9316 0 L 57.666 0 L 30.5664 -70.459 L 28.0762 -70.459 L 0.976562 0 L 3.66211 0 L 12.9395 -24.4629 L 45.7031 -24.4629 Z M 29.1992 -67.0898 L 29.4434 -67.0898 L 44.8242 -26.709 L 13.8184 -26.709 Z"/></g><line id="Baseline-S" style="fill:none;stroke:#27AAE1;opacity:1;stroke-width:0.577;" x1="263" x2="3036" y1="696" y2="696"/><line id="Capline-S" style="fill:none;stroke:#27AAE1;opacity:1;stroke-width:0.577;" x1="263" x2="3036" y1="625.541" y2="625.541"/><g id="H-reference" style="fill:#27AAE1;stroke:none;" transform="matrix(1 0 0 1 339 1126)"><path d="M 54.9316 0 L 57.666 0 L 30.5664 -70.459 L 28.0762 -70.459 L 0.976562 0 L 3.66211 0 L 12.9395 -24.4629 L 45.7031 -24.4629 Z M 29.1992 -67.0898 L 29.4434 -67.0898 L 44.8242 -26.709 L 13.8184 -26.709 Z"/></g><line id="Baseline-M" style="fill:none;stroke:#27AAE1;opacity:1;stroke-width:0.577;" x1="263" x2="3036" y1="1126" y2="1126"/><line id="Capline-M" style="fill:none;stroke:#27AAE1;opacity:1;stroke-width:0.577;" x1="263" x2="3036" y1="1055.54" y2="1055.54"/><g id="H-reference" style="fill:#27AAE1;stroke:none;" transform="matrix(1 0 0 1 339 1556)"><path d="M 54.9316 0 L 57.666 0 L 30.5664 -70.459 L 28.0762 -70.459 L 0.976562 0 L 3.66211 0 L 12.9395 -24.4629 L 45.7031 -24.4629 Z M 29.1992 -67.0898 L 29.4434 -67.0898 L 44.8242 -26.709 L 13.8184 -26.709 Z"/></g><line id="Baseline-L" style="fill:none;stroke:#27AAE1;opacity:1;stroke-width:0.577;" x1="263" x2="3036" y1="1556" y2="1556"/><line id="Capline-L" style="fill:none;stroke:#27AAE1;opacity:1;stroke-width:0.577;" x1="263" x2="3036" y1="1485.54" y2="1485.54"/><rect height="119.336" id="left-margin" style="fill:darkred;stroke:none;opacity:0.4;" width="12.4512" x="1394.06" y="1030.79"/><rect height="119.336" id="right-margin" style="fill:darkgreen;stroke:none;opacity:0.4;" width="12.4512" x="1502.5112" y="1030.79"/><rect x="1406.5112" y="1045" width="96" height="96" fill="none" stroke="blue" stroke-dasharray="5"/><rect x="1394.06" y="1030.79" width="120.9024" height="119.336" fill="none" stroke="blue"/></g><g id="Symbols"><g id="Bold-L" transform="matrix(1 0 0 1 2266 1556)"><path d="M130.935 20.401 H98.362 Q98.362 16.693 97.959 12.93 Q97.556 9.167 96.75 5.244 H130.935 Q130.935 5.244 130.935 5.244 Q130.935 5.244 130.935 5.244 V-75.704 Q130.935 -75.704 130.935 -75.704 Q130.935 -75.704 130.935 -75.704 H24.188 Q24.188 -75.704 24.188 -75.704 Q24.188 -75.704 24.188 -75.704 V-67.964 Q20.237 -68.77 16.448 -69.173 Q12.658 -69.576 9.03 -69.576 V-75.704 Q9.03 -82.188 13.4 -86.605 Q17.77 -91.022 24.188 -91.022 H130.935 Q137.419 -91.022 141.836 -86.605 Q146.254 -82.188 146.254 -75.704 V5.244 Q146.254 11.662 141.836 16.031 Q137.419 20.401 130.935 20.401 Z M9.03 20.401 V1.696 Q16.555 1.696 21.822 7.152 Q27.09 12.608 27.09 20.401 H9.03 Z M43.215 20.401 Q43.215 6.105 33.188 -4.162 Q23.162 -14.429 9.03 -14.429 V-25.877 Q28 -25.877 41.332 -12.301 Q54.664 1.275 54.664 20.401 H43.215 Z M70.789 20.401 Q70.789 7.663 65.951 -3.706 Q61.114 -15.074 52.729 -23.62 Q44.344 -32.166 33.072 -37.084 Q21.799 -42.002 9.03 -42.002 V-53.451 Q24.262 -53.451 37.574 -47.651 Q50.886 -41.851 60.837 -31.768 Q70.789 -21.685 76.513 -8.212 Q82.237 5.262 82.237 20.401 H70.789 Z"/></g><g id="Semibold-L" transform="matrix(1 0 0 1 1970.27 1556)"><path d="M131.566 18.649 H97.732 Q97.732 15.501 97.434 12.322 Q97.136 9.144 96.54 5.875 H131.566 Q131.566 5.875 131.566 5.875 Q131.566 5.875 131.566 5.875 V-76.335 Q131.566 -76.335 131.566 -76.335 Q131.566 -76.335 131.566 -76.335 H23.557 Q23.557 -76.335 23.557 -76.335 Q23.557 -76.335 23.557 -76.335 V-67.753 Q20.272 -68.349 17.078 -68.647 Q13.885 -68.945 10.783 -68.945 V-76.335 Q10.783 -81.735 14.488 -85.467 Q18.194 -89.2 23.557 -89.2 H131.566 Q136.966 -89.2 140.699 -85.467 Q144.431 -81.735 144.431 -76.335 V5.875 Q144.431 11.237 140.699 14.943 Q136.966 18.649 131.566 18.649 Z M10.783 18.649 V0.785 Q17.957 0.785 22.979 5.995 Q28.001 11.205 28.001 18.649 H10.783 Z M44.126 18.649 Q44.126 4.633 34.393 -5.354 Q24.659 -15.34 10.783 -15.34 V-26.018 Q29.122 -26.018 41.963 -12.911 Q54.804 0.196 54.804 18.649 H44.126 Z M70.929 18.649 Q70.929 6.19 66.232 -4.897 Q61.534 -15.985 53.36 -24.286 Q45.185 -32.587 34.222 -37.365 Q23.258 -42.143 10.783 -42.143 V-52.82 Q25.492 -52.82 38.379 -47.193 Q51.267 -41.567 60.887 -31.836 Q70.508 -22.106 76.057 -9.057 Q81.607 3.992 81.607 18.649 H70.929 Z"/></g><g id="Medium-L" transform="matrix(1 0 0 1 1674.31 1556)"><path d="M132.039 17.334 H97.258 Q97.258 14.607 97.039 11.867 Q96.82 9.127 96.382 6.348 H132.039 Q132.039 6.348 132.039 6.348 Q132.039 6.348 132.039 6.348 V-76.808 Q132.039 -76.808 132.039 -76.808 Q132.039 -76.808 132.039 -76.808 H23.083 Q23.083 -76.808 23.083 -76.808 Q23.083 -76.808 23.083 -76.808 V-67.596 Q20.298 -68.034 17.552 -68.253 Q14.805 -68.472 12.097 -68.472 V-76.808 Q12.097 -81.395 15.305 -84.614 Q18.512 -87.833 23.083 -87.833 H132.039 Q136.626 -87.833 139.845 -84.614 Q143.064 -81.395 143.064 -76.808 V6.348 Q143.064 10.919 139.845 14.127 Q136.626 17.334 132.039 17.334 Z M12.097 17.334 V0.101 Q19.009 0.101 23.847 5.127 Q28.685 10.154 28.685 17.334 H12.097 Z M44.81 17.334 Q44.81 3.528 35.296 -6.248 Q25.783 -16.024 12.097 -16.024 V-26.123 Q29.963 -26.123 42.436 -13.368 Q54.909 -0.613 54.909 17.334 H44.81 Z M71.034 17.334 Q71.034 5.086 66.442 -5.791 Q61.85 -16.669 53.833 -24.786 Q45.816 -32.902 35.084 -37.575 Q24.352 -42.248 12.097 -42.248 V-52.347 Q26.414 -52.347 38.983 -46.85 Q51.552 -41.353 60.925 -31.887 Q70.298 -22.421 75.716 -9.691 Q81.133 3.04 81.133 17.334 H71.034 Z"/></g><g id="Regular-L" transform="matrix(1 0 0 1 1378.56 1556)"><path d="M132.386 16.37 H96.911 Q96.911 13.951 96.75 11.533 Q96.589 9.114 96.266 6.695 H132.386 Q132.386 6.695 132.386 6.695 Q132.386 6.695 132.386 6.695 V-77.155 Q132.386 -77.155 132.386 -77.155 Q132.386 -77.155 132.386 -77.155 H22.736 Q22.736 -77.155 22.736 -77.155 Q22.736 -77.155 22.736 -77.155 V-67.48 Q20.317 -67.802 17.899 -67.964 Q15.48 -68.125 13.061 -68.125 V-77.155 Q13.061 -81.146 15.903 -83.988 Q18.745 -86.83 22.736 -86.83 H132.386 Q136.377 -86.83 139.219 -83.988 Q142.061 -81.146 142.061 -77.155 V6.695 Q142.061 10.686 139.219 13.528 Q136.377 16.37 132.386 16.37 Z M13.061 16.37 V-0.4 Q19.78 -0.4 24.483 4.491 Q29.186 9.383 29.186 16.37 H13.061 Z M45.311 16.37 Q45.311 2.719 35.959 -6.903 Q26.606 -16.525 13.061 -16.525 V-26.2 Q30.58 -26.2 42.783 -13.703 Q54.986 -1.206 54.986 16.37 H45.311 Z M71.111 16.37 Q71.111 4.276 66.596 -6.447 Q62.081 -17.17 54.18 -25.152 Q46.279 -33.134 35.717 -37.729 Q25.155 -42.325 13.061 -42.325 V-52 Q27.09 -52 39.426 -46.598 Q51.761 -41.196 60.953 -31.924 Q70.144 -22.652 75.465 -10.156 Q80.786 2.341 80.786 16.37 H71.111 Z"/></g><g id="Light-L" transform="matrix(1 0 0 1 1082.77 1556)"><path d="M129.471 13.145 H95.113 Q95.113 11.346 94.998 9.486 Q94.883 7.625 94.716 5.827 H129.471 Q130.34 5.827 130.898 5.268 Q131.456 4.71 131.456 3.842 V-74.302 Q131.456 -75.17 130.898 -75.728 Q130.34 -76.287 129.471 -76.287 H25.527 Q24.721 -76.287 24.132 -75.728 Q23.543 -75.17 23.543 -74.302 V-65.805 Q21.744 -65.973 19.904 -66.088 Q18.064 -66.202 16.224 -66.202 V-74.302 Q16.224 -78.091 18.981 -80.848 Q21.738 -83.605 25.527 -83.605 H129.471 Q133.309 -83.605 136.041 -80.848 Q138.774 -78.091 138.774 -74.302 V3.842 Q138.774 7.631 136.041 10.388 Q133.309 13.145 129.471 13.145 Z M16.224 13.145 V-0.834 Q21.816 -0.834 25.78 3.264 Q29.744 7.362 29.744 13.145 H16.224 Z M46.242 13.145 Q46.242 0.548 37.509 -8.361 Q28.777 -17.269 16.224 -17.331 V-24.649 Q31.82 -24.649 42.69 -13.586 Q53.56 -2.523 53.56 13.145 H46.242 Z M71.297 13.145 Q71.297 1.683 66.999 -8.457 Q62.701 -18.597 55.234 -26.144 Q47.767 -33.692 37.738 -38.039 Q27.709 -42.387 16.224 -42.387 V-49.705 Q29.199 -49.705 40.553 -44.74 Q51.908 -39.775 60.364 -31.264 Q68.819 -22.752 73.717 -11.268 Q78.615 0.215 78.615 13.145 H71.297 Z"/></g><g id="Thin-L" transform="matrix(1 0 0 1 787.282 1556)"><path d="M126.556 9.92 H93.314 Q93.314 8.742 93.246 7.439 Q93.178 6.137 93.165 4.958 H126.556 Q128.293 4.958 129.409 3.842 Q130.526 2.726 130.526 0.989 V-71.449 Q130.526 -73.186 129.409 -74.302 Q128.293 -75.418 126.556 -75.418 H28.318 Q26.705 -75.418 25.527 -74.302 Q24.349 -73.186 24.349 -71.449 V-64.131 Q23.17 -64.143 21.909 -64.212 Q20.648 -64.28 19.387 -64.28 V-71.449 Q19.387 -75.037 22.059 -77.709 Q24.73 -80.38 28.318 -80.38 H126.556 Q130.24 -80.38 132.864 -77.709 Q135.487 -75.037 135.487 -71.449 V0.989 Q135.487 4.577 132.864 7.249 Q130.24 9.92 126.556 9.92 Z M19.387 9.92 V-1.268 Q23.853 -1.268 27.078 2.036 Q30.303 5.341 30.303 9.92 H19.387 Z M47.172 9.92 Q47.172 -1.623 39.06 -9.818 Q30.948 -18.013 19.387 -18.137 V-23.099 Q33.061 -23.099 42.597 -13.469 Q52.133 -3.839 52.133 9.92 H47.172 Z M71.483 9.92 Q71.483 -0.909 67.403 -10.466 Q63.322 -20.023 56.289 -27.137 Q49.256 -34.25 39.759 -38.35 Q30.262 -42.449 19.387 -42.449 V-47.411 Q31.307 -47.411 41.681 -42.883 Q52.055 -38.355 59.775 -30.603 Q67.495 -22.851 71.97 -12.381 Q76.445 -1.91 76.445 9.92 H71.483 Z"/></g><g id="Ultralight-L" transform="matrix(1 0 0 1 491.205 1556)"><path d="M124.808 7.985 H92.235 Q92.235 7.179 92.195 6.211 Q92.154 5.244 92.235 4.438 H124.808 Q127.065 4.438 128.516 2.986 Q129.968 1.535 129.968 -0.722 V-69.737 Q129.968 -71.995 128.516 -73.446 Q127.065 -74.897 124.808 -74.897 H29.992 Q27.896 -74.897 26.364 -73.446 Q24.832 -71.995 24.832 -69.737 V-63.126 Q24.026 -63.046 23.112 -63.086 Q22.199 -63.126 21.285 -63.126 V-69.737 Q21.285 -73.204 23.905 -75.825 Q26.526 -78.445 29.992 -78.445 H124.808 Q128.399 -78.445 130.957 -75.825 Q133.515 -73.204 133.515 -69.737 V-0.722 Q133.515 2.744 130.957 5.365 Q128.399 7.985 124.808 7.985 Z M21.285 7.985 V-1.529 Q25.074 -1.529 27.856 1.3 Q30.637 4.128 30.637 7.985 H21.285 Z M47.73 7.985 Q47.73 -2.925 39.99 -10.693 Q32.25 -18.46 21.285 -18.621 V-22.169 Q33.805 -22.169 42.541 -13.399 Q51.278 -4.629 51.278 7.985 H47.73 Z M71.595 7.985 Q71.595 -2.465 67.644 -11.672 Q63.694 -20.879 56.921 -27.732 Q50.149 -34.585 40.971 -38.536 Q31.794 -42.486 21.285 -42.486 V-46.034 Q32.572 -46.034 42.358 -41.768 Q52.143 -37.502 59.421 -30.206 Q66.7 -22.91 70.921 -13.048 Q75.142 -3.186 75.142 7.985 H71.595 Z"/></g><g id="Bold-M" transform="matrix(1 0 0 1 2281.8 1126)"><path d="M98.5 9.02 H76.5 Q76.5 5.02 76.062 1.103 Q75.625 -2.813 74.75 -6.73 H98.5 Q98.5 -6.73 98.5 -6.73 Q98.5 -6.73 98.5 -6.73 V-63.73 Q98.5 -63.73 98.5 -63.73 Q98.5 -63.73 98.5 -63.73 H21.5 Q21.5 -63.73 21.5 -63.73 Q21.5 -63.73 21.5 -63.73 V-59.98 Q17.562 -60.855 13.625 -61.292 Q9.688 -61.73 5.75 -61.73 V-63.73 Q5.75 -70.355 10.312 -74.917 Q14.875 -79.48 21.5 -79.48 H98.5 Q105.125 -79.48 109.688 -74.917 Q114.25 -70.355 114.25 -63.73 V-6.73 Q114.25 -0.105 109.688 4.458 Q105.125 9.02 98.5 9.02 Z M5.75 9.02 V-7.98 Q12.833 -7.98 17.792 -3.022 Q22.75 1.937 22.75 9.02 H5.75 Z M32.75 9.02 Q32.75 -2.23 24.852 -10.105 Q16.955 -17.98 5.75 -17.98 V-29.855 Q22 -29.855 33.312 -18.54 Q44.625 -7.224 44.625 9.02 H32.75 Z M54.625 9.02 Q54.625 -1.105 50.812 -9.98 Q47 -18.855 40.312 -25.542 Q33.625 -32.23 24.762 -36.042 Q15.899 -39.855 5.75 -39.855 V-51.73 Q18.375 -51.73 29.411 -46.984 Q40.446 -42.238 48.723 -33.984 Q57 -25.73 61.75 -14.654 Q66.5 -3.579 66.5 9.02 H54.625 Z"/></g><g id="Semibold-M" transform="matrix(1 0 0 1 1985.97 1126)"><path d="M99.152 7.172 H75.848 Q75.848 3.824 75.519 0.524 Q75.19 -2.777 74.533 -6.078 H99.152 Q99.152 -6.078 99.152 -6.078 Q99.152 -6.078 99.152 -6.078 V-64.382 Q99.152 -64.382 99.152 -64.382 Q99.152 -64.382 99.152 -64.382 H20.848 Q20.848 -64.382 20.848 -64.382 Q20.848 -64.382 20.848 -64.382 V-59.763 Q17.535 -60.42 14.223 -60.749 Q10.91 -61.078 7.598 -61.078 V-64.382 Q7.598 -69.92 11.454 -73.776 Q15.31 -77.632 20.848 -77.632 H99.152 Q104.69 -77.632 108.546 -73.776 Q112.402 -69.92 112.402 -64.382 V-6.078 Q112.402 -0.54 108.546 3.316 Q104.69 7.172 99.152 7.172 Z M7.598 7.172 V-8.958 Q14.319 -8.958 19.023 -4.253 Q23.728 0.451 23.728 7.172 H7.598 Z M33.728 7.172 Q33.728 -3.697 26.085 -11.328 Q18.442 -18.958 7.598 -18.958 V-30.018 Q23.141 -30.018 33.965 -19.193 Q44.788 -8.368 44.788 7.172 H33.728 Z M54.788 7.172 Q54.788 -2.627 51.084 -11.203 Q47.38 -19.779 40.965 -26.195 Q34.549 -32.61 25.979 -36.314 Q17.41 -40.018 7.598 -40.018 V-51.078 Q19.679 -51.078 30.265 -46.52 Q40.85 -41.963 48.789 -34.037 Q56.728 -26.11 61.288 -15.502 Q65.848 -4.894 65.848 7.172 H54.788 Z"/></g><g id="Medium-M" transform="matrix(1 0 0 1 1689.91 1126)"><path d="M99.641 5.786 H75.359 Q75.359 2.928 75.111 0.089 Q74.864 -2.75 74.37 -5.589 H99.641 Q99.641 -5.589 99.641 -5.589 Q99.641 -5.589 99.641 -5.589 V-64.871 Q99.641 -64.871 99.641 -64.871 Q99.641 -64.871 99.641 -64.871 H20.359 Q20.359 -64.871 20.359 -64.871 Q20.359 -64.871 20.359 -64.871 V-59.6 Q17.515 -60.094 14.671 -60.341 Q11.827 -60.589 8.984 -60.589 V-64.871 Q8.984 -69.594 12.31 -72.92 Q15.636 -76.246 20.359 -76.246 H99.641 Q104.364 -76.246 107.69 -72.92 Q111.016 -69.594 111.016 -64.871 V-5.589 Q111.016 -0.866 107.69 2.46 Q104.364 5.786 99.641 5.786 Z M8.984 5.786 V-9.692 Q15.433 -9.692 19.948 -5.177 Q24.462 -0.663 24.462 5.786 H8.984 Z M34.462 5.786 Q34.462 -4.798 27.009 -12.245 Q19.557 -19.692 8.984 -19.692 V-30.14 Q23.997 -30.14 34.454 -19.683 Q44.91 -9.226 44.91 5.786 H34.462 Z M54.91 5.786 Q54.91 -3.768 51.288 -12.12 Q47.666 -20.472 41.454 -26.684 Q35.242 -32.896 26.893 -36.518 Q18.544 -40.14 8.984 -40.14 V-50.589 Q20.658 -50.589 30.905 -46.172 Q41.153 -41.756 48.839 -34.076 Q56.525 -26.396 60.942 -16.138 Q65.359 -5.881 65.359 5.786 H54.91 Z"/></g><g id="Regular-M" transform="matrix(1 0 0 1 1394.06 1126)"><path d="M100 4.77 H75 Q75 2.27 74.812 -0.23 Q74.625 -2.73 74.25 -5.23 H100 Q100 -5.23 100 -5.23 Q100 -5.23 100 -5.23 V-65.23 Q100 -65.23 100 -65.23 Q100 -65.23 100 -65.23 H20 Q20 -65.23 20 -65.23 Q20 -65.23 20 -65.23 V-59.48 Q17.5 -59.855 15 -60.042 Q12.5 -60.23 10 -60.23 V-65.23 Q10 -69.355 12.938 -72.292 Q15.875 -75.23 20 -75.23 H100 Q104.125 -75.23 107.062 -72.292 Q110 -69.355 110 -65.23 V-5.23 Q110 -1.105 107.062 1.833 Q104.125 4.77 100 4.77 Z M10 4.77 V-10.23 Q16.25 -10.23 20.625 -5.855 Q25 -1.48 25 4.77 H10 Z M35 4.77 Q35 -5.605 27.688 -12.917 Q20.375 -20.23 10 -20.23 V-30.23 Q24.625 -30.23 34.812 -20.042 Q45 -9.855 45 4.77 H35 Z M55 4.77 Q55 -4.605 51.438 -12.792 Q47.875 -20.98 41.812 -27.042 Q35.75 -33.105 27.562 -36.667 Q19.375 -40.23 10 -40.23 V-50.23 Q21.375 -50.23 31.375 -45.917 Q41.375 -41.605 48.875 -34.105 Q56.375 -26.605 60.688 -16.605 Q65 -6.605 65 4.77 H55 Z"/></g><g id="Light-M" transform="matrix(1 0 0 1 1098.18 1126)"><path d="M98.461 2.27 H73.654 Q73.654 0.395 73.526 -1.48 Q73.399 -3.355 73.144 -5.23 H98.461 Q99.135 -5.23 99.567 -5.663 Q100 -6.095 100 -6.769 V-63.691 Q100 -64.364 99.567 -64.797 Q99.135 -65.23 98.461 -65.23 H21.539 Q20.866 -65.23 20.433 -64.797 Q20 -64.364 20 -63.691 V-58.374 Q18.125 -58.629 16.25 -58.756 Q14.375 -58.884 12.5 -58.884 V-63.691 Q12.5 -67.42 15.155 -70.075 Q17.81 -72.73 21.539 -72.73 H98.461 Q102.19 -72.73 104.845 -70.075 Q107.5 -67.42 107.5 -63.691 V-6.769 Q107.5 -3.04 104.845 -0.385 Q102.19 2.27 98.461 2.27 Z M12.5 2.27 V-10.038 Q17.596 -10.038 21.202 -6.432 Q24.808 -2.826 24.808 2.27 H12.5 Z M35.769 2.27 Q35.769 -7.384 28.962 -14.143 Q22.154 -20.903 12.5 -20.999 V-28.499 Q25.346 -28.499 34.308 -19.543 Q43.269 -10.587 43.269 2.27 H35.769 Z M55.192 2.27 Q55.192 -6.615 51.822 -14.374 Q48.452 -22.134 42.678 -27.908 Q36.904 -33.682 29.145 -37.052 Q21.385 -40.422 12.5 -40.422 V-47.922 Q22.914 -47.922 32.032 -43.99 Q41.15 -40.058 47.989 -33.219 Q54.828 -26.38 58.76 -17.262 Q62.692 -8.144 62.692 2.27 H55.192 Z"/></g><g id="Thin-M" transform="matrix(1 0 0 1 802.565 1126)"><path d="M96.923 -0.23 H72.308 Q72.308 -1.48 72.24 -2.73 Q72.173 -3.98 72.038 -5.23 H96.923 Q98.269 -5.23 99.135 -6.095 Q100 -6.961 100 -8.307 V-62.153 Q100 -63.499 99.135 -64.365 Q98.269 -65.23 96.923 -65.23 H23.077 Q21.731 -65.23 20.865 -64.365 Q20 -63.499 20 -62.153 V-57.268 Q18.75 -57.403 17.5 -57.47 Q16.25 -57.538 15 -57.538 V-62.153 Q15 -65.485 17.373 -67.857 Q19.745 -70.23 23.077 -70.23 H96.923 Q100.255 -70.23 102.627 -67.857 Q105 -65.485 105 -62.153 V-8.307 Q105 -4.975 102.627 -2.603 Q100.255 -0.23 96.923 -0.23 Z M15 -0.23 V-9.845 Q18.942 -9.845 21.779 -7.009 Q24.615 -4.172 24.615 -0.23 H15 Z M36.538 -0.23 Q36.538 -9.163 30.235 -15.369 Q23.933 -21.576 15 -21.768 V-26.768 Q26.067 -26.768 33.803 -19.044 Q41.538 -11.319 41.538 -0.23 H36.538 Z M55.385 -0.23 Q55.385 -8.625 52.207 -15.956 Q49.029 -23.288 43.543 -28.773 Q38.058 -34.259 30.726 -37.437 Q23.395 -40.615 15 -40.615 V-45.615 Q24.452 -45.615 32.689 -42.062 Q40.925 -38.51 47.103 -32.333 Q53.281 -26.155 56.833 -17.919 Q60.385 -9.682 60.385 -0.23 H55.385 Z"/></g><g id="Ultralight-M" transform="matrix(1 0 0 1 506.415 1126)"><path d="M96 -1.73 H71.5 Q71.5 -2.605 71.469 -3.48 Q71.438 -4.355 71.375 -5.23 H96 Q97.75 -5.23 98.875 -6.355 Q100 -7.48 100 -9.23 V-61.23 Q100 -62.98 98.875 -64.105 Q97.75 -65.23 96 -65.23 H24 Q22.25 -65.23 21.125 -64.105 Q20 -62.98 20 -61.23 V-56.605 Q19.125 -56.667 18.25 -56.699 Q17.375 -56.73 16.5 -56.73 V-61.23 Q16.5 -64.324 18.703 -66.527 Q20.906 -68.73 24 -68.73 H96 Q99.094 -68.73 101.297 -66.527 Q103.5 -64.324 103.5 -61.23 V-9.23 Q103.5 -6.136 101.297 -3.933 Q99.094 -1.73 96 -1.73 Z M16.5 -1.73 V-9.73 Q19.75 -9.73 22.125 -7.355 Q24.5 -4.98 24.5 -1.73 H16.5 Z M37 -1.73 Q37 -10.23 31 -16.105 Q25 -21.98 16.5 -22.23 V-25.73 Q26.5 -25.73 33.5 -18.744 Q40.5 -11.759 40.5 -1.73 H37 Z M55.5 -1.73 Q55.5 -9.831 52.438 -16.905 Q49.375 -23.98 44.062 -29.292 Q38.75 -34.605 31.675 -37.667 Q24.601 -40.73 16.5 -40.73 V-44.23 Q25.375 -44.23 33.083 -40.906 Q40.791 -37.582 46.571 -31.801 Q52.352 -26.02 55.676 -18.313 Q59 -10.605 59 -1.73 H55.5 Z"/></g><g id="Bold-S" transform="matrix(1 0 0 1 2294.23 696)"><path d="M76.928 -3.473 H55.625 Q55.625 -6.431 55.279 -9.324 Q54.934 -12.218 54.244 -15.11 H76.928 Q76.928 -15.11 76.928 -15.11 Q76.928 -15.11 76.928 -15.11 V-55.349 Q76.928 -55.349 76.928 -55.349 Q76.928 -55.349 76.928 -55.349 H17.753 Q17.753 -55.349 17.753 -55.349 Q17.753 -55.349 17.753 -55.349 V-51.602 Q14.843 -52.292 11.934 -52.637 Q9.024 -52.982 6.115 -52.982 V-55.349 Q6.115 -60.251 9.483 -63.619 Q12.851 -66.987 17.753 -66.987 H76.928 Q81.829 -66.987 85.197 -63.618 Q88.565 -60.249 88.565 -55.346 V-15.083 Q88.565 -10.179 85.197 -6.826 Q81.829 -3.473 76.928 -3.473 Z M6.115 -3.473 V-14.519 Q10.717 -14.519 13.939 -11.297 Q17.161 -8.075 17.161 -3.473 H6.115 Z M24.262 -3.473 Q24.262 -11.067 18.954 -16.343 Q13.646 -21.62 6.115 -21.62 V-30.2 Q17.259 -30.2 25.051 -22.421 Q32.842 -14.641 32.842 -3.473 H24.262 Z M39.943 -3.473 Q39.943 -10.456 37.33 -16.58 Q34.716 -22.705 30.031 -27.389 Q25.347 -32.074 19.232 -34.688 Q13.117 -37.301 6.115 -37.301 V-45.881 Q14.991 -45.881 22.681 -42.576 Q30.371 -39.27 36.138 -33.52 Q41.905 -27.771 45.214 -20.05 Q48.524 -12.328 48.524 -3.473 H39.943 Z"/></g><g id="Semibold-S" transform="matrix(1 0 0 1 1998.1 696)"><path d="M77.442 -4.931 H55.11 Q55.11 -7.375 54.85 -9.782 Q54.591 -12.189 54.072 -14.596 H77.442 Q77.442 -14.596 77.442 -14.596 Q77.442 -14.596 77.442 -14.596 V-55.864 Q77.442 -55.864 77.442 -55.864 Q77.442 -55.864 77.442 -55.864 H17.238 Q17.238 -55.864 17.238 -55.864 Q17.238 -55.864 17.238 -55.864 V-51.43 Q14.822 -51.949 12.405 -52.208 Q9.989 -52.468 7.573 -52.468 V-55.864 Q7.573 -59.908 10.383 -62.719 Q13.194 -65.529 17.238 -65.529 H77.442 Q81.486 -65.529 84.297 -62.718 Q87.107 -59.906 87.107 -55.86 V-14.568 Q87.107 -10.522 84.297 -7.726 Q81.486 -4.931 77.442 -4.931 Z M7.573 -4.931 V-15.291 Q11.889 -15.291 14.911 -12.269 Q17.933 -9.247 17.933 -4.931 H7.573 Z M25.034 -4.931 Q25.034 -12.225 19.926 -17.308 Q14.819 -22.392 7.573 -22.392 V-30.329 Q18.16 -30.329 25.565 -22.936 Q32.971 -15.543 32.971 -4.931 H25.034 Z M40.072 -4.931 Q40.072 -11.657 37.544 -17.545 Q35.016 -23.434 30.546 -27.904 Q26.076 -32.374 20.192 -34.902 Q14.309 -37.43 7.573 -37.43 V-45.367 Q16.02 -45.367 23.355 -42.21 Q30.689 -39.053 36.19 -33.562 Q41.691 -28.071 44.85 -20.719 Q48.009 -13.366 48.009 -4.931 H40.072 Z"/></g><g id="Medium-S" transform="matrix(1 0 0 1 1701.85 696)"><path d="M77.828 -6.024 H54.724 Q54.724 -8.082 54.529 -10.125 Q54.334 -12.167 53.944 -14.21 H77.828 Q77.828 -14.21 77.828 -14.21 Q77.828 -14.21 77.828 -14.21 V-56.25 Q77.828 -56.25 77.828 -56.25 Q77.828 -56.25 77.828 -56.25 H16.852 Q16.852 -56.25 16.852 -56.25 Q16.852 -56.25 16.852 -56.25 V-51.302 Q14.806 -51.692 12.759 -51.887 Q10.713 -52.082 8.666 -52.082 V-56.25 Q8.666 -59.651 11.059 -62.043 Q13.451 -64.436 16.852 -64.436 H77.828 Q81.229 -64.436 83.621 -62.042 Q86.014 -59.648 86.014 -56.246 V-14.182 Q86.014 -10.78 83.621 -8.402 Q81.229 -6.024 77.828 -6.024 Z M8.666 -6.024 V-15.87 Q12.768 -15.87 15.64 -12.998 Q18.512 -10.126 18.512 -6.024 H8.666 Z M25.613 -6.024 Q25.613 -13.093 20.656 -18.032 Q15.699 -22.971 8.666 -22.971 V-30.425 Q18.835 -30.425 25.951 -23.323 Q33.067 -16.22 33.067 -6.024 H25.613 Z M40.168 -6.024 Q40.168 -12.557 37.705 -18.269 Q35.241 -23.98 30.932 -28.29 Q26.622 -32.599 20.913 -35.063 Q15.204 -37.526 8.666 -37.526 V-44.981 Q16.792 -44.981 23.86 -41.935 Q30.928 -38.89 36.229 -33.593 Q41.53 -28.296 44.577 -21.221 Q47.623 -14.145 47.623 -6.024 H40.168 Z"/></g><g id="Regular-S" transform="matrix(1 0 0 1 1405.73 696)"><path d="M78.111 -6.826 H54.441 Q54.441 -8.601 54.293 -10.376 Q54.145 -12.152 53.849 -13.927 H78.111 Q78.111 -13.927 78.111 -13.927 Q78.111 -13.927 78.111 -13.927 V-56.533 Q78.111 -56.533 78.111 -56.533 Q78.111 -56.533 78.111 -56.533 H16.569 Q16.569 -56.533 16.569 -56.533 Q16.569 -56.533 16.569 -56.533 V-51.207 Q14.794 -51.503 13.019 -51.651 Q11.243 -51.799 9.468 -51.799 V-56.533 Q9.468 -59.462 11.554 -61.548 Q13.64 -63.634 16.569 -63.634 H78.111 Q81.04 -63.634 83.126 -61.547 Q85.212 -59.46 85.212 -56.529 V-13.899 Q85.212 -10.968 83.126 -8.897 Q81.04 -6.826 78.111 -6.826 Z M9.468 -6.826 V-16.294 Q13.413 -16.294 16.175 -13.532 Q18.936 -10.771 18.936 -6.826 H9.468 Z M26.037 -6.826 Q26.037 -13.73 21.191 -18.562 Q16.344 -23.395 9.468 -23.395 V-30.496 Q19.331 -30.496 26.234 -23.606 Q33.138 -16.717 33.138 -6.826 H26.037 Z M40.239 -6.826 Q40.239 -13.217 37.823 -18.799 Q35.406 -24.381 31.215 -28.573 Q27.023 -32.764 21.441 -35.181 Q15.859 -37.597 9.468 -37.597 V-44.698 Q17.358 -44.698 24.231 -41.734 Q31.103 -38.77 36.258 -33.616 Q41.412 -28.461 44.376 -21.589 Q47.34 -14.716 47.34 -6.826 H40.239 Z"/></g><g id="Light-S" transform="matrix(1 0 0 1 1109.75 696)"><path d="M76.897 -8.799 H53.379 Q53.379 -10.081 53.278 -11.363 Q53.178 -12.645 52.977 -13.927 H76.897 Q77.428 -13.927 77.77 -14.268 Q78.111 -14.61 78.111 -15.141 V-55.319 Q78.111 -55.85 77.77 -56.192 Q77.428 -56.533 76.897 -56.533 H17.783 Q17.252 -56.533 16.91 -56.192 Q16.569 -55.85 16.569 -55.319 V-50.335 Q15.287 -50.536 14.005 -50.636 Q12.723 -50.737 11.441 -50.737 V-55.319 Q11.441 -57.935 13.304 -59.798 Q15.167 -61.661 17.783 -61.661 H76.897 Q79.513 -61.661 81.376 -59.797 Q83.239 -57.933 83.239 -55.315 V-15.113 Q83.239 -12.495 81.376 -10.647 Q79.513 -8.799 76.897 -8.799 Z M11.441 -8.799 V-16.142 Q14.475 -16.142 16.63 -13.988 Q18.784 -11.833 18.784 -8.799 H11.441 Z M26.644 -8.799 Q26.644 -15.133 22.196 -19.53 Q17.748 -23.926 11.441 -24.002 V-29.13 Q19.9 -29.13 25.836 -23.212 Q31.772 -17.294 31.772 -8.799 H26.644 Z M40.391 -8.799 Q40.391 -14.803 38.126 -20.048 Q35.862 -25.292 31.898 -29.256 Q27.934 -33.22 22.69 -35.484 Q17.445 -37.749 11.441 -37.749 V-42.877 Q18.572 -42.877 24.749 -40.213 Q30.926 -37.549 35.559 -32.917 Q40.191 -28.284 42.855 -22.107 Q45.519 -15.93 45.519 -8.799 H40.391 Z"/></g><g id="Thin-S" transform="matrix(1 0 0 1 814.015 696)"><path d="M75.683 -10.771 H52.317 Q52.317 -11.56 52.264 -12.349 Q52.211 -13.138 52.104 -13.927 H75.683 Q76.745 -13.927 77.428 -14.61 Q78.111 -15.293 78.111 -16.355 V-54.105 Q78.111 -55.167 77.428 -55.85 Q76.745 -56.533 75.683 -56.533 H18.997 Q17.935 -56.533 17.252 -55.85 Q16.569 -55.167 16.569 -54.105 V-49.462 Q15.78 -49.569 14.991 -49.622 Q14.202 -49.675 13.413 -49.675 V-54.105 Q13.413 -56.409 15.053 -58.049 Q16.693 -59.689 18.997 -59.689 H75.683 Q77.987 -59.689 79.627 -58.048 Q81.267 -56.406 81.267 -54.101 V-16.327 Q81.267 -14.022 79.627 -12.396 Q77.987 -10.771 75.683 -10.771 Z M13.413 -10.771 V-15.991 Q15.537 -15.991 17.085 -14.443 Q18.633 -12.895 18.633 -10.771 H13.413 Z M27.251 -10.771 Q27.251 -16.537 23.201 -20.497 Q19.151 -24.457 13.413 -24.609 V-27.765 Q20.468 -27.765 25.438 -22.818 Q30.407 -17.872 30.407 -10.771 H27.251 Z M40.542 -10.771 Q40.542 -16.389 38.43 -21.296 Q36.317 -26.202 32.58 -29.938 Q28.844 -33.675 23.938 -35.788 Q19.031 -37.9 13.413 -37.9 V-41.056 Q19.786 -41.056 25.267 -38.693 Q30.749 -36.329 34.86 -32.218 Q38.971 -28.107 41.335 -22.625 Q43.698 -17.144 43.698 -10.771 H40.542 Z"/></g><g id="Ultralight-S" transform="matrix(1 0 0 1 517.792 696)"><path d="M74.955 -11.954 H51.68 Q51.68 -12.448 51.655 -12.941 Q51.63 -13.434 51.581 -13.927 H74.955 Q76.336 -13.927 77.223 -14.815 Q78.111 -15.702 78.111 -17.083 V-53.377 Q78.111 -54.758 77.223 -55.645 Q76.336 -56.533 74.955 -56.533 H19.725 Q18.344 -56.533 17.457 -55.645 Q16.569 -54.758 16.569 -53.377 V-48.939 Q16.076 -48.988 15.583 -49.013 Q15.09 -49.037 14.597 -49.037 V-53.377 Q14.597 -55.493 16.103 -56.999 Q17.609 -58.505 19.725 -58.505 H74.955 Q77.071 -58.505 78.577 -56.998 Q80.084 -55.49 80.084 -53.373 V-17.055 Q80.084 -14.938 78.577 -13.446 Q77.071 -11.954 74.955 -11.954 Z M14.597 -11.954 V-15.899 Q16.175 -15.899 17.358 -14.716 Q18.541 -13.532 18.541 -11.954 H14.597 Z M27.615 -11.954 Q27.615 -17.379 23.804 -21.077 Q19.993 -24.776 14.597 -24.973 V-26.945 Q20.81 -26.945 25.199 -22.582 Q29.588 -18.219 29.588 -11.954 H27.615 Z M40.634 -11.954 Q40.634 -17.341 38.612 -22.044 Q36.59 -26.748 32.99 -30.348 Q29.39 -33.948 24.686 -35.97 Q19.983 -37.991 14.597 -37.991 V-39.964 Q20.514 -39.964 25.578 -37.78 Q30.642 -35.596 34.44 -31.798 Q38.238 -28 40.422 -22.936 Q42.606 -17.872 42.606 -11.954 H40.634 Z"/></g></g></svg>