<svg xmlns="http://www.w3.org/2000/svg" version="1.1" width="3300" height="2000"><g id="Notes"><style>
    text {
      font-family: monospace;
      text-anchor: middle;
    }
    text.emphasis {
      font-weight:bold;
    }
    text.lanchor {
      text-anchor: start;
    }
  </style><rect height="2200" id="artboard" fill="white" width="3300" x="0" y="0"/><line id="" style="fill:none;stroke:black;stroke-width:0.5;" x1="263" x2="3036" y1="292" y2="292"/><text class="lanchor emphasis" transform="matrix(1 0 0 1 263 322)">Weight/Scale Variations</text><text transform="matrix(1 0 0 1 559.711 322)">Ultralight</text><text transform="matrix(1 0 0 1 856.422 322)">Thin</text><text transform="matrix(1 0 0 1 1153.13 322)">Light</text><text transform="matrix(1 0 0 1 1449.84 322)">Regular</text><text transform="matrix(1 0 0 1 1746.56 322)">Medium</text><text transform="matrix(1 0 0 1 2043.27 322)">Semibold</text><text transform="matrix(1 0 0 1 2339.98 322)">Bold</text><text transform="matrix(1 0 0 1 2636.69 322)">Heavy</text><text transform="matrix(1 0 0 1 2933.4 322)">Black</text><text id="template-version" style="text-anchor: end;" transform="matrix(1 0 0 1 3036 1933)">Template v.1.0</text><text class="lanchor" transform="matrix(1 0 0 1 263 726)">Small</text><text class="lanchor" transform="matrix(1 0 0 1 263 1156)">Medium</text><text class="lanchor" transform="matrix(1 0 0 1 263 1586)">Large</text></g><g id="Guides"><g id="H-reference" style="fill:#27AAE1;stroke:none;" transform="matrix(1 0 0 1 339 696)"><path d="M 54.9316 0 L 57.666 0 L 30.5664 -70.459 L 28.0762 -70.459 L 0.976562 0 L 3.66211 0 L 12.9395 -24.4629 L 45.7031 -24.4629 Z M 29.1992 -67.0898 L 29.4434 -67.0898 L 44.8242 -26.709 L 13.8184 -26.709 Z"/></g><line id="Baseline-S" style="fill:none;stroke:#27AAE1;opacity:1;stroke-width:0.577;" x1="263" x2="3036" y1="696" y2="696"/><line id="Capline-S" style="fill:none;stroke:#27AAE1;opacity:1;stroke-width:0.577;" x1="263" x2="3036" y1="625.541" y2="625.541"/><g id="H-reference" style="fill:#27AAE1;stroke:none;" transform="matrix(1 0 0 1 339 1126)"><path d="M 54.9316 0 L 57.666 0 L 30.5664 -70.459 L 28.0762 -70.459 L 0.976562 0 L 3.66211 0 L 12.9395 -24.4629 L 45.7031 -24.4629 Z M 29.1992 -67.0898 L 29.4434 -67.0898 L 44.8242 -26.709 L 13.8184 -26.709 Z"/></g><line id="Baseline-M" style="fill:none;stroke:#27AAE1;opacity:1;stroke-width:0.577;" x1="263" x2="3036" y1="1126" y2="1126"/><line id="Capline-M" style="fill:none;stroke:#27AAE1;opacity:1;stroke-width:0.577;" x1="263" x2="3036" y1="1055.54" y2="1055.54"/><g id="H-reference" style="fill:#27AAE1;stroke:none;" transform="matrix(1 0 0 1 339 1556)"><path d="M 54.9316 0 L 57.666 0 L 30.5664 -70.459 L 28.0762 -70.459 L 0.976562 0 L 3.66211 0 L 12.9395 -24.4629 L 45.7031 -24.4629 Z M 29.1992 -67.0898 L 29.4434 -67.0898 L 44.8242 -26.709 L 13.8184 -26.709 Z"/></g><line id="Baseline-L" style="fill:none;stroke:#27AAE1;opacity:1;stroke-width:0.577;" x1="263" x2="3036" y1="1556" y2="1556"/><line id="Capline-L" style="fill:none;stroke:#27AAE1;opacity:1;stroke-width:0.577;" x1="263" x2="3036" y1="1485.54" y2="1485.54"/><rect height="119.336" id="left-margin" style="fill:darkred;stroke:none;opacity:0.4;" width="12.4512" x="1394.06" y="1030.79"/><rect height="119.336" id="right-margin" style="fill:darkgreen;stroke:none;opacity:0.4;" width="12.4512" x="1502.5112" y="1030.79"/><rect x="1406.5112" y="1045" width="96" height="96" fill="none" stroke="blue" stroke-dasharray="5"/><rect x="1394.06" y="1030.79" width="120.9024" height="119.336" fill="none" stroke="blue"/></g><g id="Symbols"><g id="Bold-L" transform="matrix(1 0 0 1 2266 1556)"><path d="M77.498 21.853 Q73.53 21.853 70.708 19.051 Q67.886 16.25 67.886 12.316 Q67.886 8.533 70.676 5.599 Q73.466 2.664 77.383 2.664 Q81.431 2.664 84.172 5.601 Q86.914 8.539 86.914 12.374 Q86.914 16.209 84.19 19.031 Q81.465 21.853 77.498 21.853 Z M77.498 -25.716 Q73.53 -25.716 70.708 -28.506 Q67.886 -31.295 67.886 -35.213 Q67.886 -39.261 70.676 -42.002 Q73.466 -44.744 77.383 -44.744 Q81.431 -44.744 84.172 -42.02 Q86.914 -39.295 86.914 -35.328 Q86.914 -31.36 84.19 -28.538 Q81.465 -25.716 77.498 -25.716 Z M77.498 -73.124 Q73.53 -73.124 70.708 -75.974 Q67.886 -78.825 67.886 -82.827 Q67.886 -86.83 70.676 -89.652 Q73.466 -92.474 77.383 -92.474 Q81.431 -92.474 84.172 -89.629 Q86.914 -86.784 86.914 -82.782 Q86.914 -78.779 84.19 -75.951 Q81.465 -73.124 77.498 -73.124 Z"/></g><g id="Semibold-L" transform="matrix(1 0 0 1 1970.27 1556)"><path d="M77.445 19.469 Q73.81 19.469 71.234 16.894 Q68.657 14.319 68.657 10.704 Q68.657 7.173 71.226 4.533 Q73.794 1.893 77.4 1.893 Q81.081 1.893 83.612 4.544 Q86.143 7.196 86.143 10.756 Q86.143 14.316 83.611 16.892 Q81.08 19.469 77.445 19.469 Z M77.445 -26.487 Q73.81 -26.487 71.234 -29.056 Q68.657 -31.624 68.657 -35.23 Q68.657 -38.911 71.226 -41.442 Q73.794 -43.973 77.4 -43.973 Q81.081 -43.973 83.612 -41.441 Q86.143 -38.91 86.143 -35.275 Q86.143 -31.64 83.611 -29.064 Q81.08 -26.487 77.445 -26.487 Z M77.445 -72.353 Q73.81 -72.353 71.234 -74.955 Q68.657 -77.558 68.657 -81.212 Q68.657 -84.867 71.226 -87.444 Q73.794 -90.02 77.4 -90.02 Q81.081 -90.02 83.612 -87.421 Q86.143 -84.821 86.143 -81.167 Q86.143 -77.512 83.611 -74.932 Q81.08 -72.353 77.445 -72.353 Z"/></g><g id="Medium-L" transform="matrix(1 0 0 1 1674.31 1556)"><path d="M77.406 17.681 Q74.021 17.681 71.628 15.276 Q69.236 12.871 69.236 9.494 Q69.236 6.153 71.638 3.734 Q74.04 1.314 77.413 1.314 Q80.818 1.314 83.191 3.752 Q85.564 6.189 85.564 9.543 Q85.564 12.896 83.178 15.289 Q80.791 17.681 77.406 17.681 Z M77.406 -27.066 Q74.021 -27.066 71.628 -29.468 Q69.236 -31.87 69.236 -35.243 Q69.236 -38.648 71.638 -41.021 Q74.04 -43.394 77.413 -43.394 Q80.818 -43.394 83.191 -41.008 Q85.564 -38.621 85.564 -35.236 Q85.564 -31.851 83.178 -29.458 Q80.791 -27.066 77.406 -27.066 Z M77.406 -71.774 Q74.021 -71.774 71.628 -74.191 Q69.236 -76.608 69.236 -80.001 Q69.236 -83.395 71.638 -85.787 Q74.04 -88.18 77.413 -88.18 Q80.818 -88.18 83.191 -85.764 Q85.564 -83.349 85.564 -79.955 Q85.564 -76.562 83.178 -74.168 Q80.791 -71.774 77.406 -71.774 Z"/></g><g id="Regular-L" transform="matrix(1 0 0 1 1378.56 1556)"><path d="M77.377 16.37 Q74.175 16.37 71.918 14.09 Q69.66 11.809 69.66 8.607 Q69.66 5.405 71.94 3.148 Q74.221 0.89 77.423 0.89 Q80.625 0.89 82.883 3.17 Q85.14 5.451 85.14 8.653 Q85.14 11.855 82.86 14.113 Q80.579 16.37 77.377 16.37 Z M77.377 -27.49 Q74.175 -27.49 71.918 -29.77 Q69.66 -32.051 69.66 -35.253 Q69.66 -38.455 71.94 -40.712 Q74.221 -42.97 77.423 -42.97 Q80.625 -42.97 82.883 -40.69 Q85.14 -38.409 85.14 -35.207 Q85.14 -32.005 82.86 -29.747 Q80.579 -27.49 77.377 -27.49 Z M77.377 -71.35 Q74.175 -71.35 71.918 -73.63 Q69.66 -75.911 69.66 -79.113 Q69.66 -82.315 71.94 -84.572 Q74.221 -86.83 77.423 -86.83 Q80.625 -86.83 82.883 -84.55 Q85.14 -82.269 85.14 -79.067 Q85.14 -75.865 82.86 -73.607 Q80.579 -71.35 77.377 -71.35 Z"/></g><g id="Light-L" transform="matrix(1 0 0 1 1082.77 1556)"><path d="M77.38 11.656 Q74.947 11.656 73.234 9.923 Q71.521 8.191 71.521 5.757 Q71.521 3.324 73.253 1.58 Q74.986 -0.164 77.42 -0.164 Q79.853 -0.164 81.566 1.588 Q83.279 3.34 83.279 5.8 Q83.279 8.234 81.547 9.945 Q79.814 11.656 77.38 11.656 Z M77.38 -29.351 Q74.947 -29.351 73.234 -31.083 Q71.521 -32.816 71.521 -35.25 Q71.521 -37.683 73.253 -39.396 Q74.986 -41.109 77.42 -41.109 Q79.853 -41.109 81.566 -39.377 Q83.279 -37.644 83.279 -35.21 Q83.279 -32.777 81.547 -31.064 Q79.814 -29.351 77.38 -29.351 Z M77.38 -70.296 Q74.947 -70.296 73.234 -72.048 Q71.521 -73.8 71.521 -76.26 Q71.521 -78.694 73.253 -80.405 Q74.986 -82.116 77.42 -82.116 Q79.853 -82.116 81.566 -80.383 Q83.279 -78.651 83.279 -76.217 Q83.279 -73.784 81.547 -72.04 Q79.814 -70.296 77.38 -70.296 Z"/></g><g id="Thin-L" transform="matrix(1 0 0 1 787.282 1556)"><path d="M77.384 6.943 Q75.719 6.943 74.55 5.758 Q73.381 4.572 73.381 2.908 Q73.381 1.243 74.567 0.012 Q75.752 -1.219 77.416 -1.219 Q79.081 -1.219 80.25 0.005 Q81.419 1.229 81.419 2.947 Q81.419 4.614 80.233 5.779 Q79.048 6.943 77.384 6.943 Z M77.384 -31.211 Q75.719 -31.211 74.55 -32.397 Q73.381 -33.582 73.381 -35.246 Q73.381 -36.911 74.567 -38.08 Q75.752 -39.249 77.416 -39.249 Q79.081 -39.249 80.25 -38.063 Q81.419 -36.878 81.419 -35.214 Q81.419 -33.549 80.233 -32.38 Q79.048 -31.211 77.384 -31.211 Z M77.384 -69.241 Q75.719 -69.241 74.55 -70.465 Q73.381 -71.689 73.381 -73.407 Q73.381 -75.074 74.567 -76.239 Q75.752 -77.403 77.416 -77.403 Q79.081 -77.403 80.25 -76.218 Q81.419 -75.032 81.419 -73.368 Q81.419 -71.703 80.233 -70.472 Q79.048 -69.241 77.384 -69.241 Z"/></g><g id="Ultralight-L" transform="matrix(1 0 0 1 491.205 1556)"><path d="M77.386 4.115 Q76.183 4.115 75.34 3.258 Q74.498 2.401 74.498 1.198 Q74.498 -0.005 75.354 -0.928 Q76.211 -1.851 77.414 -1.851 Q78.617 -1.851 79.46 -0.945 Q80.303 -0.038 80.303 1.235 Q80.303 2.442 79.446 3.278 Q78.589 4.115 77.386 4.115 Z M77.386 -32.327 Q76.183 -32.327 75.34 -33.184 Q74.498 -34.041 74.498 -35.244 Q74.498 -36.447 75.354 -37.29 Q76.211 -38.132 77.414 -38.132 Q78.617 -38.132 79.46 -37.276 Q80.303 -36.419 80.303 -35.216 Q80.303 -34.013 79.446 -33.17 Q78.589 -32.327 77.386 -32.327 Z M77.386 -68.609 Q76.183 -68.609 75.34 -69.515 Q74.498 -70.422 74.498 -71.695 Q74.498 -72.902 75.354 -73.738 Q76.211 -74.575 77.414 -74.575 Q78.617 -74.575 79.46 -73.718 Q80.303 -72.861 80.303 -71.658 Q80.303 -70.455 79.446 -69.532 Q78.589 -68.609 77.386 -68.609 Z"/></g><g id="Bold-M" transform="matrix(1 0 0 1 2281.8 1126)"><path d="M60.062 10.52 Q55.125 10.52 51.625 7.032 Q48.125 3.544 48.125 -1.355 Q48.125 -6.305 51.613 -9.83 Q55.102 -13.355 60 -13.355 Q65 -13.355 68.438 -9.846 Q71.875 -6.336 71.875 -1.408 Q71.875 3.52 68.438 7.02 Q65 10.52 60.062 10.52 Z M60.062 -23.355 Q55.125 -23.355 51.625 -26.843 Q48.125 -30.331 48.125 -35.23 Q48.125 -40.23 51.613 -43.667 Q55.102 -47.105 60 -47.105 Q65 -47.105 68.438 -43.667 Q71.875 -40.23 71.875 -35.292 Q71.875 -30.355 68.438 -26.855 Q65 -23.355 60.062 -23.355 Z M60.062 -57.105 Q55.125 -57.105 51.625 -60.64 Q48.125 -64.176 48.125 -69.14 Q48.125 -74.105 51.613 -77.542 Q55.102 -80.98 60 -80.98 Q65 -80.98 68.438 -77.542 Q71.875 -74.105 71.875 -69.14 Q71.875 -64.176 68.438 -60.64 Q65 -57.105 60.062 -57.105 Z"/></g><g id="Semibold-M" transform="matrix(1 0 0 1 1985.97 1126)"><path d="M60.035 8.02 Q55.451 8.02 52.196 4.771 Q48.94 1.523 48.94 -3.04 Q48.94 -7.631 52.189 -10.901 Q55.438 -14.17 60 -14.17 Q64.62 -14.17 67.84 -10.909 Q71.06 -7.649 71.06 -3.07 Q71.06 1.509 67.84 4.765 Q64.62 8.02 60.035 8.02 Z M60.035 -24.17 Q55.451 -24.17 52.196 -27.419 Q48.94 -30.668 48.94 -35.23 Q48.94 -39.85 52.189 -43.07 Q55.438 -46.29 60 -46.29 Q64.62 -46.29 67.84 -43.07 Q71.06 -39.85 71.06 -35.265 Q71.06 -30.681 67.84 -27.426 Q64.62 -24.17 60.035 -24.17 Z M60.035 -56.29 Q55.451 -56.29 52.196 -59.565 Q48.94 -62.841 48.94 -67.44 Q48.94 -72.04 52.189 -75.26 Q55.438 -78.48 60 -78.48 Q64.62 -78.48 67.84 -75.26 Q71.06 -72.04 71.06 -67.44 Q71.06 -62.841 67.84 -59.565 Q64.62 -56.29 60.035 -56.29 Z"/></g><g id="Medium-M" transform="matrix(1 0 0 1 1689.91 1126)"><path d="M60.015 6.145 Q55.696 6.145 52.624 3.076 Q49.552 0.007 49.552 -4.303 Q49.552 -8.626 52.621 -11.704 Q55.69 -14.782 60 -14.782 Q64.334 -14.782 67.391 -11.707 Q70.448 -8.633 70.448 -4.316 Q70.448 0.001 67.391 3.073 Q64.334 6.145 60.015 6.145 Z M60.015 -24.782 Q55.696 -24.782 52.624 -27.851 Q49.552 -30.92 49.552 -35.23 Q49.552 -39.564 52.621 -42.621 Q55.69 -45.678 60 -45.678 Q64.334 -45.678 67.391 -42.621 Q70.448 -39.564 70.448 -35.245 Q70.448 -30.926 67.391 -27.854 Q64.334 -24.782 60.015 -24.782 Z M60.015 -55.678 Q55.696 -55.678 52.624 -58.759 Q49.552 -61.839 49.552 -66.165 Q49.552 -70.491 52.621 -73.548 Q55.69 -76.605 60 -76.605 Q64.334 -76.605 67.391 -73.548 Q70.448 -70.491 70.448 -66.165 Q70.448 -61.839 67.391 -58.759 Q64.334 -55.678 60.015 -55.678 Z"/></g><g id="Regular-M" transform="matrix(1 0 0 1 1394.06 1126)"><path d="M60 4.77 Q55.875 4.77 52.938 1.833 Q50 -1.105 50 -5.23 Q50 -9.355 52.938 -12.292 Q55.875 -15.23 60 -15.23 Q64.125 -15.23 67.062 -12.292 Q70 -9.355 70 -5.23 Q70 -1.105 67.062 1.833 Q64.125 4.77 60 4.77 Z M60 -25.23 Q55.875 -25.23 52.938 -28.167 Q50 -31.105 50 -35.23 Q50 -39.355 52.938 -42.292 Q55.875 -45.23 60 -45.23 Q64.125 -45.23 67.062 -42.292 Q70 -39.355 70 -35.23 Q70 -31.105 67.062 -28.167 Q64.125 -25.23 60 -25.23 Z M60 -55.23 Q55.875 -55.23 52.938 -58.167 Q50 -61.105 50 -65.23 Q50 -69.355 52.938 -72.292 Q55.875 -75.23 60 -75.23 Q64.125 -75.23 67.062 -72.292 Q70 -69.355 70 -65.23 Q70 -61.105 67.062 -58.167 Q64.125 -55.23 60 -55.23 Z"/></g><g id="Light-M" transform="matrix(1 0 0 1 1098.18 1126)"><path d="M60 1.116 Q56.906 1.116 54.703 -1.087 Q52.5 -3.29 52.5 -6.384 Q52.5 -9.478 54.703 -11.681 Q56.906 -13.884 60 -13.884 Q63.094 -13.884 65.297 -11.681 Q67.5 -9.478 67.5 -6.384 Q67.5 -3.29 65.297 -1.087 Q63.094 1.116 60 1.116 Z M60 -27.73 Q56.906 -27.73 54.703 -29.933 Q52.5 -32.136 52.5 -35.23 Q52.5 -38.324 54.703 -40.527 Q56.906 -42.73 60 -42.73 Q63.094 -42.73 65.297 -40.527 Q67.5 -38.324 67.5 -35.23 Q67.5 -32.136 65.297 -29.933 Q63.094 -27.73 60 -27.73 Z M60 -56.576 Q56.906 -56.576 54.703 -58.779 Q52.5 -60.982 52.5 -64.076 Q52.5 -67.17 54.703 -69.373 Q56.906 -71.576 60 -71.576 Q63.094 -71.576 65.297 -69.373 Q67.5 -67.17 67.5 -64.076 Q67.5 -60.982 65.297 -58.779 Q63.094 -56.576 60 -56.576 Z"/></g><g id="Thin-M" transform="matrix(1 0 0 1 802.565 1126)"><path d="M60 -2.538 Q57.938 -2.538 56.469 -4.006 Q55 -5.475 55 -7.538 Q55 -9.6 56.469 -11.069 Q57.938 -12.538 60 -12.538 Q62.062 -12.538 63.531 -11.069 Q65 -9.6 65 -7.538 Q65 -5.475 63.531 -4.006 Q62.062 -2.538 60 -2.538 Z M60 -30.23 Q57.938 -30.23 56.469 -31.699 Q55 -33.167 55 -35.23 Q55 -37.292 56.469 -38.761 Q57.938 -40.23 60 -40.23 Q62.062 -40.23 63.531 -38.761 Q65 -37.292 65 -35.23 Q65 -33.167 63.531 -31.699 Q62.062 -30.23 60 -30.23 Z M60 -57.922 Q57.938 -57.922 56.469 -59.391 Q55 -60.86 55 -62.922 Q55 -64.985 56.469 -66.454 Q57.938 -67.922 60 -67.922 Q62.062 -67.922 63.531 -66.454 Q65 -64.985 65 -62.922 Q65 -60.86 63.531 -59.391 Q62.062 -57.922 60 -57.922 Z"/></g><g id="Ultralight-M" transform="matrix(1 0 0 1 506.415 1126)"><path d="M60 -4.73 Q58.556 -4.73 57.528 -5.758 Q56.5 -6.786 56.5 -8.23 Q56.5 -9.674 57.528 -10.702 Q58.556 -11.73 60 -11.73 Q61.444 -11.73 62.472 -10.702 Q63.5 -9.674 63.5 -8.23 Q63.5 -6.786 62.472 -5.758 Q61.444 -4.73 60 -4.73 Z M60 -31.73 Q58.556 -31.73 57.528 -32.758 Q56.5 -33.786 56.5 -35.23 Q56.5 -36.674 57.528 -37.702 Q58.556 -38.73 60 -38.73 Q61.444 -38.73 62.472 -37.702 Q63.5 -36.674 63.5 -35.23 Q63.5 -33.786 62.472 -32.758 Q61.444 -31.73 60 -31.73 Z M60 -58.73 Q58.556 -58.73 57.528 -59.758 Q56.5 -60.786 56.5 -62.23 Q56.5 -63.674 57.528 -64.702 Q58.556 -65.73 60 -65.73 Q61.444 -65.73 62.472 -64.702 Q63.5 -63.674 63.5 -62.23 Q63.5 -60.786 62.472 -59.758 Q61.444 -58.73 60 -58.73 Z"/></g><g id="Bold-S" transform="matrix(1 0 0 1 2294.23 696)"><path d="M47.368 -2.289 Q43.79 -2.289 41.275 -4.816 Q38.76 -7.342 38.76 -10.891 Q38.76 -14.479 41.286 -17.014 Q43.813 -19.549 47.361 -19.549 Q50.989 -19.549 53.455 -17.005 Q55.92 -14.462 55.92 -10.891 Q55.92 -7.319 53.434 -4.804 Q50.947 -2.289 47.368 -2.289 Z M47.368 -26.65 Q43.79 -26.65 41.275 -29.176 Q38.76 -31.703 38.76 -35.251 Q38.76 -38.879 41.286 -41.345 Q43.813 -43.81 47.361 -43.81 Q50.989 -43.81 53.455 -41.324 Q55.92 -38.837 55.92 -35.258 Q55.92 -31.679 53.434 -29.165 Q50.947 -26.65 47.368 -26.65 Z M47.368 -50.911 Q43.79 -50.911 41.275 -53.475 Q38.76 -56.039 38.76 -59.639 Q38.76 -63.239 41.286 -65.705 Q43.813 -68.171 47.361 -68.171 Q50.989 -68.171 53.455 -65.684 Q55.92 -63.198 55.92 -59.597 Q55.92 -55.997 53.434 -53.454 Q50.947 -50.911 47.368 -50.911 Z"/></g><g id="Semibold-S" transform="matrix(1 0 0 1 1998.1 696)"><path d="M47.347 -4.262 Q44.047 -4.262 41.725 -6.599 Q39.403 -8.937 39.403 -12.22 Q39.403 -15.526 41.74 -17.859 Q44.078 -20.192 47.361 -20.192 Q50.689 -20.192 52.983 -17.845 Q55.277 -15.498 55.277 -12.202 Q55.277 -8.906 52.962 -6.584 Q50.647 -4.262 47.347 -4.262 Z M47.347 -27.293 Q44.047 -27.293 41.725 -29.63 Q39.403 -31.968 39.403 -35.251 Q39.403 -38.579 41.74 -40.873 Q44.078 -43.167 47.361 -43.167 Q50.689 -43.167 52.983 -40.852 Q55.277 -38.537 55.277 -35.237 Q55.277 -31.937 52.962 -29.615 Q50.647 -27.293 47.347 -27.293 Z M47.347 -50.268 Q44.047 -50.268 41.725 -52.627 Q39.403 -54.986 39.403 -58.298 Q39.403 -61.61 41.74 -63.904 Q44.078 -66.198 47.361 -66.198 Q50.689 -66.198 52.983 -63.883 Q55.277 -61.568 55.277 -58.256 Q55.277 -54.944 52.962 -52.606 Q50.647 -50.268 47.347 -50.268 Z"/></g><g id="Medium-S" transform="matrix(1 0 0 1 1701.85 696)"><path d="M47.331 -5.741 Q44.24 -5.741 42.062 -7.937 Q39.885 -10.133 39.885 -13.217 Q39.885 -16.31 42.081 -18.492 Q44.277 -20.674 47.361 -20.674 Q50.464 -20.674 52.629 -18.474 Q54.795 -16.274 54.795 -13.185 Q54.795 -10.096 52.608 -7.918 Q50.422 -5.741 47.331 -5.741 Z M47.331 -27.775 Q44.24 -27.775 42.062 -29.971 Q39.885 -32.167 39.885 -35.251 Q39.885 -38.354 42.081 -40.519 Q44.277 -42.685 47.361 -42.685 Q50.464 -42.685 52.629 -40.498 Q54.795 -38.312 54.795 -35.221 Q54.795 -32.13 52.608 -29.952 Q50.422 -27.775 47.331 -27.775 Z M47.331 -49.786 Q44.24 -49.786 42.062 -51.991 Q39.885 -54.195 39.885 -57.292 Q39.885 -60.388 42.081 -62.553 Q44.277 -64.719 47.361 -64.719 Q50.464 -64.719 52.629 -62.532 Q54.795 -60.346 54.795 -57.25 Q54.795 -54.154 52.608 -51.97 Q50.422 -49.786 47.331 -49.786 Z"/></g><g id="Regular-S" transform="matrix(1 0 0 1 1405.73 696)"><path d="M47.319 -6.826 Q44.381 -6.826 42.31 -8.918 Q40.239 -11.01 40.239 -13.948 Q40.239 -16.886 42.331 -18.957 Q44.423 -21.028 47.361 -21.028 Q50.299 -21.028 52.37 -18.936 Q54.441 -16.844 54.441 -13.906 Q54.441 -10.968 52.349 -8.897 Q50.257 -6.826 47.319 -6.826 Z M47.319 -28.129 Q44.381 -28.129 42.31 -30.221 Q40.239 -32.313 40.239 -35.251 Q40.239 -38.189 42.331 -40.26 Q44.423 -42.331 47.361 -42.331 Q50.299 -42.331 52.37 -40.239 Q54.441 -38.147 54.441 -35.209 Q54.441 -32.271 52.349 -30.2 Q50.257 -28.129 47.319 -28.129 Z M47.319 -49.432 Q44.381 -49.432 42.31 -51.524 Q40.239 -53.616 40.239 -56.554 Q40.239 -59.492 42.331 -61.563 Q44.423 -63.634 47.361 -63.634 Q50.299 -63.634 52.37 -61.542 Q54.441 -59.45 54.441 -56.512 Q54.441 -53.574 52.349 -51.503 Q50.257 -49.432 47.319 -49.432 Z"/></g><g id="Light-S" transform="matrix(1 0 0 1 1109.75 696)"><path d="M47.319 -9.709 Q45.195 -9.709 43.703 -11.222 Q42.212 -12.734 42.212 -14.858 Q42.212 -16.983 43.724 -18.474 Q45.237 -19.966 47.361 -19.966 Q49.485 -19.966 50.977 -18.453 Q52.468 -16.941 52.468 -14.816 Q52.468 -12.692 50.956 -11.201 Q49.443 -9.709 47.319 -9.709 Z M47.319 -30.102 Q45.195 -30.102 43.703 -31.614 Q42.212 -33.127 42.212 -35.251 Q42.212 -37.375 43.724 -38.867 Q45.237 -40.358 47.361 -40.358 Q49.485 -40.358 50.977 -38.846 Q52.468 -37.333 52.468 -35.209 Q52.468 -33.085 50.956 -31.593 Q49.443 -30.102 47.319 -30.102 Z M47.319 -50.494 Q45.195 -50.494 43.703 -52.007 Q42.212 -53.519 42.212 -55.644 Q42.212 -57.768 43.724 -59.259 Q45.237 -60.751 47.361 -60.751 Q49.485 -60.751 50.977 -59.238 Q52.468 -57.726 52.468 -55.602 Q52.468 -53.477 50.956 -51.986 Q49.443 -50.494 47.319 -50.494 Z"/></g><g id="Thin-S" transform="matrix(1 0 0 1 814.015 696)"><path d="M47.319 -12.592 Q46.009 -12.592 45.096 -13.525 Q44.184 -14.458 44.184 -15.769 Q44.184 -17.079 45.117 -17.992 Q46.05 -18.904 47.361 -18.904 Q48.671 -18.904 49.584 -17.971 Q50.496 -17.037 50.496 -15.727 Q50.496 -14.416 49.563 -13.504 Q48.63 -12.592 47.319 -12.592 Z M47.319 -32.074 Q46.009 -32.074 45.096 -33.007 Q44.184 -33.94 44.184 -35.251 Q44.184 -36.561 45.117 -37.474 Q46.05 -38.386 47.361 -38.386 Q48.671 -38.386 49.584 -37.453 Q50.496 -36.52 50.496 -35.209 Q50.496 -33.899 49.563 -32.986 Q48.63 -32.074 47.319 -32.074 Z M47.319 -51.556 Q46.009 -51.556 45.096 -52.489 Q44.184 -53.423 44.184 -54.733 Q44.184 -56.044 45.117 -56.956 Q46.05 -57.868 47.361 -57.868 Q48.671 -57.868 49.584 -56.935 Q50.496 -56.002 50.496 -54.691 Q50.496 -53.381 49.563 -52.468 Q48.63 -51.556 47.319 -51.556 Z"/></g><g id="Ultralight-S" transform="matrix(1 0 0 1 517.792 696)"><path d="M47.319 -14.321 Q46.497 -14.321 45.932 -14.907 Q45.367 -15.493 45.367 -16.315 Q45.367 -17.137 45.953 -17.702 Q46.539 -18.266 47.361 -18.266 Q48.183 -18.266 48.748 -17.681 Q49.312 -17.095 49.312 -16.273 Q49.312 -15.451 48.727 -14.886 Q48.141 -14.321 47.319 -14.321 Z M47.319 -33.257 Q46.497 -33.257 45.932 -33.843 Q45.367 -34.429 45.367 -35.251 Q45.367 -36.073 45.953 -36.638 Q46.539 -37.202 47.361 -37.202 Q48.183 -37.202 48.748 -36.617 Q49.312 -36.031 49.312 -35.209 Q49.312 -34.387 48.727 -33.822 Q48.141 -33.257 47.319 -33.257 Z M47.319 -52.193 Q46.497 -52.193 45.932 -52.779 Q45.367 -53.365 45.367 -54.187 Q45.367 -55.009 45.953 -55.574 Q46.539 -56.138 47.361 -56.138 Q48.183 -56.138 48.748 -55.553 Q49.312 -54.967 49.312 -54.145 Q49.312 -53.323 48.727 -52.758 Q48.141 -52.193 47.319 -52.193 Z"/></g></g></svg>