<svg xmlns="http://www.w3.org/2000/svg" version="1.1" width="3300" height="2000"><g id="Notes"><style>
    text {
      font-family: monospace;
      text-anchor: middle;
    }
    text.emphasis {
      font-weight:bold;
    }
    text.lanchor {
      text-anchor: start;
    }
  </style><rect height="2200" id="artboard" fill="white" width="3300" x="0" y="0"/><line id="" style="fill:none;stroke:black;stroke-width:0.5;" x1="263" x2="3036" y1="292" y2="292"/><text class="lanchor emphasis" transform="matrix(1 0 0 1 263 322)">Weight/Scale Variations</text><text transform="matrix(1 0 0 1 559.711 322)">Ultralight</text><text transform="matrix(1 0 0 1 856.422 322)">Thin</text><text transform="matrix(1 0 0 1 1153.13 322)">Light</text><text transform="matrix(1 0 0 1 1449.84 322)">Regular</text><text transform="matrix(1 0 0 1 1746.56 322)">Medium</text><text transform="matrix(1 0 0 1 2043.27 322)">Semibold</text><text transform="matrix(1 0 0 1 2339.98 322)">Bold</text><text transform="matrix(1 0 0 1 2636.69 322)">Heavy</text><text transform="matrix(1 0 0 1 2933.4 322)">Black</text><text id="template-version" style="text-anchor: end;" transform="matrix(1 0 0 1 3036 1933)">Template v.1.0</text><text class="lanchor" transform="matrix(1 0 0 1 263 726)">Small</text><text class="lanchor" transform="matrix(1 0 0 1 263 1156)">Medium</text><text class="lanchor" transform="matrix(1 0 0 1 263 1586)">Large</text></g><g id="Guides"><g id="H-reference" style="fill:#27AAE1;stroke:none;" transform="matrix(1 0 0 1 339 696)"><path d="M 54.9316 0 L 57.666 0 L 30.5664 -70.459 L 28.0762 -70.459 L 0.976562 0 L 3.66211 0 L 12.9395 -24.4629 L 45.7031 -24.4629 Z M 29.1992 -67.0898 L 29.4434 -67.0898 L 44.8242 -26.709 L 13.8184 -26.709 Z"/></g><line id="Baseline-S" style="fill:none;stroke:#27AAE1;opacity:1;stroke-width:0.577;" x1="263" x2="3036" y1="696" y2="696"/><line id="Capline-S" style="fill:none;stroke:#27AAE1;opacity:1;stroke-width:0.577;" x1="263" x2="3036" y1="625.541" y2="625.541"/><g id="H-reference" style="fill:#27AAE1;stroke:none;" transform="matrix(1 0 0 1 339 1126)"><path d="M 54.9316 0 L 57.666 0 L 30.5664 -70.459 L 28.0762 -70.459 L 0.976562 0 L 3.66211 0 L 12.9395 -24.4629 L 45.7031 -24.4629 Z M 29.1992 -67.0898 L 29.4434 -67.0898 L 44.8242 -26.709 L 13.8184 -26.709 Z"/></g><line id="Baseline-M" style="fill:none;stroke:#27AAE1;opacity:1;stroke-width:0.577;" x1="263" x2="3036" y1="1126" y2="1126"/><line id="Capline-M" style="fill:none;stroke:#27AAE1;opacity:1;stroke-width:0.577;" x1="263" x2="3036" y1="1055.54" y2="1055.54"/><g id="H-reference" style="fill:#27AAE1;stroke:none;" transform="matrix(1 0 0 1 339 1556)"><path d="M 54.9316 0 L 57.666 0 L 30.5664 -70.459 L 28.0762 -70.459 L 0.976562 0 L 3.66211 0 L 12.9395 -24.4629 L 45.7031 -24.4629 Z M 29.1992 -67.0898 L 29.4434 -67.0898 L 44.8242 -26.709 L 13.8184 -26.709 Z"/></g><line id="Baseline-L" style="fill:none;stroke:#27AAE1;opacity:1;stroke-width:0.577;" x1="263" x2="3036" y1="1556" y2="1556"/><line id="Capline-L" style="fill:none;stroke:#27AAE1;opacity:1;stroke-width:0.577;" x1="263" x2="3036" y1="1485.54" y2="1485.54"/><rect height="119.336" id="left-margin" style="fill:darkred;stroke:none;opacity:0.4;" width="12.4512" x="1394.06" y="1030.79"/><rect height="119.336" id="right-margin" style="fill:darkgreen;stroke:none;opacity:0.4;" width="12.4512" x="1502.5112" y="1030.79"/><rect x="1406.5112" y="1045" width="96" height="96" fill="none" stroke="blue" stroke-dasharray="5"/><rect x="1394.06" y="1030.79" width="120.9024" height="119.336" fill="none" stroke="blue"/></g><g id="Symbols"><g id="Bold-L" transform="matrix(1 0 0 1 2266 1556)"><path d="M99.33 -3.464  109.328 -13.139  84.495 -38.169 V-68.931 H71.273 V-32.721 L99.33 -3.464 Z M77.422 33.301 Q63.21 33.301 50.733 27.921 Q38.256 22.541 28.946 13.237 Q19.636 3.933 14.253 -8.536 Q8.869 -21.005 8.869 -35.212 Q8.869 -49.42 14.284 -61.915 Q19.699 -74.41 28.96 -83.67 Q38.22 -92.931 50.7 -98.426 Q63.18 -103.922 77.4 -103.922 Q91.62 -103.922 104.1 -98.426 Q116.58 -92.931 125.84 -83.67 Q135.101 -74.41 140.596 -61.93 Q146.093 -49.45 146.093 -35.23 Q146.093 -21.01 140.596 -8.53 Q135.101 3.95 125.84 13.21 Q116.58 22.471 104.107 27.886 Q91.635 33.301 77.422 33.301 Z M77.318 18.144 Q99.33 18.144 115.052 2.583 Q130.774 -12.977 130.774 -35.149 Q130.774 -57.321 115.073 -72.962 Q99.373 -88.604 77.401 -88.604 Q55.309 -88.604 39.668 -72.982 Q24.026 -57.361 24.026 -35.23 Q24.026 -12.977 39.666 2.583 Q55.306 18.144 77.318 18.144 Z"/></g><g id="Semibold-L" transform="matrix(1 0 0 1 1970.27 1556)"><path d="M100.101 -3.744  108.907 -12.368  83.724 -37.733 V-69.212 H72.044 V-32.971 L100.101 -3.744 Z M77.413 31.549 Q63.631 31.549 51.461 26.299 Q39.29 21.05 30.207 11.97 Q21.124 2.89 15.873 -9.275 Q10.621 -21.441 10.621 -35.22 Q10.621 -48.999 15.891 -61.18 Q21.16 -73.36 30.215 -82.415 Q39.27 -91.47 51.442 -96.785 Q63.613 -102.1 77.4 -102.1 Q91.187 -102.1 103.358 -96.785 Q115.53 -91.47 124.585 -82.415 Q133.64 -73.36 138.955 -61.188 Q144.27 -49.017 144.27 -35.23 Q144.27 -21.443 138.955 -9.272 Q133.64 2.9 124.585 11.955 Q115.53 21.01 103.362 26.279 Q91.194 31.549 77.413 31.549 Z M77.354 18.775 Q99.61 18.775 115.508 2.969 Q131.405 -12.837 131.405 -35.184 Q131.405 -57.532 115.52 -73.383 Q99.635 -89.235 77.401 -89.235 Q55.098 -89.235 39.247 -73.394 Q23.395 -57.554 23.395 -35.23 Q23.395 -12.837 39.246 2.969 Q55.097 18.775 77.354 18.775 Z"/></g><g id="Medium-L" transform="matrix(1 0 0 1 1674.31 1556)"><path d="M100.68 -3.954  108.591 -11.789  83.145 -37.405 V-69.422 H72.622 V-33.158 L100.68 -3.954 Z M77.405 30.234 Q63.946 30.234 52.006 25.083 Q40.066 19.931 31.153 11.02 Q22.24 2.108 17.088 -9.83 Q11.936 -21.768 11.936 -35.226 Q11.936 -48.684 17.096 -60.628 Q22.255 -72.572 31.157 -81.473 Q40.058 -90.375 51.998 -95.554 Q63.939 -100.733 77.4 -100.733 Q90.861 -100.733 102.802 -95.554 Q114.742 -90.375 123.643 -81.473 Q132.545 -72.572 137.724 -60.632 Q142.903 -48.691 142.903 -35.23 Q142.903 -21.769 137.724 -9.828 Q132.545 2.112 123.643 11.013 Q114.742 19.915 102.803 25.074 Q90.865 30.234 77.405 30.234 Z M77.38 19.248 Q99.821 19.248 115.849 3.258 Q131.878 -12.732 131.878 -35.211 Q131.878 -57.689 115.854 -73.699 Q99.831 -89.708 77.4 -89.708 Q54.941 -89.708 38.931 -73.703 Q22.922 -57.699 22.922 -35.23 Q22.922 -12.732 38.931 3.258 Q54.94 19.248 77.38 19.248 Z"/></g><g id="Regular-L" transform="matrix(1 0 0 1 1378.56 1556)"><path d="M101.104 -4.109  108.36 -11.365  82.721 -37.165 V-69.576 H73.046 V-33.295 L101.104 -4.109 Z M77.4 29.27 Q64.177 29.27 52.406 24.191 Q40.635 19.111 31.847 10.323 Q23.059 1.535 17.979 -10.236 Q12.9 -22.007 12.9 -35.23 Q12.9 -48.452 17.979 -60.224 Q23.059 -71.995 31.847 -80.783 Q40.635 -89.571 52.406 -94.651 Q64.177 -99.73 77.4 -99.73 Q90.623 -99.73 102.394 -94.651 Q114.165 -89.571 122.953 -80.783 Q131.741 -71.995 136.821 -60.224 Q141.9 -48.452 141.9 -35.23 Q141.9 -22.007 136.821 -10.236 Q131.741 1.535 122.953 10.323 Q114.165 19.111 102.394 24.191 Q90.623 29.27 77.4 29.27 Z M77.4 19.595 Q99.975 19.595 116.1 3.47 Q132.225 -12.655 132.225 -35.23 Q132.225 -57.805 116.1 -73.93 Q99.975 -90.055 77.4 -90.055 Q54.825 -90.055 38.7 -73.93 Q22.575 -57.805 22.575 -35.23 Q22.575 -12.655 38.7 3.47 Q54.825 19.595 77.4 19.595 Z"/></g><g id="Light-L" transform="matrix(1 0 0 1 1082.77 1556)"><path d="M101.6 -5.473  107.057 -10.931  81.419 -36.732 V-69.018 H74.101 V-33.729 L101.6 -5.473 Z M77.411 26.045 Q64.798 26.045 53.643 21.22 Q42.488 16.396 34.134 8.045 Q25.779 -0.307 20.952 -11.456 Q16.125 -22.606 16.125 -35.219 Q16.125 -47.832 20.95 -58.987 Q25.774 -70.142 34.125 -78.496 Q42.477 -86.851 53.626 -91.678 Q64.776 -96.505 77.389 -96.505 Q90.002 -96.505 101.157 -91.68 Q112.312 -86.856 120.666 -78.505 Q129.021 -70.153 133.848 -59.004 Q138.675 -47.854 138.675 -35.241 Q138.675 -22.628 133.85 -11.473 Q129.026 -0.318 120.675 8.036 Q112.323 16.391 101.174 21.218 Q90.024 26.045 77.411 26.045 Z M77.4 18.727 Q99.665 18.727 115.511 2.881 Q131.357 -12.965 131.357 -35.23 Q131.357 -57.495 115.511 -73.341 Q99.665 -89.187 77.4 -89.187 Q55.135 -89.187 39.289 -73.341 Q23.443 -57.495 23.443 -35.23 Q23.443 -12.965 39.289 2.881 Q55.135 18.727 77.4 18.727 Z"/></g><g id="Thin-L" transform="matrix(1 0 0 1 787.282 1556)"><path d="M102.096 -6.838  105.755 -10.497  80.116 -36.3 V-68.46 H75.155 V-34.163 L102.096 -6.838 Z M77.422 22.82 Q65.418 22.82 54.88 18.25 Q44.342 13.681 36.42 5.766 Q28.498 -2.148 23.924 -12.677 Q19.35 -23.205 19.35 -35.208 Q19.35 -47.212 23.92 -57.75 Q28.489 -68.288 36.404 -76.21 Q44.318 -84.132 54.847 -88.706 Q65.375 -93.28 77.378 -93.28 Q89.382 -93.28 99.92 -88.71 Q110.458 -84.141 118.38 -76.226 Q126.302 -68.312 130.876 -57.783 Q135.45 -47.255 135.45 -35.252 Q135.45 -23.248 130.88 -12.71 Q126.311 -2.172 118.396 5.75 Q110.482 13.672 99.953 18.246 Q89.425 22.82 77.422 22.82 Z M77.4 17.858 Q99.355 17.858 114.922 2.292 Q130.488 -13.275 130.488 -35.23 Q130.488 -57.185 114.922 -72.752 Q99.355 -88.318 77.4 -88.318 Q55.445 -88.318 39.878 -72.752 Q24.312 -57.185 24.312 -35.23 Q24.312 -13.275 39.878 2.292 Q55.445 17.858 77.4 17.858 Z"/></g><g id="Ultralight-L" transform="matrix(1 0 0 1 491.205 1556)"><path d="M102.394 -7.656  104.974 -10.236  79.335 -36.04 V-68.125 H75.788 V-34.424 L102.394 -7.656 Z M77.428 20.885 Q65.79 20.885 55.622 16.468 Q45.454 12.051 37.792 4.399 Q30.13 -3.253 25.707 -13.409 Q21.285 -23.564 21.285 -35.202 Q21.285 -46.84 25.702 -57.008 Q30.119 -67.176 37.771 -74.838 Q45.423 -82.5 55.579 -86.923 Q65.734 -91.345 77.372 -91.345 Q89.01 -91.345 99.178 -86.928 Q109.346 -82.511 117.008 -74.859 Q124.67 -67.207 129.093 -57.051 Q133.515 -46.896 133.515 -35.258 Q133.515 -23.62 129.098 -13.452 Q124.681 -3.284 117.029 4.378 Q109.377 12.04 99.221 16.463 Q89.066 20.885 77.428 20.885 Z M77.4 17.338 Q99.169 17.338 114.568 1.938 Q129.968 -13.461 129.968 -35.23 Q129.968 -56.999 114.568 -72.398 Q99.169 -87.797 77.4 -87.797 Q55.631 -87.797 40.232 -72.398 Q24.832 -56.999 24.832 -35.23 Q24.832 -13.461 40.232 1.938 Q55.631 17.338 77.4 17.338 Z"/></g><g id="Bold-M" transform="matrix(1 0 0 1 2281.8 1126)"><path d="M74.625 -10.98  84.5 -20.605  66.875 -38.23 V-59.605 H53.125 V-32.535 L74.625 -10.98 Z M60 19.02 Q48.625 19.02 38.752 14.76 Q28.878 10.499 21.575 3.196 Q14.271 -4.108 10.011 -13.982 Q5.75 -23.855 5.75 -35.23 Q5.75 -46.605 10.011 -56.478 Q14.271 -66.352 21.575 -73.655 Q28.878 -80.959 38.752 -85.219 Q48.625 -89.48 60 -89.48 Q71.375 -89.48 81.248 -85.219 Q91.122 -80.959 98.425 -73.655 Q105.729 -66.352 109.99 -56.478 Q114.25 -46.605 114.25 -35.23 Q114.25 -23.855 109.99 -13.982 Q105.729 -4.108 98.425 3.196 Q91.122 10.499 81.248 14.76 Q71.375 19.02 60 19.02 Z M59.999 3.27 Q76 3.27 87.25 -7.917 Q98.5 -19.105 98.5 -35.23 Q98.5 -51.355 87.251 -62.542 Q76.002 -73.73 60.001 -73.73 Q44 -73.73 32.75 -62.542 Q21.5 -51.355 21.5 -35.23 Q21.5 -19.105 32.749 -7.917 Q43.998 3.27 59.999 3.27 Z"/></g><g id="Semibold-M" transform="matrix(1 0 0 1 1985.97 1126)"><path d="M75.44 -11.306  84.065 -19.79  66.06 -37.795 V-59.877 H53.94 V-32.837 L75.44 -11.306 Z M60 17.172 Q49.06 17.172 39.512 13.052 Q29.964 8.932 22.901 1.869 Q15.838 -5.194 11.718 -14.742 Q7.598 -24.29 7.598 -35.23 Q7.598 -46.17 11.718 -55.718 Q15.838 -65.266 22.901 -72.329 Q29.964 -79.392 39.512 -83.512 Q49.06 -87.632 60 -87.632 Q70.94 -87.632 80.488 -83.512 Q90.036 -79.392 97.099 -72.329 Q104.162 -65.266 108.282 -55.718 Q112.402 -46.17 112.402 -35.23 Q112.402 -24.29 108.282 -14.742 Q104.162 -5.194 97.099 1.869 Q90.036 8.932 80.488 13.052 Q70.94 17.172 60 17.172 Z M59.999 3.922 Q76.272 3.922 87.712 -7.483 Q99.152 -18.888 99.152 -35.23 Q99.152 -51.572 87.713 -62.977 Q76.273 -74.382 60.001 -74.382 Q43.728 -74.382 32.288 -62.977 Q20.848 -51.572 20.848 -35.23 Q20.848 -18.888 32.288 -7.483 Q43.727 3.922 59.999 3.922 Z"/></g><g id="Medium-M" transform="matrix(1 0 0 1 1689.91 1126)"><path d="M76.052 -11.551  83.739 -19.178  65.448 -37.469 V-60.08 H54.552 V-33.064 L76.052 -11.551 Z M60 15.786 Q49.386 15.786 40.082 11.772 Q30.778 7.757 23.895 0.875 Q17.013 -6.008 12.998 -15.312 Q8.984 -24.616 8.984 -35.23 Q8.984 -45.844 12.998 -55.148 Q17.013 -64.452 23.895 -71.334 Q30.778 -78.217 40.082 -82.232 Q49.386 -86.246 60 -86.246 Q70.614 -86.246 79.918 -82.232 Q89.222 -78.217 96.105 -71.334 Q102.987 -64.452 107.002 -55.148 Q111.016 -45.844 111.016 -35.23 Q111.016 -24.616 107.002 -15.312 Q102.987 -6.008 96.105 0.875 Q89.222 7.757 79.918 11.772 Q70.614 15.786 60 15.786 Z M60 4.411 Q76.475 4.411 88.058 -7.157 Q99.641 -18.725 99.641 -35.23 Q99.641 -51.735 88.059 -63.303 Q76.476 -74.871 60 -74.871 Q43.525 -74.871 31.942 -63.303 Q20.359 -51.735 20.359 -35.23 Q20.359 -18.725 31.941 -7.157 Q43.524 4.411 60 4.411 Z"/></g><g id="Regular-M" transform="matrix(1 0 0 1 1394.06 1126)"><path d="M76.5 -11.73  83.5 -18.73  65 -37.23 V-60.23 H55 V-33.23 L76.5 -11.73 Z M60 14.77 Q49.625 14.77 40.5 10.833 Q31.375 6.895 24.625 0.145 Q17.875 -6.605 13.938 -15.73 Q10 -24.855 10 -35.23 Q10 -45.605 13.938 -54.73 Q17.875 -63.855 24.625 -70.605 Q31.375 -77.355 40.5 -81.292 Q49.625 -85.23 60 -85.23 Q70.375 -85.23 79.5 -81.292 Q88.625 -77.355 95.375 -70.605 Q102.125 -63.855 106.062 -54.73 Q110 -45.605 110 -35.23 Q110 -24.855 106.062 -15.73 Q102.125 -6.605 95.375 0.145 Q88.625 6.895 79.5 10.833 Q70.375 14.77 60 14.77 Z M60 4.77 Q76.625 4.77 88.312 -6.917 Q100 -18.605 100 -35.23 Q100 -51.855 88.312 -63.542 Q76.625 -75.23 60 -75.23 Q43.375 -75.23 31.688 -63.542 Q20 -51.855 20 -35.23 Q20 -18.605 31.688 -6.917 Q43.375 4.77 60 4.77 Z"/></g><g id="Light-M" transform="matrix(1 0 0 1 1098.18 1126)"><path d="M77.365 -12.595  82.635 -17.864  63.75 -36.75 V-60.23 H56.25 V-33.711 L77.365 -12.595 Z M60.008 12.27 Q50.154 12.27 41.483 8.53 Q32.812 4.79 26.398 -1.621 Q19.983 -8.033 16.242 -16.7 Q12.5 -25.367 12.5 -35.222 Q12.5 -45.076 16.24 -53.747 Q19.98 -62.418 26.391 -68.832 Q32.803 -75.247 41.47 -78.988 Q50.137 -82.73 59.992 -82.73 Q69.846 -82.73 78.517 -78.99 Q87.188 -75.25 93.602 -68.839 Q100.017 -62.427 103.758 -53.76 Q107.5 -45.093 107.5 -35.238 Q107.5 -25.384 103.76 -16.713 Q100.02 -8.042 93.609 -1.628 Q87.197 4.787 78.53 8.528 Q69.863 12.27 60.008 12.27 Z M60 4.77 Q76.625 4.77 88.312 -6.917 Q100 -18.605 100 -35.23 Q100 -51.855 88.312 -63.542 Q76.625 -75.23 60 -75.23 Q43.375 -75.23 31.688 -63.542 Q20 -51.855 20 -35.23 Q20 -18.605 31.688 -6.917 Q43.375 4.77 60 4.77 Z"/></g><g id="Thin-M" transform="matrix(1 0 0 1 802.565 1126)"><path d="M78.231 -13.461  81.769 -16.999  62.5 -36.271 V-60.23 H57.5 V-34.191 L78.231 -13.461 Z M60.017 9.77 Q50.683 9.77 42.465 6.228 Q34.248 2.685 28.17 -3.388 Q22.091 -9.46 18.546 -17.67 Q15 -25.879 15 -35.213 Q15 -44.547 18.542 -52.764 Q22.085 -60.982 28.158 -67.06 Q34.23 -73.138 42.44 -76.684 Q50.649 -80.23 59.983 -80.23 Q69.317 -80.23 77.534 -76.688 Q85.752 -73.145 91.83 -67.072 Q97.909 -61 101.454 -52.79 Q105 -44.581 105 -35.247 Q105 -25.913 101.458 -17.695 Q97.915 -9.478 91.842 -3.4 Q85.77 2.679 77.56 6.224 Q69.351 9.77 60.017 9.77 Z M60 4.77 Q76.625 4.77 88.312 -6.917 Q100 -18.605 100 -35.23 Q100 -51.855 88.312 -63.542 Q76.625 -75.23 60 -75.23 Q43.375 -75.23 31.688 -63.542 Q20 -51.855 20 -35.23 Q20 -18.605 31.688 -6.917 Q43.375 4.77 60 4.77 Z"/></g><g id="Ultralight-M" transform="matrix(1 0 0 1 506.415 1126)"><path d="M78.75 -13.98  81.25 -16.48  61.75 -35.983 V-60.23 H58.25 V-34.48 L78.75 -13.98 Z M60.022 8.27 Q51 8.27 43.055 4.846 Q35.11 1.422 29.233 -4.447 Q23.357 -10.317 19.928 -18.252 Q16.5 -26.186 16.5 -35.208 Q16.5 -44.23 19.924 -52.175 Q23.348 -60.12 29.217 -65.996 Q35.087 -71.873 43.022 -75.302 Q50.956 -78.73 59.978 -78.73 Q69 -78.73 76.945 -75.306 Q84.89 -71.882 90.766 -66.013 Q96.644 -60.143 100.072 -52.208 Q103.5 -44.273 103.5 -35.252 Q103.5 -26.23 100.076 -18.285 Q96.652 -10.34 90.783 -4.463 Q84.913 1.414 76.978 4.842 Q69.043 8.27 60.022 8.27 Z M60 4.77 Q76.625 4.77 88.312 -6.917 Q100 -18.605 100 -35.23 Q100 -51.855 88.312 -63.542 Q76.625 -75.23 60 -75.23 Q43.375 -75.23 31.688 -63.542 Q20 -51.855 20 -35.23 Q20 -18.605 31.688 -6.917 Q43.375 4.77 60 4.77 Z"/></g><g id="Bold-S" transform="matrix(1 0 0 1 2294.23 696)"><path d="M59.076 -17.872  66.375 -24.973  52.37 -38.978 V-58.407 H42.31 V-34.682 L59.076 -17.872 Z M47.34 5.995 Q38.723 5.995 31.247 2.782 Q23.771 -0.432 18.156 -6.046 Q12.542 -11.661 9.328 -19.151 Q6.115 -26.641 6.115 -35.275 Q6.115 -43.909 9.328 -51.403 Q12.542 -58.898 18.156 -64.463 Q23.771 -70.028 31.261 -73.242 Q38.751 -76.455 47.385 -76.455 Q56.019 -76.455 63.514 -73.218 Q71.009 -69.981 76.553 -64.431 Q82.097 -58.882 85.331 -51.38 Q88.565 -43.877 88.565 -35.23 Q88.565 -26.613 85.352 -19.137 Q82.138 -11.661 76.573 -6.046 Q71.008 -0.432 63.5 2.782 Q55.993 5.995 47.34 5.995 Z M47.386 -5.642 Q59.664 -5.642 68.296 -14.272 Q76.928 -22.902 76.928 -35.277 Q76.928 -47.652 68.296 -56.235 Q59.665 -64.817 47.388 -64.817 Q35.111 -64.817 26.431 -56.235 Q17.753 -47.652 17.753 -35.277 Q17.753 -22.902 26.431 -14.272 Q35.109 -5.642 47.386 -5.642 Z"/></g><g id="Semibold-S" transform="matrix(1 0 0 1 1998.1 696)"><path d="M59.72 -18.129  66.032 -24.33  51.727 -38.635 V-58.621 H42.953 V-34.92 L59.72 -18.129 Z M47.34 4.537 Q39.066 4.537 31.847 1.435 Q24.628 -1.668 19.203 -7.093 Q13.778 -12.518 10.675 -19.751 Q7.573 -26.984 7.573 -35.275 Q7.573 -43.566 10.675 -50.803 Q13.778 -58.041 19.203 -63.416 Q24.628 -68.792 31.861 -71.895 Q39.094 -74.997 47.385 -74.997 Q55.676 -74.997 62.914 -71.871 Q70.152 -68.745 75.507 -63.385 Q80.861 -58.025 83.984 -50.78 Q87.107 -43.534 87.107 -35.23 Q87.107 -26.956 84.005 -19.737 Q80.902 -12.518 75.526 -7.093 Q70.151 -1.668 62.901 1.435 Q55.65 4.537 47.34 4.537 Z M47.387 -5.128 Q59.878 -5.128 68.66 -13.929 Q77.442 -22.73 77.442 -35.277 Q77.442 -47.824 68.66 -56.578 Q59.879 -65.332 47.388 -65.332 Q34.896 -65.332 26.067 -56.578 Q17.238 -47.824 17.238 -35.277 Q17.238 -22.73 26.067 -13.929 Q34.895 -5.128 47.387 -5.128 Z"/></g><g id="Medium-S" transform="matrix(1 0 0 1 1701.85 696)"><path d="M60.202 -18.322  65.774 -23.847  51.244 -38.377 V-58.782 H43.436 V-35.099 L60.202 -18.322 Z M47.34 3.444 Q39.323 3.444 32.296 0.424 Q25.27 -2.595 19.988 -7.878 Q14.705 -13.16 11.686 -20.201 Q8.666 -27.242 8.666 -35.275 Q8.666 -43.309 11.686 -50.354 Q14.705 -57.399 19.988 -62.632 Q25.27 -67.865 32.311 -70.884 Q39.352 -73.904 47.385 -73.904 Q55.419 -73.904 62.464 -70.861 Q69.51 -67.817 74.722 -62.6 Q79.933 -57.383 82.974 -50.33 Q86.014 -43.277 86.014 -35.23 Q86.014 -27.213 82.994 -20.186 Q79.975 -13.16 74.742 -7.878 Q69.509 -2.595 62.451 0.424 Q55.393 3.444 47.34 3.444 Z M47.387 -4.742 Q60.039 -4.742 68.933 -13.672 Q77.828 -22.602 77.828 -35.277 Q77.828 -47.952 68.934 -56.835 Q60.039 -65.718 47.387 -65.718 Q34.735 -65.718 25.794 -56.835 Q16.852 -47.952 16.852 -35.277 Q16.852 -22.602 25.793 -13.672 Q34.735 -4.742 47.387 -4.742 Z"/></g><g id="Regular-S" transform="matrix(1 0 0 1 1405.73 696)"><path d="M60.556 -18.464  65.586 -23.494  50.891 -38.189 V-58.9 H43.79 V-35.23 L60.556 -18.464 Z M47.34 2.642 Q39.512 2.642 32.626 -0.317 Q25.741 -3.275 20.563 -8.453 Q15.386 -13.631 12.427 -20.531 Q9.468 -27.43 9.468 -35.275 Q9.468 -43.12 12.427 -50.024 Q15.386 -56.927 20.563 -62.056 Q25.741 -67.184 32.641 -70.143 Q39.54 -73.102 47.385 -73.102 Q55.23 -73.102 62.134 -70.12 Q69.039 -67.137 74.146 -62.024 Q79.253 -56.912 82.233 -50 Q85.212 -43.088 85.212 -35.23 Q85.212 -27.402 82.253 -20.516 Q79.294 -13.631 74.166 -8.453 Q69.038 -3.275 62.121 -0.317 Q55.204 2.642 47.34 2.642 Z M47.387 -4.459 Q60.157 -4.459 69.134 -13.483 Q78.111 -22.507 78.111 -35.277 Q78.111 -48.047 69.134 -57.024 Q60.157 -66.001 47.387 -66.001 Q34.617 -66.001 25.593 -57.024 Q16.569 -48.047 16.569 -35.277 Q16.569 -22.507 25.593 -13.483 Q34.617 -4.459 47.387 -4.459 Z"/></g><g id="Light-S" transform="matrix(1 0 0 1 1109.75 696)"><path d="M61.239 -19.147  64.903 -22.811  49.904 -37.81 V-58.9 H44.776 V-35.609 L61.239 -19.147 Z M47.347 0.669 Q39.929 0.669 33.402 -2.134 Q26.875 -4.936 21.962 -9.847 Q17.049 -14.758 14.245 -21.296 Q11.441 -27.835 11.441 -35.269 Q11.441 -42.703 14.244 -49.248 Q17.046 -55.794 21.957 -60.657 Q26.868 -65.521 33.406 -68.325 Q39.945 -71.129 47.379 -71.129 Q54.813 -71.129 61.359 -68.303 Q67.905 -65.476 72.747 -60.631 Q77.59 -55.785 80.415 -49.235 Q83.239 -42.684 83.239 -35.237 Q83.239 -27.819 80.436 -21.292 Q77.634 -14.765 72.772 -9.852 Q67.911 -4.939 61.356 -2.135 Q54.8 0.669 47.347 0.669 Z M47.387 -4.459 Q60.157 -4.459 69.134 -13.483 Q78.111 -22.507 78.111 -35.277 Q78.111 -48.047 69.134 -57.024 Q60.157 -66.001 47.387 -66.001 Q34.617 -66.001 25.593 -57.024 Q16.569 -48.047 16.569 -35.277 Q16.569 -22.507 25.593 -13.483 Q34.617 -4.459 47.387 -4.459 Z"/></g><g id="Thin-S" transform="matrix(1 0 0 1 814.015 696)"><path d="M61.921 -19.829  64.22 -22.128  48.918 -37.432 V-58.9 H45.762 V-35.989 L61.921 -19.829 Z M47.353 -1.303 Q40.346 -1.303 34.177 -3.95 Q28.008 -6.597 23.36 -11.241 Q18.712 -15.884 16.063 -22.061 Q13.413 -28.239 13.413 -35.262 Q13.413 -42.286 16.06 -48.473 Q18.707 -54.66 23.351 -59.259 Q27.994 -63.858 34.171 -66.507 Q40.349 -69.157 47.372 -69.157 Q54.396 -69.157 60.584 -66.486 Q66.772 -63.816 71.349 -59.237 Q75.927 -54.659 78.597 -48.47 Q81.267 -42.28 81.267 -35.243 Q81.267 -28.236 78.62 -22.067 Q75.973 -15.898 71.379 -11.25 Q66.785 -6.602 60.59 -3.953 Q54.396 -1.303 47.353 -1.303 Z M47.387 -4.459 Q60.157 -4.459 69.134 -13.483 Q78.111 -22.507 78.111 -35.277 Q78.111 -48.047 69.134 -57.024 Q60.157 -66.001 47.387 -66.001 Q34.617 -66.001 25.593 -57.024 Q16.569 -48.047 16.569 -35.277 Q16.569 -22.507 25.593 -13.483 Q34.617 -4.459 47.387 -4.459 Z"/></g><g id="Ultralight-S" transform="matrix(1 0 0 1 517.792 696)"><path d="M62.331 -20.239  63.81 -21.718  48.326 -37.205 V-58.9 H46.354 V-36.216 L62.331 -20.239 Z M47.357 -2.486 Q40.596 -2.486 34.642 -5.04 Q28.688 -7.594 24.199 -12.077 Q19.71 -16.56 17.153 -22.52 Q14.597 -28.481 14.597 -35.258 Q14.597 -42.035 17.15 -48.008 Q19.704 -53.98 24.187 -58.42 Q28.67 -62.86 34.63 -65.417 Q40.591 -67.973 47.368 -67.973 Q54.145 -67.973 60.118 -65.396 Q66.091 -62.819 70.51 -58.401 Q74.929 -53.983 77.506 -48.01 Q80.084 -42.038 80.084 -35.247 Q80.084 -28.486 77.53 -22.532 Q74.976 -16.578 70.543 -12.089 Q66.109 -7.6 60.131 -5.043 Q54.154 -2.486 47.357 -2.486 Z M47.387 -4.459 Q60.157 -4.459 69.134 -13.483 Q78.111 -22.507 78.111 -35.277 Q78.111 -48.047 69.134 -57.024 Q60.157 -66.001 47.387 -66.001 Q34.617 -66.001 25.593 -57.024 Q16.569 -48.047 16.569 -35.277 Q16.569 -22.507 25.593 -13.483 Q34.617 -4.459 47.387 -4.459 Z"/></g></g></svg>